<svg xmlns="http://www.w3.org/2000/svg" width="1000" height="700" viewBox="0 0 1000 700">
<title>Uzushiogakure no Sato · 渦潮隠れの里</title>
<!-- Ricostruzione originale AniMapVerse · CC0 · non è materiale ufficiale di Naruto -->
<defs><linearGradient id="seaG" x1="0" y1="0" x2="0" y2="1"><stop offset="0" stop-color="#3f7f9a"/><stop offset="1" stop-color="#2a5f78"/></linearGradient><symbol id="t6c984120" overflow="visible"><g stroke="#1f3a18" stroke-width="1.0" stroke-linejoin="round"><ellipse cx="1.8" cy="1.1" rx="7.4" ry="4.1" fill="#34522a" stroke="none" opacity="0.45"/><circle cx="0" cy="-4.4" r="7.4" fill="#5f8a4a"/><circle cx="-2.2" cy="-7" r="2.8" fill="#86b060" stroke="none" opacity="0.8"/></g></symbol><symbol id="t6c984121" overflow="visible"><g stroke="#1f3a18" stroke-width="1.0" stroke-linejoin="round"><ellipse cx="2.2" cy="1.3" rx="9" ry="5" fill="#34522a" stroke="none" opacity="0.45"/><circle cx="0" cy="-5.4" r="9" fill="#5f8a4a"/><circle cx="-2.7" cy="-8.5" r="3.4" fill="#86b060" stroke="none" opacity="0.8"/></g></symbol><symbol id="t6c984122" overflow="visible"><g stroke="#1f3a18" stroke-width="1.0" stroke-linejoin="round"><ellipse cx="2.7" cy="1.6" rx="10.6" ry="5.8" fill="#34522a" stroke="none" opacity="0.45"/><circle cx="0" cy="-6.4" r="10.6" fill="#5f8a4a"/><circle cx="-3.2" cy="-10.1" r="4" fill="#86b060" stroke="none" opacity="0.8"/></g></symbol></defs>
<rect width="1000" height="700" fill="url(#seaG)"/>
<g fill="none" stroke="#cfe8ef" stroke-width="2" stroke-linecap="round" opacity="0.4">
<path d="M819.1,677.6 q6.3,-5.6 12.5,0 q6.3,5.6 12.5,0"/>
<path d="M795.9,374.1 q7.7,-6.9 15.4,0 q7.7,6.9 15.4,0"/>
<path d="M464,684.7 q7.8,-7 15.5,0 q7.8,7 15.5,0"/>
<path d="M793.1,253 q6,-5.4 12.1,0 q6,5.4 12.1,0"/>
<path d="M405,126.9 q5,-4.5 10.1,0 q5,4.5 10.1,0"/>
<path d="M195.1,94.2 q8.2,-7.3 16.3,0 q8.2,7.3 16.3,0"/>
<path d="M832.7,515.5 q5.2,-4.6 10.3,0 q5.2,4.6 10.3,0"/>
<path d="M177.8,58.3 q5.6,-5 11.2,0 q5.6,5 11.2,0"/>
<path d="M712.9,394.5 q5.4,-4.9 10.9,0 q5.4,4.9 10.9,0"/>
<path d="M684.3,98.9 q6.4,-5.8 12.9,0 q6.4,5.8 12.9,0"/>
<path d="M236.6,687 q7.9,-7.1 15.7,0 q7.9,7.1 15.7,0"/>
<path d="M1.4,401.4 q6.5,-5.9 13,0 q6.5,5.9 13,0"/>
<path d="M21.7,74.4 q6.7,-6 13.3,0 q6.7,6 13.3,0"/>
<path d="M85,354.3 q8.1,-7.3 16.2,0 q8.1,7.3 16.2,0"/>
<path d="M585.2,131.6 q7,-6.3 13.9,0 q7,6.3 13.9,0"/>
<path d="M607.2,494.6 q7.7,-6.9 15.3,0 q7.7,6.9 15.3,0"/>
<path d="M882.5,456.4 q6,-5.4 11.9,0 q6,5.4 11.9,0"/>
<path d="M943.7,264 q8.9,-8 17.8,0 q8.9,8 17.8,0"/>
<path d="M9.9,354.6 q8.6,-7.7 17.2,0 q8.6,7.7 17.2,0"/>
<path d="M205.9,682.1 q7.9,-7.1 15.9,0 q7.9,7.1 15.9,0"/>
<path d="M456.8,625.6 q8.5,-7.7 17.1,0 q8.5,7.7 17.1,0"/>
<path d="M111,563.7 q5,-4.5 10.1,0 q5,4.5 10.1,0"/>
<path d="M32.7,189.3 q7.9,-7.1 15.8,0 q7.9,7.1 15.8,0"/>
<path d="M290.8,28.5 q5.9,-5.3 11.7,0 q5.9,5.3 11.7,0"/>
<path d="M793.7,139.5 q5.3,-4.8 10.6,0 q5.3,4.8 10.6,0"/>
<path d="M467.2,150.3 q6.8,-6.1 13.5,0 q6.8,6.1 13.5,0"/>
<path d="M391.3,31.5 q8.9,-8 17.9,0 q8.9,8 17.9,0"/>
<path d="M240.5,598 q7.2,-6.5 14.4,0 q7.2,6.5 14.4,0"/>
<path d="M258.2,17 q5.5,-4.9 11,0 q5.5,4.9 11,0"/>
<path d="M259.2,53.7 q4.9,-4.4 9.8,0 q4.9,4.4 9.8,0"/>
<path d="M807.5,478.1 q6.4,-5.8 12.8,0 q6.4,5.8 12.8,0"/>
<path d="M324.6,597.6 q8.7,-7.8 17.4,0 q8.7,7.8 17.4,0"/>
<path d="M166.7,516.2 q6.2,-5.6 12.5,0 q6.2,5.6 12.5,0"/>
<path d="M919.1,636.9 q5.8,-5.3 11.7,0 q5.8,5.3 11.7,0"/>
<path d="M634.7,687 q8.6,-7.8 17.3,0 q8.6,7.8 17.3,0"/>
<path d="M497.9,584.5 q8.5,-7.7 17.1,0 q8.5,7.7 17.1,0"/>
<path d="M847.5,154.8 q8.7,-7.8 17.4,0 q8.7,7.8 17.4,0"/>
<path d="M948.3,540.6 q7.9,-7.1 15.8,0 q7.9,7.1 15.8,0"/>
<path d="M28.6,424 q7.4,-6.7 14.9,0 q7.4,6.7 14.9,0"/>
<path d="M861.9,519.4 q7.2,-6.5 14.4,0 q7.2,6.5 14.4,0"/>
<path d="M669.4,386.7 q8.1,-7.3 16.2,0 q8.1,7.3 16.2,0"/>
<path d="M682.2,341.3 q5.6,-5.1 11.3,0 q5.6,5.1 11.3,0"/>
<path d="M890.3,295.4 q7.3,-6.6 14.6,0 q7.3,6.6 14.6,0"/>
<path d="M468.9,97.1 q8.1,-7.2 16.1,0 q8.1,7.2 16.1,0"/>
<path d="M226.7,106.8 q7.5,-6.8 15,0 q7.5,6.8 15,0"/>
<path d="M91.1,119.9 q5.2,-4.7 10.4,0 q5.2,4.7 10.4,0"/>
<path d="M711.2,353.1 q8,-7.2 16.1,0 q8,7.2 16.1,0"/>
<path d="M772.1,618.4 q5.4,-4.9 10.8,0 q5.4,4.9 10.8,0"/>
<path d="M750,393.2 q8.7,-7.8 17.3,0 q8.7,7.8 17.3,0"/>
<path d="M822.8,571.6 q6.8,-6.1 13.5,0 q6.8,6.1 13.5,0"/>
<path d="M42.9,61.4 q7.1,-6.4 14.2,0 q7.1,6.4 14.2,0"/>
<path d="M40,387 q6.1,-5.5 12.3,0 q6.1,5.5 12.3,0"/>
<path d="M229.5,636.2 q6.5,-5.9 13.1,0 q6.5,5.9 13.1,0"/>
<path d="M923.2,409.9 q6.4,-5.8 12.9,0 q6.4,5.8 12.9,0"/>
<path d="M73.2,215.1 q8,-7.2 16.1,0 q8,7.2 16.1,0"/>
<path d="M867.5,20.2 q9,-8.1 18,0 q9,8.1 18,0"/>
<path d="M818.3,640.9 q9,-8.1 18,0 q9,8.1 18,0"/>
<path d="M91.9,265.7 q7.5,-6.8 15,0 q7.5,6.8 15,0"/>
<path d="M425.3,34.1 q6.1,-5.5 12.3,0 q6.1,5.5 12.3,0"/>
<path d="M488.2,10.1 q5,-4.5 10,0 q5,4.5 10,0"/>
<path d="M664.5,237.8 q8.1,-7.3 16.3,0 q8.1,7.3 16.3,0"/>
<path d="M93.3,419.5 q6,-5.4 12,0 q6,5.4 12,0"/>
<path d="M936.9,285.2 q5.2,-4.7 10.3,0 q5.2,4.7 10.3,0"/>
<path d="M952.5,380.8 q5.8,-5.3 11.7,0 q5.8,5.3 11.7,0"/>
<path d="M619.8,597.1 q6.3,-5.7 12.6,0 q6.3,5.7 12.6,0"/>
<path d="M842.4,339.4 q8.7,-7.8 17.4,0 q8.7,7.8 17.4,0"/>
<path d="M163.9,162.1 q6.9,-6.2 13.7,0 q6.9,6.2 13.7,0"/>
<path d="M33.7,145.8 q7.5,-6.8 15,0 q7.5,6.8 15,0"/>
<path d="M647.6,154.5 q6.7,-6 13.4,0 q6.7,6 13.4,0"/>
<path d="M187.4,548 q9.1,-8.2 18.2,0 q9.1,8.2 18.2,0"/>
<path d="M918.4,307.7 q6.9,-6.3 13.9,0 q6.9,6.3 13.9,0"/>
<path d="M632.8,85.5 q8.6,-7.7 17.2,0 q8.6,7.7 17.2,0"/>
<path d="M289.1,572.7 q7.4,-6.7 14.9,0 q7.4,6.7 14.9,0"/>
<path d="M907.6,388.5 q6.2,-5.6 12.4,0 q6.2,5.6 12.4,0"/>
<path d="M34.1,120.7 q7.8,-7 15.6,0 q7.8,7 15.6,0"/>
<path d="M24.2,613.6 q9.1,-8.2 18.1,0 q9.1,8.2 18.1,0"/>
<path d="M220.1,611.9 q4.9,-4.4 9.8,0 q4.9,4.4 9.8,0"/>
<path d="M59.2,534.3 q8,-7.2 16.1,0 q8,7.2 16.1,0"/>
<path d="M861.5,402.1 q6.2,-5.6 12.4,0 q6.2,5.6 12.4,0"/>
<path d="M754.3,446.8 q8.6,-7.8 17.3,0 q8.6,7.8 17.3,0"/>
<path d="M939,437.6 q8.2,-7.4 16.4,0 q8.2,7.4 16.4,0"/>
<path d="M90.6,611.7 q5.2,-4.6 10.3,0 q5.2,4.6 10.3,0"/>
<path d="M516.7,563.6 q7.1,-6.4 14.3,0 q7.1,6.4 14.3,0"/>
<path d="M782.6,293.8 q7.2,-6.5 14.5,0 q7.2,6.5 14.5,0"/>
<path d="M125,173.6 q6.3,-5.7 12.6,0 q6.3,5.7 12.6,0"/>
<path d="M505.8,40.2 q8.2,-7.4 16.4,0 q8.2,7.4 16.4,0"/>
<path d="M802.4,168.3 q8.4,-7.6 16.8,0 q8.4,7.6 16.8,0"/>
<path d="M47.9,592.7 q6.8,-6.1 13.6,0 q6.8,6.1 13.6,0"/>
<path d="M537.4,601.1 q5.1,-4.6 10.2,0 q5.1,4.6 10.2,0"/>
<path d="M428.4,561 q8,-7.2 16,0 q8,7.2 16,0"/>
<path d="M877.4,681.4 q5.8,-5.2 11.5,0 q5.8,5.2 11.5,0"/>
<path d="M592.8,645.1 q7.1,-6.4 14.2,0 q7.1,6.4 14.2,0"/>
<path d="M750.3,682.7 q6.2,-5.6 12.5,0 q6.2,5.6 12.5,0"/>
<path d="M2,56.1 q6.8,-6.1 13.6,0 q6.8,6.1 13.6,0"/>
<path d="M308.3,127.9 q8.9,-8 17.8,0 q8.9,8 17.8,0"/>
<path d="M695.6,490.7 q8.8,-8 17.7,0 q8.8,8 17.7,0"/>
<path d="M576.9,620.2 q6.2,-5.6 12.4,0 q6.2,5.6 12.4,0"/>
<path d="M853.5,480.8 q8.1,-7.3 16.2,0 q8.1,7.3 16.2,0"/>
<path d="M114,336.8 q6.6,-5.9 13.2,0 q6.6,5.9 13.2,0"/>
<path d="M879.6,70.9 q5.8,-5.3 11.7,0 q5.8,5.3 11.7,0"/>
<path d="M0,290.5 q6.4,-5.7 12.7,0 q6.4,5.7 12.7,0"/>
<path d="M966.2,602.2 q5.7,-5.1 11.4,0 q5.7,5.1 11.4,0"/>
<path d="M74.1,24.8 q7.4,-6.7 14.9,0 q7.4,6.7 14.9,0"/>
<path d="M121.6,292.5 q6.2,-5.6 12.4,0 q6.2,5.6 12.4,0"/>
<path d="M579,75.3 q5,-4.5 9.9,0 q5,4.5 9.9,0"/>
<path d="M344.5,678.5 q8.2,-7.4 16.4,0 q8.2,7.4 16.4,0"/>
<path d="M702.3,242 q7.2,-6.4 14.3,0 q7.2,6.4 14.3,0"/>
<path d="M354.8,630.1 q5.9,-5.4 11.9,0 q5.9,5.4 11.9,0"/>
<path d="M9.6,484 q7,-6.3 14.1,0 q7,6.3 14.1,0"/>
<path d="M162.1,680.6 q8.7,-7.9 17.4,0 q8.7,7.9 17.4,0"/>
<path d="M817.8,115.9 q8.4,-7.6 16.9,0 q8.4,7.6 16.9,0"/>
<path d="M650.7,216.3 q8.6,-7.7 17.2,0 q8.6,7.7 17.2,0"/>
<path d="M273.1,618.5 q6.4,-5.7 12.7,0 q6.4,5.7 12.7,0"/>
<path d="M783.9,454.4 q8.9,-8 17.9,0 q8.9,8 17.9,0"/>
<path d="M-4.5,561.6 q8.6,-7.7 17.2,0 q8.6,7.7 17.2,0"/>
<path d="M60.2,401.8 q6.3,-5.6 12.5,0 q6.3,5.6 12.5,0"/>
<path d="M842.2,665.1 q6.4,-5.8 12.9,0 q6.4,5.8 12.9,0"/>
<path d="M179.6,602.4 q6.8,-6.1 13.5,0 q6.8,6.1 13.5,0"/>
<path d="M82.2,49.8 q6.3,-5.7 12.6,0 q6.3,5.7 12.6,0"/>
<path d="M686.8,579.2 q8.3,-7.5 16.7,0 q8.3,7.5 16.7,0"/>
<path d="M745.7,39.9 q8.6,-7.8 17.2,0 q8.6,7.8 17.2,0"/>
<path d="M117.1,589.3 q5.1,-4.6 10.2,0 q5.1,4.6 10.2,0"/>
<path d="M907.2,508.7 q7.4,-6.6 14.8,0 q7.4,6.6 14.8,0"/>
<path d="M832.4,460.9 q7,-6.3 14,0 q7,6.3 14,0"/>
<path d="M173,83.5 q8.4,-7.6 16.9,0 q8.4,7.6 16.9,0"/>
<path d="M816.9,393 q7.1,-6.3 14.1,0 q7.1,6.3 14.1,0"/>
<path d="M14,181.6 q5.3,-4.8 10.6,0 q5.3,4.8 10.6,0"/>
<path d="M301.1,82.2 q8,-7.2 16,0 q8,7.2 16,0"/>
<path d="M115,69.7 q8.7,-7.8 17.3,0 q8.7,7.8 17.3,0"/>
<path d="M827.1,93 q9.1,-8.2 18.1,0 q9.1,8.2 18.1,0"/>
<path d="M550.8,89.4 q5.9,-5.3 11.9,0 q5.9,5.3 11.9,0"/>
<path d="M265.7,125.3 q6.3,-5.6 12.5,0 q6.3,5.6 12.5,0"/>
<path d="M651,578 q8.8,-7.9 17.6,0 q8.8,7.9 17.6,0"/>
<path d="M862.6,246.7 q8.6,-7.7 17.1,0 q8.6,7.7 17.1,0"/>
<path d="M197.8,508.3 q8.6,-7.7 17.1,0 q8.6,7.7 17.1,0"/>
<path d="M904,112.7 q8.4,-7.6 16.8,0 q8.4,7.6 16.8,0"/>
<path d="M681.6,286.3 q7.7,-7 15.5,0 q7.7,7 15.5,0"/>
<path d="M101.9,534.3 q7.6,-6.9 15.2,0 q7.6,6.9 15.2,0"/>
<path d="M939.6,47.6 q6.3,-5.7 12.6,0 q6.3,5.7 12.6,0"/>
<path d="M121.5,103.4 q6.8,-6.1 13.5,0 q6.8,6.1 13.5,0"/>
<path d="M951.6,351.8 q7.2,-6.5 14.4,0 q7.2,6.5 14.4,0"/>
<path d="M-1.6,203.8 q8.9,-8 17.8,0 q8.9,8 17.8,0"/>
<path d="M108.7,638.6 q8.3,-7.5 16.6,0 q8.3,7.5 16.6,0"/>
<path d="M973,376.8 q8,-7.2 16,0 q8,7.2 16,0"/>
<path d="M139.2,55.9 q8,-7.2 16,0 q8,7.2 16,0"/>
<path d="M526.7,143.7 q5.8,-5.2 11.6,0 q5.8,5.2 11.6,0"/>
<path d="M38,289.5 q8.3,-7.5 16.6,0 q8.3,7.5 16.6,0"/>
<path d="M739.6,370.4 q8.4,-7.6 16.8,0 q8.4,7.6 16.8,0"/>
<path d="M345.3,38.5 q5.5,-5 11.1,0 q5.5,5 11.1,0"/>
<path d="M293.7,613 q8.5,-7.6 17,0 q8.5,7.6 17,0"/>
</g>
<path d="M880,470 C879.2,472.9 877.9,481.8 875.5,487.3 C873,492.8 869.5,498.1 865.3,502.9 C861.1,507.6 855.9,512 850.3,515.6 C844.6,519.3 838.2,522.5 831.6,524.9 C825,527.3 817.8,529.1 810.7,530.1 C803.7,531.1 796.2,531.4 789.2,531 C782.1,530.6 775,529.4 768.4,527.7 C761.9,525.9 755.5,523.4 749.9,520.5 C744.3,517.6 739.1,514 734.8,510.2 C730.5,506.3 726.8,501.9 724,497.5 C721.2,493 719.2,488.1 718.1,483.4 C717.1,478.6 716.8,473.6 717.4,468.9 C718,464.2 719.5,459.4 721.7,455.1 C723.9,450.7 727,446.5 730.5,442.8 C734,439.1 738.4,435.7 743,432.9 C747.6,430.1 752.9,427.7 758.2,426 C763.5,424.2 769.3,423 774.9,422.3 C780.5,421.7 786.4,421.6 791.9,422.1 C797.5,422.6 803,423.7 808.1,425.2 C813.1,426.7 818,428.8 822.2,431.2 C826.5,433.6 830.4,436.5 833.6,439.6 C836.7,442.7 839.4,446.1 841.3,449.6 C843.3,453.1 844.6,456.9 845.2,460.6 C845.8,464.3 845.8,468.1 845.1,471.7 C844.5,475.3 843.1,478.8 841.2,482.1 C839.4,485.3 836.9,488.4 834.1,491.1 C831.2,493.7 827.8,496.2 824.3,498.1 C820.7,500.1 816.7,501.7 812.6,502.9 C808.6,504.1 804.3,504.8 800.1,505.1 C796,505.4 791.7,505.3 787.6,504.8 C783.6,504.3 779.7,503.3 776.1,502.1 C772.5,500.9 769.1,499.2 766.2,497.4 C763.3,495.5 760.7,493.3 758.6,491 C756.5,488.8 754.9,486.2 753.7,483.7 C752.5,481.2 751.8,478.5 751.6,475.9 C751.4,473.3 751.7,470.7 752.3,468.3 C753,465.8 754.2,463.5 755.6,461.3 C757,459.2 758.9,457.2 761,455.5 C763.1,453.8 765.5,452.3 768,451.2 C770.5,450 773.2,449.1 775.9,448.5 C778.6,447.9 781.5,447.6 784.2,447.6 C786.9,447.5 789.6,447.8 792.1,448.3 C794.5,448.8 796.9,449.5 799.1,450.5 C801.2,451.4 803.1,452.6 804.7,453.8 C806.3,455.1 807.7,456.5 808.7,457.9 C809.8,459.4 810.5,461 811,462.5 C811.4,464 811.5,465.6 811.4,467 C811.3,468.5 810.9,469.9 810.3,471.2 C809.6,472.5 808.8,473.7 807.8,474.8 C806.8,475.8 805.5,476.7 804.3,477.5 C803,478.2 801.6,478.8 800.3,479.2 C798.9,479.6 797.5,479.8 796.1,479.9 C794.8,480 793.4,479.9 792.2,479.7 C791,479.5 789.9,479.1 788.9,478.7 C788,478.3 787.1,477.7 786.5,477.1 C785.8,476.6 785.3,475.9 785,475.3 C784.6,474.7 784.4,474 784.4,473.5 C784.4,472.9 784.5,472.3 784.7,471.8 C784.9,471.3 785.3,470.9 785.7,470.5 C786.1,470.2 786.6,469.9 787.1,469.8 C787.6,469.6 788.2,469.6 788.6,469.6 C789.1,469.6 789.8,469.9 790,470" fill="none" stroke="#e6f4f8" stroke-width="2.2" stroke-linecap="round" opacity="0.75"/>
<path d="M874,470 C873.3,467.3 872.1,459 869.8,453.9 C867.5,448.7 864.2,443.7 860.3,439.3 C856.3,434.9 851.5,430.8 846.2,427.4 C841,424 835,421 828.8,418.8 C822.7,416.5 816,414.9 809.4,413.9 C802.8,413 795.8,412.7 789.2,413.1 C782.6,413.5 776,414.6 769.9,416.2 C763.8,417.8 757.8,420.1 752.6,422.9 C747.3,425.6 742.5,428.9 738.5,432.5 C734.4,436.1 731,440.2 728.4,444.4 C725.8,448.5 724,453.1 722.9,457.5 C721.9,462 721.7,466.6 722.3,471 C722.8,475.4 724.2,479.9 726.3,483.9 C728.3,488 731.2,491.9 734.5,495.4 C737.8,498.8 741.8,502 746.1,504.6 C750.4,507.2 755.3,509.5 760.3,511.1 C765.3,512.7 770.7,513.9 775.9,514.5 C781.2,515.1 786.7,515.1 791.8,514.7 C797,514.2 802.2,513.2 806.9,511.8 C811.6,510.4 816.1,508.5 820.1,506.2 C824.1,504 827.7,501.3 830.6,498.4 C833.6,495.5 836.1,492.3 837.9,489 C839.7,485.7 840.9,482.2 841.5,478.8 C842.1,475.3 842.1,471.8 841.4,468.4 C840.8,465.1 839.5,461.8 837.8,458.7 C836.1,455.7 833.8,452.8 831.1,450.3 C828.5,447.8 825.3,445.6 822,443.7 C818.6,441.9 814.9,440.4 811.1,439.3 C807.4,438.2 803.3,437.5 799.4,437.2 C795.6,436.9 791.5,437.1 787.8,437.5 C784.1,438 780.4,438.9 777,440 C773.7,441.2 770.5,442.7 767.8,444.5 C765.1,446.2 762.7,448.2 760.7,450.4 C758.8,452.5 757.2,454.9 756.1,457.2 C755,459.6 754.4,462.1 754.2,464.5 C754,466.9 754.2,469.3 754.8,471.6 C755.5,473.9 756.5,476.1 757.9,478.1 C759.2,480.1 761,481.9 762.9,483.5 C764.9,485.1 767.1,486.5 769.5,487.6 C771.8,488.7 774.4,489.5 776.9,490.1 C779.4,490.6 782,490.9 784.6,490.9 C787.1,491 789.6,490.7 791.9,490.3 C794.2,489.8 796.5,489.1 798.4,488.2 C800.4,487.4 802.2,486.3 803.7,485.1 C805.2,484 806.5,482.6 807.5,481.3 C808.4,479.9 809.1,478.4 809.6,477 C810,475.6 810.1,474.1 810,472.8 C809.9,471.4 809.5,470.1 808.9,468.8 C808.3,467.6 807.5,466.5 806.6,465.5 C805.7,464.6 804.5,463.7 803.3,463 C802.2,462.4 800.9,461.8 799.6,461.4 C798.3,461.1 797,460.9 795.7,460.8 C794.5,460.7 793.2,460.8 792.1,461 C791,461.2 789.9,461.5 789,461.9 C788.1,462.3 787.3,462.8 786.7,463.3 C786.1,463.9 785.6,464.5 785.3,465 C785,465.6 784.8,466.2 784.8,466.8 C784.7,467.3 784.9,467.9 785.1,468.3 C785.3,468.8 785.6,469.2 786,469.5 C786.4,469.8 786.8,470.1 787.3,470.2 C787.8,470.3 788.3,470.4 788.7,470.4 C789.2,470.3 789.8,470.1 790,470" fill="none" stroke="#e6f4f8" stroke-width="1.7000000000000002" stroke-linecap="round" opacity="0.55"/>
<path d="M868,470 C867.3,472.5 866.2,480.2 864.1,485 C862,489.7 858.9,494.4 855.2,498.5 C851.6,502.6 847.1,506.4 842.2,509.6 C837.4,512.7 831.8,515.5 826.1,517.6 C820.3,519.7 814.1,521.2 808,522.1 C801.8,522.9 795.4,523.2 789.3,522.8 C783.2,522.5 777,521.5 771.3,520 C765.6,518.5 760.1,516.3 755.2,513.8 C750.4,511.3 745.9,508.1 742.1,504.8 C738.4,501.5 735.2,497.7 732.8,493.8 C730.4,489.9 728.7,485.7 727.7,481.6 C726.8,477.5 726.6,473.1 727.1,469 C727.6,465 728.9,460.8 730.8,457.1 C732.7,453.3 735.4,449.6 738.4,446.4 C741.5,443.2 745.3,440.3 749.3,437.9 C753.3,435.4 757.8,433.4 762.4,431.8 C767,430.3 772,429.2 776.9,428.7 C781.8,428.1 786.9,428.1 791.7,428.5 C796.5,428.9 801.3,429.9 805.7,431.2 C810,432.5 814.3,434.3 817.9,436.4 C821.6,438.4 825,441 827.7,443.6 C830.5,446.3 832.8,449.3 834.5,452.4 C836.2,455.4 837.3,458.7 837.9,461.9 C838.4,465 838.3,468.4 837.8,471.5 C837.2,474.6 836,477.7 834.4,480.5 C832.8,483.3 830.6,485.9 828.2,488.3 C825.7,490.6 822.8,492.7 819.7,494.4 C816.6,496.1 813.1,497.5 809.6,498.5 C806.1,499.5 802.4,500.2 798.8,500.4 C795.2,500.7 791.4,500.6 788,500.2 C784.5,499.7 781,498.9 777.9,497.8 C774.9,496.7 771.9,495.3 769.4,493.7 C766.9,492.1 764.6,490.2 762.8,488.2 C761,486.3 759.5,484.1 758.5,481.9 C757.5,479.7 756.9,477.4 756.7,475.1 C756.5,472.9 756.8,470.6 757.4,468.5 C757.9,466.4 758.9,464.3 760.2,462.5 C761.4,460.6 763.1,458.9 764.9,457.4 C766.7,456 768.8,454.7 770.9,453.7 C773.1,452.7 775.5,451.9 777.8,451.4 C780.1,450.8 782.6,450.6 784.9,450.6 C787.3,450.5 789.6,450.8 791.8,451.2 C793.9,451.6 796,452.3 797.8,453.1 C799.7,453.9 801.4,454.9 802.7,456 C804.1,457 805.3,458.3 806.2,459.6 C807.1,460.8 807.8,462.2 808.2,463.5 C808.5,464.8 808.7,466.2 808.6,467.4 C808.5,468.7 808.1,470 807.6,471.1 C807,472.2 806.3,473.2 805.4,474.1 C804.5,475 803.5,475.8 802.4,476.5 C801.3,477.1 800.1,477.6 798.9,477.9 C797.7,478.3 796.5,478.5 795.3,478.6 C794.1,478.6 793,478.5 791.9,478.4 C790.9,478.2 789.9,477.9 789.1,477.5 C788.3,477.2 787.5,476.7 786.9,476.2 C786.4,475.7 785.9,475.1 785.6,474.6 C785.3,474.1 785.2,473.5 785.1,473 C785.1,472.5 785.2,472 785.4,471.6 C785.6,471.1 785.9,470.7 786.3,470.5 C786.6,470.2 787.1,469.9 787.5,469.8 C787.9,469.7 788.4,469.6 788.8,469.7 C789.2,469.7 789.8,469.9 790,470" fill="none" stroke="#e6f4f8" stroke-width="1.2000000000000002" stroke-linecap="round" opacity="0.35"/>
<path d="M920,220 C919.5,221.9 918.6,227.9 917,231.5 C915.4,235.2 913,238.8 910.2,241.9 C907.4,245.1 903.9,248 900.2,250.4 C896.4,252.9 892.1,255 887.7,256.6 C883.3,258.2 878.5,259.4 873.8,260.1 C869.1,260.7 864.2,260.9 859.5,260.6 C854.7,260.4 850,259.6 845.6,258.4 C841.3,257.3 837,255.6 833.3,253.7 C829.5,251.7 826.1,249.3 823.2,246.8 C820.3,244.2 817.8,241.3 816,238.3 C814.2,235.3 812.8,232.1 812.1,228.9 C811.4,225.7 811.2,222.4 811.6,219.3 C812,216.1 813,212.9 814.5,210 C815.9,207.1 818,204.3 820.3,201.9 C822.7,199.4 825.6,197.1 828.7,195.3 C831.7,193.4 835.2,191.8 838.8,190.6 C842.3,189.5 846.2,188.6 849.9,188.2 C853.7,187.8 857.6,187.8 861.3,188.1 C865,188.4 868.7,189.1 872.1,190.1 C875.4,191.1 878.7,192.5 881.5,194.1 C884.3,195.7 886.9,197.7 889,199.7 C891.2,201.8 892.9,204.1 894.2,206.4 C895.5,208.8 896.4,211.3 896.8,213.7 C897.2,216.2 897.2,218.7 896.7,221.1 C896.3,223.5 895.4,225.9 894.2,228 C892.9,230.2 891.3,232.3 889.4,234 C887.5,235.8 885.2,237.4 882.8,238.8 C880.5,240.1 877.8,241.2 875.1,241.9 C872.4,242.7 869.5,243.2 866.7,243.4 C864,243.6 861.1,243.5 858.4,243.2 C855.8,242.9 853.1,242.2 850.7,241.4 C848.3,240.6 846.1,239.5 844.1,238.2 C842.2,237 840.5,235.5 839.1,234 C837.7,232.5 836.6,230.8 835.8,229.1 C835,227.5 834.6,225.7 834.4,223.9 C834.3,222.2 834.4,220.5 834.9,218.9 C835.3,217.2 836.1,215.6 837.1,214.2 C838,212.8 839.3,211.5 840.7,210.3 C842,209.2 843.7,208.2 845.3,207.4 C847,206.7 848.8,206.1 850.6,205.7 C852.4,205.3 854.3,205.1 856.1,205 C857.9,205 859.7,205.2 861.4,205.5 C863,205.8 864.6,206.4 866,207 C867.4,207.6 868.7,208.4 869.8,209.2 C870.9,210 871.8,211 872.5,212 C873.2,212.9 873.7,214 874,215 C874.3,216 874.4,217.1 874.3,218 C874.2,219 873.9,220 873.5,220.8 C873.1,221.7 872.5,222.5 871.8,223.2 C871.2,223.9 870.4,224.5 869.5,225 C868.7,225.5 867.8,225.8 866.9,226.1 C865.9,226.4 865,226.5 864.1,226.6 C863.2,226.6 862.3,226.6 861.5,226.4 C860.7,226.3 859.9,226.1 859.3,225.8 C858.7,225.5 858.1,225.1 857.6,224.8 C857.2,224.4 856.9,224 856.6,223.5 C856.4,223.1 856.3,222.7 856.3,222.3 C856.2,221.9 856.3,221.5 856.5,221.2 C856.6,220.9 856.9,220.6 857.1,220.4 C857.4,220.1 857.7,220 858.1,219.9 C858.4,219.8 858.8,219.7 859.1,219.7 C859.4,219.8 859.8,220 860,220" fill="none" stroke="#e6f4f8" stroke-width="2.2" stroke-linecap="round" opacity="0.75"/>
<path d="M914,220 C913.5,218.3 912.8,212.9 911.3,209.6 C909.8,206.3 907.7,203.1 905.2,200.3 C902.6,197.5 899.5,194.8 896.2,192.6 C892.8,190.4 888.9,188.5 885,187.1 C881,185.6 876.7,184.6 872.4,184 C868.2,183.3 863.7,183.2 859.5,183.4 C855.3,183.7 851,184.4 847.1,185.4 C843.1,186.5 839.3,187.9 835.9,189.7 C832.6,191.4 829.5,193.6 826.9,195.9 C824.3,198.2 822.1,200.8 820.4,203.5 C818.7,206.2 817.5,209.1 816.9,212 C816.2,214.8 816.1,217.8 816.5,220.7 C816.8,223.5 817.7,226.4 819,229 C820.3,231.6 822.2,234.1 824.3,236.3 C826.4,238.5 829,240.6 831.8,242.3 C834.6,243.9 837.7,245.4 840.9,246.4 C844.1,247.5 847.6,248.2 850.9,248.6 C854.3,249 857.8,249 861.2,248.7 C864.5,248.4 867.8,247.8 870.8,246.9 C873.9,246 876.8,244.7 879.3,243.3 C881.9,241.8 884.2,240.1 886.1,238.3 C888,236.4 889.6,234.3 890.8,232.2 C892,230.1 892.7,227.8 893.1,225.6 C893.5,223.4 893.5,221.1 893.1,219 C892.7,216.8 891.9,214.7 890.7,212.8 C889.6,210.8 888.1,209 886.4,207.4 C884.7,205.8 882.7,204.3 880.6,203.1 C878.4,201.9 876,201 873.6,200.3 C871.2,199.6 868.6,199.1 866.1,198.9 C863.6,198.7 861,198.8 858.6,199.1 C856.2,199.4 853.8,200 851.7,200.7 C849.5,201.5 847.5,202.5 845.7,203.6 C844,204.7 842.4,206 841.2,207.4 C839.9,208.7 838.9,210.3 838.2,211.8 C837.5,213.3 837.1,214.9 837,216.4 C836.8,218 837,219.6 837.4,221 C837.8,222.5 838.5,223.9 839.4,225.2 C840.2,226.5 841.4,227.7 842.6,228.7 C843.8,229.7 845.3,230.6 846.8,231.3 C848.3,232 849.9,232.5 851.6,232.9 C853.2,233.3 854.9,233.4 856.5,233.5 C858.1,233.5 859.7,233.3 861.2,233 C862.7,232.7 864.2,232.3 865.4,231.7 C866.7,231.2 867.9,230.5 868.8,229.7 C869.8,229 870.6,228.1 871.2,227.2 C871.9,226.4 872.3,225.4 872.6,224.5 C872.8,223.6 872.9,222.7 872.8,221.8 C872.8,220.9 872.5,220 872.2,219.3 C871.8,218.5 871.3,217.8 870.7,217.1 C870.1,216.5 869.3,216 868.6,215.5 C867.8,215.1 867,214.7 866.2,214.5 C865.3,214.3 864.5,214.1 863.7,214.1 C862.9,214 862.1,214.1 861.3,214.2 C860.6,214.3 859.9,214.5 859.4,214.8 C858.8,215 858.3,215.4 857.9,215.7 C857.5,216 857.2,216.4 857,216.8 C856.8,217.2 856.7,217.6 856.6,217.9 C856.6,218.3 856.7,218.6 856.8,218.9 C857,219.2 857.2,219.5 857.4,219.7 C857.7,219.9 858,220 858.3,220.1 C858.6,220.2 858.9,220.3 859.2,220.2 C859.5,220.2 859.9,220 860,220" fill="none" stroke="#e6f4f8" stroke-width="1.7000000000000002" stroke-linecap="round" opacity="0.55"/>
<path d="M908,220 C907.6,221.5 906.9,226.3 905.6,229.2 C904.3,232.1 902.4,235 900.1,237.5 C897.9,240 895.1,242.4 892.1,244.3 C889.1,246.3 885.7,248 882.2,249.3 C878.7,250.6 874.8,251.5 871.1,252 C867.3,252.6 863.3,252.7 859.6,252.5 C855.8,252.3 852,251.7 848.5,250.7 C845,249.8 841.6,248.5 838.6,246.9 C835.6,245.4 832.8,243.5 830.5,241.4 C828.2,239.4 826.3,237 824.8,234.7 C823.3,232.3 822.3,229.7 821.7,227.1 C821.1,224.6 821,221.9 821.3,219.4 C821.6,216.9 822.4,214.4 823.6,212 C824.7,209.7 826.4,207.5 828.3,205.5 C830.2,203.5 832.5,201.7 834.9,200.2 C837.4,198.7 840.2,197.5 843,196.5 C845.9,195.6 849,194.9 852,194.6 C855,194.2 858.1,194.2 861,194.5 C864,194.7 866.9,195.3 869.6,196.1 C872.3,196.9 874.9,198 877.2,199.3 C879.5,200.6 881.5,202.1 883.2,203.8 C884.9,205.4 886.3,207.3 887.4,209.1 C888.4,211 889.1,213 889.4,215 C889.8,217 889.7,219 889.4,220.9 C889,222.8 888.3,224.7 887.3,226.4 C886.3,228.2 885,229.8 883.5,231.2 C882,232.7 880.2,234 878.3,235 C876.4,236.1 874.2,236.9 872.1,237.5 C869.9,238.2 867.6,238.6 865.4,238.7 C863.2,238.9 860.9,238.8 858.7,238.6 C856.6,238.3 854.5,237.8 852.6,237.1 C850.7,236.5 848.9,235.6 847.3,234.6 C845.8,233.6 844.4,232.4 843.3,231.2 C842.2,230 841.3,228.7 840.6,227.3 C840,226 839.6,224.5 839.5,223.2 C839.4,221.8 839.6,220.4 839.9,219.1 C840.3,217.8 840.9,216.5 841.7,215.4 C842.4,214.2 843.4,213.2 844.5,212.3 C845.6,211.4 846.9,210.6 848.3,210 C849.6,209.3 851.1,208.9 852.5,208.5 C853.9,208.2 855.5,208.1 856.9,208 C858.3,208 859.8,208.2 861.1,208.4 C862.4,208.7 863.7,209.1 864.8,209.6 C866,210.1 867,210.7 867.8,211.4 C868.7,212 869.4,212.8 870,213.6 C870.5,214.3 870.9,215.2 871.2,216 C871.4,216.8 871.5,217.6 871.4,218.4 C871.4,219.2 871.1,220 870.8,220.7 C870.5,221.3 870,222 869.5,222.5 C868.9,223.1 868.3,223.6 867.6,224 C867,224.4 866.2,224.7 865.5,224.9 C864.8,225.1 864,225.2 863.3,225.3 C862.6,225.3 861.8,225.3 861.2,225.1 C860.6,225 859.9,224.8 859.4,224.6 C858.9,224.4 858.5,224.1 858.1,223.8 C857.8,223.5 857.5,223.2 857.3,222.8 C857.1,222.5 857,222.2 857,221.8 C857,221.5 857.1,221.2 857.2,221 C857.3,220.7 857.5,220.5 857.7,220.3 C857.9,220.1 858.2,220 858.5,219.9 C858.7,219.8 859,219.8 859.3,219.8 C859.5,219.8 859.9,220 860,220" fill="none" stroke="#e6f4f8" stroke-width="1.2000000000000002" stroke-linecap="round" opacity="0.35"/>
<path d="M220,600 C219.4,602.2 218.4,609.2 216.5,613.5 C214.6,617.7 211.8,621.9 208.6,625.6 C205.3,629.2 201.2,632.6 196.9,635.5 C192.5,638.4 187.5,640.8 182.4,642.7 C177.2,644.6 171.6,645.9 166.1,646.7 C160.6,647.5 154.8,647.7 149.4,647.4 C143.9,647.1 138.3,646.2 133.2,644.8 C128.1,643.5 123.2,641.6 118.8,639.3 C114.4,637 110.4,634.2 107,631.2 C103.7,628.3 100.8,624.8 98.7,621.4 C96.5,617.9 95,614.1 94.1,610.4 C93.3,606.7 93.1,602.8 93.6,599.1 C94,595.5 95.2,591.8 96.9,588.4 C98.6,585 101,581.7 103.7,578.9 C106.5,576 109.9,573.3 113.4,571.2 C117,569 121.1,567.1 125.3,565.8 C129.4,564.4 133.9,563.4 138.3,562.9 C142.6,562.4 147.2,562.4 151.5,562.8 C155.8,563.1 160.1,564 164.1,565.1 C168,566.3 171.8,568 175.1,569.8 C178.4,571.7 181.4,573.9 183.9,576.3 C186.3,578.7 188.4,581.4 189.9,584.2 C191.4,586.9 192.5,589.8 192.9,592.7 C193.4,595.6 193.4,598.5 192.9,601.3 C192.4,604.1 191.3,606.9 189.9,609.4 C188.4,611.9 186.5,614.3 184.3,616.4 C182.1,618.5 179.4,620.4 176.6,621.9 C173.9,623.4 170.7,624.7 167.6,625.6 C164.5,626.5 161.1,627.1 157.9,627.3 C154.6,627.6 151.3,627.5 148.2,627.1 C145.1,626.7 142,625.9 139.2,625 C136.4,624 133.8,622.7 131.5,621.3 C129.2,619.8 127.2,618.1 125.6,616.4 C124,614.6 122.7,612.6 121.8,610.7 C120.9,608.7 120.3,606.6 120.1,604.6 C120,602.6 120.2,600.6 120.7,598.7 C121.2,596.8 122.1,594.9 123.2,593.3 C124.4,591.6 125.8,590 127.5,588.7 C129.1,587.4 131,586.3 132.9,585.4 C134.8,584.4 137,583.7 139.1,583.3 C141.2,582.8 143.4,582.6 145.5,582.5 C147.6,582.5 149.7,582.7 151.6,583.1 C153.5,583.5 155.4,584.1 157,584.8 C158.7,585.5 160.2,586.4 161.4,587.4 C162.7,588.4 163.8,589.5 164.6,590.6 C165.4,591.7 165.9,593 166.3,594.2 C166.6,595.3 166.7,596.6 166.7,597.7 C166.6,598.8 166.2,600 165.8,601 C165.3,602 164.6,602.9 163.8,603.7 C163,604.5 162.1,605.2 161.1,605.8 C160.1,606.4 159.1,606.8 158,607.1 C156.9,607.4 155.8,607.6 154.8,607.7 C153.7,607.7 152.7,607.7 151.7,607.5 C150.8,607.4 149.9,607.1 149.2,606.7 C148.4,606.4 147.8,606 147.3,605.6 C146.7,605.1 146.3,604.6 146.1,604.1 C145.8,603.7 145.7,603.1 145.6,602.7 C145.6,602.2 145.7,601.8 145.9,601.4 C146.1,601 146.3,600.7 146.7,600.4 C147,600.1 147.4,599.9 147.8,599.8 C148.1,599.7 148.6,599.7 148.9,599.7 C149.3,599.7 149.8,599.9 150,600" fill="none" stroke="#e6f4f8" stroke-width="2.2" stroke-linecap="round" opacity="0.75"/>
<path d="M214,600 C213.5,598 212.5,591.6 210.8,587.7 C209.1,583.8 206.5,580 203.5,576.6 C200.5,573.3 196.8,570.2 192.8,567.5 C188.9,564.9 184.3,562.7 179.6,561 C174.9,559.3 169.8,558 164.7,557.3 C159.7,556.6 154.4,556.4 149.4,556.6 C144.4,556.9 139.3,557.8 134.7,559 C130,560.2 125.5,562 121.5,564.1 C117.5,566.2 113.8,568.7 110.7,571.4 C107.7,574.2 105,577.3 103.1,580.5 C101.1,583.6 99.7,587.1 98.9,590.5 C98.1,593.9 98,597.4 98.4,600.8 C98.8,604.1 99.9,607.5 101.4,610.6 C103,613.7 105.2,616.7 107.7,619.3 C110.2,622 113.3,624.4 116.6,626.4 C119.9,628.4 123.6,630.1 127.4,631.3 C131.2,632.6 135.3,633.4 139.3,633.9 C143.3,634.4 147.4,634.4 151.4,634 C155.3,633.7 159.3,632.9 162.9,631.9 C166.5,630.8 169.9,629.3 172.9,627.6 C176,625.9 178.7,623.8 181,621.6 C183.2,619.4 185.1,617 186.5,614.5 C187.9,612 188.8,609.3 189.3,606.7 C189.7,604.1 189.7,601.3 189.2,598.8 C188.7,596.3 187.8,593.7 186.4,591.4 C185.1,589.1 183.4,586.9 181.3,585 C179.3,583.1 176.9,581.4 174.4,580 C171.8,578.6 169,577.4 166.1,576.6 C163.2,575.8 160.2,575.3 157.2,575 C154.2,574.8 151.2,574.9 148.3,575.3 C145.5,575.6 142.7,576.3 140.1,577.2 C137.6,578.1 135.2,579.2 133.1,580.5 C131,581.9 129.2,583.4 127.7,585 C126.2,586.7 125,588.5 124.2,590.3 C123.3,592 122.9,594 122.7,595.8 C122.5,597.6 122.7,599.5 123.2,601.2 C123.7,603 124.5,604.7 125.5,606.2 C126.6,607.7 127.9,609.1 129.4,610.3 C130.9,611.5 132.6,612.6 134.4,613.4 C136.1,614.2 138.1,614.9 140,615.3 C141.9,615.7 143.9,615.9 145.9,616 C147.8,616 149.7,615.8 151.5,615.4 C153.2,615.1 154.9,614.5 156.4,613.9 C157.9,613.2 159.3,612.4 160.5,611.5 C161.6,610.6 162.6,609.6 163.3,608.6 C164.1,607.5 164.6,606.4 164.9,605.3 C165.2,604.3 165.3,603.1 165.2,602.1 C165.1,601.1 164.8,600 164.4,599.1 C164,598.2 163.3,597.3 162.6,596.6 C161.9,595.9 161.1,595.2 160.2,594.7 C159.3,594.2 158.3,593.8 157.3,593.5 C156.3,593.2 155.3,593 154.4,593 C153.4,592.9 152.4,593 151.6,593.1 C150.7,593.3 149.9,593.5 149.2,593.8 C148.6,594.1 148,594.5 147.5,594.9 C147,595.3 146.7,595.8 146.4,596.2 C146.2,596.7 146,597.1 146,597.5 C146,598 146.1,598.4 146.2,598.7 C146.4,599.1 146.7,599.4 146.9,599.6 C147.2,599.9 147.6,600 147.9,600.2 C148.3,600.3 148.7,600.3 149,600.3 C149.4,600.3 149.8,600 150,600" fill="none" stroke="#e6f4f8" stroke-width="1.7000000000000002" stroke-linecap="round" opacity="0.55"/>
<path d="M208,600 C207.5,601.9 206.7,607.6 205.1,611.1 C203.5,614.7 201.2,618.1 198.5,621.2 C195.8,624.2 192.4,627.1 188.8,629.4 C185.2,631.8 181.1,633.8 176.8,635.4 C172.6,636.9 167.9,638.1 163.4,638.7 C158.8,639.4 154,639.5 149.5,639.3 C144.9,639 140.3,638.3 136.1,637.2 C131.9,636 127.8,634.4 124.2,632.6 C120.5,630.7 117.2,628.4 114.4,625.9 C111.6,623.4 109.3,620.6 107.5,617.7 C105.7,614.8 104.4,611.7 103.7,608.6 C103,605.5 102.9,602.3 103.2,599.3 C103.6,596.2 104.6,593.2 106,590.4 C107.4,587.6 109.4,584.9 111.7,582.5 C113.9,580.1 116.7,577.9 119.7,576.1 C122.7,574.3 126.1,572.8 129.5,571.6 C132.9,570.5 136.7,569.7 140.3,569.3 C143.9,568.9 147.7,568.8 151.3,569.1 C154.8,569.5 158.4,570.1 161.7,571.1 C164.9,572.1 168,573.4 170.8,575 C173.5,576.5 176,578.4 178.1,580.4 C180.1,582.4 181.8,584.6 183.1,586.9 C184.3,589.1 185.2,591.6 185.6,593.9 C186,596.3 185.9,598.8 185.5,601.1 C185.1,603.4 184.2,605.7 183,607.8 C181.8,609.9 180.2,611.8 178.4,613.6 C176.6,615.3 174.4,616.9 172.1,618.1 C169.8,619.4 167.2,620.5 164.6,621.2 C162,621.9 159.2,622.4 156.5,622.6 C153.8,622.8 151.1,622.7 148.5,622.4 C145.9,622.1 143.3,621.5 141,620.7 C138.7,619.9 136.6,618.8 134.7,617.6 C132.8,616.4 131.1,615 129.8,613.6 C128.4,612.1 127.4,610.5 126.6,608.8 C125.8,607.2 125.4,605.5 125.3,603.8 C125.1,602.2 125.3,600.5 125.7,598.9 C126.2,597.3 126.9,595.8 127.8,594.4 C128.8,593 130,591.8 131.3,590.7 C132.6,589.6 134.2,588.6 135.8,587.9 C137.4,587.1 139.2,586.5 140.9,586.1 C142.7,585.8 144.5,585.6 146.2,585.5 C148,585.5 149.7,585.7 151.3,586 C152.9,586.3 154.5,586.8 155.8,587.4 C157.2,588 158.4,588.8 159.5,589.6 C160.5,590.4 161.4,591.3 162.1,592.2 C162.7,593.2 163.2,594.2 163.5,595.2 C163.8,596.1 163.9,597.2 163.8,598.1 C163.7,599 163.4,600 163.1,600.8 C162.7,601.6 162.1,602.4 161.4,603.1 C160.8,603.7 160,604.3 159.2,604.8 C158.4,605.3 157.5,605.6 156.6,605.9 C155.7,606.2 154.8,606.3 153.9,606.4 C153.1,606.4 152.2,606.3 151.4,606.2 C150.7,606.1 149.9,605.9 149.3,605.6 C148.7,605.3 148.2,605 147.7,604.6 C147.3,604.2 147,603.8 146.7,603.4 C146.5,603 146.4,602.6 146.4,602.2 C146.4,601.9 146.5,601.5 146.6,601.2 C146.7,600.8 147,600.6 147.2,600.3 C147.5,600.1 147.8,600 148.1,599.9 C148.5,599.8 148.8,599.7 149.1,599.7 C149.4,599.8 149.9,600 150,600" fill="none" stroke="#e6f4f8" stroke-width="1.2000000000000002" stroke-linecap="round" opacity="0.35"/>
<path d="M755,630 C754.5,631.8 753.7,637.2 752.2,640.6 C750.7,643.9 748.6,647.2 746,650.1 C743.4,653 740.3,655.7 736.8,657.9 C733.4,660.1 729.4,662.1 725.4,663.5 C721.4,665 717,666.1 712.7,666.7 C708.4,667.3 703.8,667.5 699.5,667.3 C695.2,667 690.8,666.3 686.8,665.2 C682.8,664.2 678.9,662.6 675.5,660.9 C672.1,659.1 668.9,656.9 666.3,654.6 C663.6,652.2 661.4,649.5 659.7,646.8 C658,644.1 656.8,641.1 656.1,638.2 C655.4,635.3 655.3,632.2 655.7,629.3 C656,626.4 656.9,623.5 658.3,620.9 C659.6,618.2 661.5,615.6 663.6,613.4 C665.8,611.1 668.5,609.1 671.3,607.3 C674.1,605.6 677.3,604.2 680.6,603.1 C683.8,602 687.3,601.3 690.8,600.9 C694.2,600.5 697.8,600.4 701.2,600.7 C704.6,601 708,601.7 711,602.6 C714.1,603.5 717.1,604.8 719.7,606.3 C722.3,607.8 724.7,609.5 726.6,611.4 C728.6,613.3 730.2,615.4 731.4,617.6 C732.6,619.7 733.4,622 733.7,624.3 C734.1,626.5 734.1,628.8 733.7,631 C733.3,633.2 732.4,635.4 731.3,637.4 C730.2,639.3 728.7,641.2 726.9,642.9 C725.2,644.5 723.1,646 720.9,647.2 C718.7,648.4 716.3,649.4 713.8,650.1 C711.4,650.8 708.7,651.3 706.2,651.5 C703.6,651.7 701,651.6 698.6,651.3 C696.1,651 693.7,650.4 691.5,649.6 C689.3,648.9 687.2,647.8 685.5,646.7 C683.7,645.6 682.1,644.3 680.8,642.9 C679.5,641.5 678.5,639.9 677.8,638.4 C677.1,636.8 676.7,635.2 676.5,633.6 C676.4,632 676.6,630.4 677,628.9 C677.4,627.5 678.1,626 679,624.7 C679.9,623.4 681,622.2 682.3,621.1 C683.5,620.1 685,619.2 686.6,618.5 C688.1,617.8 689.8,617.2 691.4,616.9 C693.1,616.5 694.8,616.3 696.4,616.3 C698.1,616.3 699.7,616.4 701.3,616.7 C702.8,617 704.2,617.5 705.5,618.1 C706.8,618.6 708,619.3 709,620.1 C710,620.9 710.8,621.7 711.4,622.6 C712.1,623.5 712.5,624.5 712.8,625.4 C713.1,626.3 713.2,627.3 713.1,628.2 C713,629.1 712.8,630 712.4,630.8 C712,631.5 711.5,632.3 710.9,632.9 C710.2,633.6 709.5,634.1 708.7,634.6 C708,635 707.1,635.4 706.3,635.6 C705.4,635.8 704.6,636 703.7,636 C702.9,636.1 702.1,636 701.4,635.9 C700.6,635.8 699.9,635.6 699.4,635.3 C698.8,635 698.2,634.7 697.8,634.4 C697.4,634 697.1,633.6 696.9,633.3 C696.7,632.9 696.6,632.5 696.6,632.1 C696.6,631.8 696.6,631.4 696.8,631.1 C696.9,630.8 697.1,630.5 697.4,630.3 C697.6,630.1 697.9,630 698.2,629.9 C698.5,629.8 698.9,629.7 699.2,629.8 C699.5,629.8 699.9,630 700,630" fill="none" stroke="#e6f4f8" stroke-width="2.2" stroke-linecap="round" opacity="0.75"/>
<path d="M749,630 C748.6,628.4 747.9,623.6 746.5,620.6 C745.2,617.6 743.3,614.7 741,612.1 C738.7,609.5 735.9,607.1 732.8,605.1 C729.7,603.1 726.2,601.4 722.7,600.1 C719.1,598.8 715.1,597.8 711.3,597.3 C707.4,596.7 703.4,596.6 699.6,596.8 C695.7,597 691.8,597.7 688.3,598.6 C684.7,599.6 681.2,600.9 678.2,602.5 C675.1,604.1 672.3,606 669.9,608.1 C667.6,610.2 665.6,612.6 664.1,615 C662.6,617.5 661.5,620.1 660.9,622.7 C660.3,625.3 660.2,628 660.5,630.6 C660.8,633.2 661.6,635.8 662.8,638.1 C664,640.5 665.7,642.8 667.6,644.8 C669.5,646.8 671.9,648.7 674.4,650.2 C676.9,651.7 679.8,653 682.7,654 C685.6,654.9 688.7,655.6 691.8,656 C694.8,656.3 698,656.3 701.1,656.1 C704.1,655.8 707.1,655.2 709.8,654.4 C712.6,653.6 715.2,652.4 717.6,651.1 C719.9,649.8 722,648.2 723.7,646.6 C725.4,644.9 726.9,643 727.9,641.1 C729,639.2 729.7,637.1 730.1,635.1 C730.4,633.1 730.4,631 730,629.1 C729.6,627.1 728.9,625.2 727.9,623.4 C726.9,621.7 725.5,620 724,618.5 C722.4,617.1 720.6,615.8 718.6,614.7 C716.7,613.6 714.5,612.7 712.3,612.1 C710.1,611.5 707.8,611.1 705.5,610.9 C703.2,610.7 700.9,610.8 698.7,611.1 C696.5,611.3 694.4,611.8 692.4,612.5 C690.5,613.2 688.6,614.1 687.1,615.1 C685.5,616.1 684.1,617.3 682.9,618.5 C681.8,619.8 680.9,621.2 680.2,622.5 C679.6,623.9 679.2,625.4 679.1,626.8 C679,628.2 679.1,629.6 679.5,630.9 C679.9,632.3 680.5,633.6 681.3,634.7 C682.1,635.9 683.1,637 684.2,637.9 C685.3,638.8 686.7,639.6 688,640.3 C689.4,640.9 690.9,641.4 692.3,641.7 C693.8,642 695.4,642.2 696.8,642.2 C698.3,642.2 699.8,642.1 701.1,641.8 C702.5,641.6 703.8,641.1 704.9,640.6 C706.1,640.1 707.1,639.5 708,638.8 C708.9,638.1 709.6,637.4 710.2,636.6 C710.8,635.8 711.2,634.9 711.4,634.1 C711.7,633.3 711.7,632.4 711.7,631.6 C711.6,630.8 711.4,630 711,629.3 C710.7,628.6 710.2,628 709.7,627.4 C709.1,626.8 708.5,626.3 707.8,625.9 C707.1,625.5 706.3,625.2 705.6,625 C704.9,624.8 704.1,624.7 703.3,624.6 C702.6,624.6 701.9,624.6 701.2,624.7 C700.6,624.9 699.9,625.1 699.4,625.3 C698.9,625.5 698.4,625.8 698.1,626.1 C697.7,626.4 697.4,626.8 697.3,627.1 C697.1,627.4 697,627.8 697,628.1 C696.9,628.4 697,628.8 697.1,629 C697.2,629.3 697.4,629.5 697.7,629.7 C697.9,629.9 698.2,630 698.4,630.1 C698.7,630.2 699,630.2 699.3,630.2 C699.5,630.2 699.9,630 700,630" fill="none" stroke="#e6f4f8" stroke-width="1.7000000000000002" stroke-linecap="round" opacity="0.55"/>
<path d="M743,630 C742.6,631.4 742,635.6 740.8,638.3 C739.7,640.9 738,643.4 736,645.7 C734,648 731.5,650.1 728.8,651.8 C726.1,653.6 723,655.1 719.9,656.2 C716.7,657.4 713.3,658.2 709.9,658.7 C706.5,659.2 703,659.3 699.6,659.1 C696.2,658.9 692.8,658.4 689.7,657.5 C686.6,656.7 683.5,655.5 680.8,654.1 C678.2,652.7 675.7,651 673.6,649.2 C671.6,647.4 669.8,645.3 668.5,643.1 C667.1,641 666.2,638.7 665.7,636.4 C665.1,634.1 665,631.7 665.3,629.5 C665.6,627.2 666.3,624.9 667.4,622.9 C668.4,620.8 669.9,618.8 671.6,617 C673.3,615.2 675.3,613.6 677.5,612.3 C679.7,610.9 682.3,609.8 684.8,609 C687.3,608.1 690.1,607.5 692.8,607.2 C695.5,606.9 698.3,606.9 700.9,607.1 C703.6,607.4 706.2,607.9 708.6,608.6 C711.1,609.3 713.4,610.3 715.4,611.5 C717.4,612.6 719.3,614 720.8,615.5 C722.3,616.9 723.6,618.6 724.5,620.3 C725.5,621.9 726.1,623.8 726.4,625.5 C726.7,627.3 726.6,629.1 726.3,630.8 C726,632.5 725.4,634.2 724.5,635.8 C723.6,637.3 722.4,638.8 721.1,640.1 C719.7,641.3 718.1,642.5 716.4,643.4 C714.7,644.4 712.7,645.2 710.8,645.7 C708.9,646.3 706.8,646.6 704.8,646.8 C702.8,646.9 700.8,646.9 698.9,646.6 C697,646.4 695.1,645.9 693.4,645.3 C691.6,644.7 690,644 688.6,643.1 C687.2,642.2 686,641.1 685,640.1 C684,639 683.2,637.8 682.7,636.5 C682.1,635.3 681.8,634.1 681.7,632.8 C681.5,631.6 681.7,630.3 682,629.2 C682.3,628 682.9,626.9 683.6,625.9 C684.3,624.8 685.2,623.9 686.1,623.1 C687.1,622.3 688.3,621.6 689.5,621 C690.7,620.4 692,620 693.3,619.7 C694.6,619.4 695.9,619.3 697.2,619.3 C698.5,619.3 699.8,619.4 701,619.6 C702.2,619.9 703.3,620.2 704.3,620.7 C705.3,621.1 706.3,621.7 707,622.3 C707.8,622.9 708.4,623.5 708.9,624.2 C709.4,624.9 709.8,625.7 710,626.4 C710.2,627.1 710.3,627.9 710.2,628.6 C710.2,629.3 710,630 709.7,630.6 C709.4,631.2 709,631.8 708.5,632.3 C708,632.8 707.4,633.2 706.8,633.6 C706.2,633.9 705.6,634.2 704.9,634.4 C704.3,634.6 703.6,634.7 702.9,634.7 C702.3,634.8 701.6,634.7 701.1,634.6 C700.5,634.5 700,634.3 699.5,634.1 C699,633.9 698.6,633.7 698.3,633.4 C698,633.1 697.8,632.8 697.6,632.5 C697.4,632.2 697.3,631.9 697.3,631.7 C697.3,631.4 697.4,631.1 697.5,630.9 C697.6,630.6 697.8,630.4 697.9,630.3 C698.1,630.1 698.4,630 698.6,629.9 C698.9,629.8 699.1,629.8 699.4,629.8 C699.6,629.8 699.9,630 700,630" fill="none" stroke="#e6f4f8" stroke-width="1.2000000000000002" stroke-linecap="round" opacity="0.35"/>
<path d="M140,140 C139.6,141.6 138.9,146.6 137.5,149.6 C136.1,152.7 134.2,155.6 131.8,158.3 C129.5,160.9 126.6,163.3 123.5,165.4 C120.4,167.4 116.8,169.2 113.1,170.5 C109.5,171.8 105.5,172.8 101.5,173.4 C97.6,173.9 93.5,174.1 89.5,173.9 C85.6,173.6 81.7,173 78,172 C74.4,171.1 70.8,169.7 67.7,168.1 C64.6,166.4 61.7,164.5 59.3,162.3 C56.9,160.2 54.9,157.7 53.3,155.3 C51.8,152.8 50.7,150.1 50.1,147.4 C49.5,144.8 49.4,142 49.7,139.4 C50,136.8 50.9,134.1 52.1,131.7 C53.3,129.3 55,126.9 56.9,124.9 C58.9,122.8 61.3,121 63.9,119.4 C66.4,117.8 69.4,116.5 72.3,115.5 C75.3,114.6 78.5,113.9 81.6,113.5 C84.7,113.2 88,113.1 91.1,113.4 C94.1,113.7 97.2,114.3 100,115.1 C102.9,115.9 105.6,117.1 107.9,118.4 C110.3,119.8 112.4,121.4 114.2,123.1 C116,124.8 117.4,126.7 118.5,128.7 C119.6,130.6 120.3,132.7 120.7,134.8 C121,136.8 121,138.9 120.6,140.9 C120.3,142.9 119.5,144.9 118.5,146.7 C117.4,148.5 116.1,150.2 114.5,151.7 C112.9,153.2 111,154.5 109,155.6 C107,156.7 104.8,157.6 102.6,158.3 C100.3,158.9 97.9,159.3 95.6,159.5 C93.3,159.7 90.9,159.6 88.7,159.3 C86.5,159.1 84.3,158.5 82.3,157.8 C80.3,157.1 78.4,156.2 76.8,155.2 C75.2,154.2 73.7,153 72.6,151.7 C71.4,150.4 70.5,149 69.8,147.6 C69.2,146.2 68.8,144.7 68.7,143.3 C68.5,141.9 68.7,140.4 69.1,139 C69.4,137.7 70.1,136.4 70.9,135.2 C71.7,134 72.7,132.9 73.9,132 C75,131 76.4,130.2 77.8,129.5 C79.2,128.9 80.7,128.4 82.2,128.1 C83.7,127.7 85.3,127.6 86.8,127.5 C88.3,127.5 89.8,127.7 91.1,127.9 C92.5,128.2 93.9,128.6 95,129.1 C96.2,129.7 97.3,130.3 98.2,131 C99.1,131.7 99.8,132.5 100.4,133.3 C101,134.1 101.4,135 101.6,135.8 C101.9,136.7 102,137.5 101.9,138.4 C101.8,139.2 101.6,140 101.3,140.7 C100.9,141.4 100.4,142.1 99.9,142.7 C99.3,143.2 98.6,143.7 97.9,144.1 C97.2,144.6 96.5,144.9 95.7,145.1 C95,145.3 94.1,145.4 93.4,145.5 C92.7,145.5 91.9,145.5 91.2,145.4 C90.6,145.3 89.9,145.1 89.4,144.8 C88.9,144.6 88.4,144.3 88,144 C87.7,143.7 87.4,143.3 87.2,143 C87,142.6 86.9,142.2 86.9,141.9 C86.9,141.6 86.9,141.3 87.1,141 C87.2,140.7 87.4,140.5 87.6,140.3 C87.8,140.1 88.1,140 88.4,139.9 C88.7,139.8 89,139.8 89.2,139.8 C89.5,139.8 89.9,140 90,140" fill="none" stroke="#e6f4f8" stroke-width="2.2" stroke-linecap="round" opacity="0.75"/>
<path d="M134,140 C133.6,138.6 133,134.2 131.8,131.5 C130.6,128.9 128.9,126.2 126.8,123.9 C124.7,121.6 122.2,119.5 119.5,117.7 C116.7,115.9 113.6,114.3 110.3,113.2 C107.1,112 103.6,111.1 100.1,110.6 C96.7,110.1 93,110 89.6,110.2 C86.1,110.4 82.7,111 79.5,111.8 C76.3,112.7 73.1,113.9 70.4,115.3 C67.7,116.7 65.1,118.5 63,120.4 C60.9,122.2 59.1,124.4 57.7,126.6 C56.4,128.8 55.4,131.1 54.9,133.5 C54.3,135.8 54.2,138.2 54.5,140.5 C54.8,142.8 55.6,145.2 56.6,147.3 C57.7,149.4 59.2,151.5 60.9,153.3 C62.6,155.1 64.8,156.8 67,158.1 C69.3,159.5 71.8,160.7 74.4,161.5 C77,162.4 79.9,163 82.6,163.3 C85.4,163.6 88.2,163.6 90.9,163.4 C93.7,163.2 96.4,162.6 98.8,161.9 C101.3,161.2 103.7,160.1 105.8,159 C107.8,157.8 109.7,156.4 111.3,154.9 C112.8,153.4 114.1,151.7 115.1,150 C116,148.2 116.7,146.4 117,144.6 C117.3,142.8 117.3,140.9 116.9,139.2 C116.6,137.4 116,135.7 115.1,134.1 C114.2,132.5 112.9,131 111.5,129.7 C110.2,128.4 108.5,127.2 106.7,126.2 C105,125.3 103,124.5 101.1,123.9 C99.1,123.3 97,123 94.9,122.8 C92.9,122.7 90.8,122.7 88.8,123 C86.9,123.2 84.9,123.7 83.2,124.3 C81.5,124.9 79.8,125.7 78.4,126.6 C77,127.5 75.7,128.6 74.7,129.7 C73.6,130.8 72.8,132.1 72.2,133.3 C71.7,134.5 71.3,135.9 71.2,137.1 C71.1,138.4 71.3,139.7 71.6,140.8 C71.9,142 72.5,143.2 73.2,144.2 C73.9,145.3 74.8,146.3 75.8,147.1 C76.8,147.9 78,148.6 79.2,149.2 C80.5,149.8 81.8,150.2 83.1,150.5 C84.4,150.8 85.8,151 87.1,151 C88.5,151 89.8,150.9 91,150.6 C92.2,150.4 93.4,150 94.4,149.6 C95.5,149.1 96.4,148.5 97.2,147.9 C98,147.3 98.6,146.6 99.2,145.9 C99.7,145.2 100,144.4 100.2,143.7 C100.5,142.9 100.5,142.2 100.5,141.4 C100.4,140.7 100.2,140 99.9,139.4 C99.6,138.8 99.2,138.2 98.7,137.7 C98.2,137.2 97.6,136.7 97,136.4 C96.4,136 95.7,135.7 95,135.5 C94.4,135.3 93.7,135.2 93,135.2 C92.3,135.1 91.7,135.2 91.1,135.3 C90.5,135.4 90,135.6 89.5,135.8 C89,136 88.6,136.2 88.3,136.5 C87.9,136.8 87.7,137.1 87.5,137.4 C87.4,137.7 87.3,138 87.3,138.3 C87.2,138.6 87.3,138.9 87.4,139.1 C87.5,139.4 87.7,139.6 87.9,139.7 C88.1,139.9 88.3,140 88.6,140.1 C88.8,140.2 89.1,140.2 89.3,140.2 C89.6,140.2 89.9,140 90,140" fill="none" stroke="#e6f4f8" stroke-width="1.7000000000000002" stroke-linecap="round" opacity="0.55"/>
<path d="M128,140 C127.7,141.2 127.1,145 126.1,147.3 C125.1,149.6 123.6,151.9 121.8,153.9 C120,155.9 117.8,157.7 115.4,159.3 C113.1,160.8 110.3,162.2 107.6,163.2 C104.8,164.2 101.7,164.9 98.8,165.4 C95.8,165.8 92.6,165.9 89.7,165.7 C86.7,165.6 83.7,165.1 80.9,164.3 C78.1,163.6 75.4,162.6 73.1,161.3 C70.7,160.1 68.5,158.6 66.7,157 C64.9,155.3 63.3,153.5 62.1,151.6 C61,149.7 60.1,147.7 59.7,145.6 C59.2,143.6 59.1,141.5 59.4,139.5 C59.6,137.5 60.2,135.5 61.2,133.7 C62.1,131.9 63.4,130.1 64.9,128.5 C66.4,127 68.2,125.5 70.2,124.3 C72.1,123.2 74.3,122.2 76.6,121.4 C78.8,120.7 81.3,120.1 83.6,119.9 C86,119.6 88.5,119.6 90.8,119.8 C93.2,120 95.5,120.4 97.6,121.1 C99.8,121.7 101.8,122.6 103.6,123.6 C105.4,124.6 107,125.9 108.4,127.2 C109.7,128.5 110.9,129.9 111.7,131.4 C112.5,132.9 113,134.5 113.3,136 C113.6,137.6 113.6,139.2 113.3,140.7 C113,142.2 112.4,143.7 111.6,145.1 C110.9,146.5 109.8,147.8 108.6,148.9 C107.4,150 106,151.1 104.5,151.9 C103,152.7 101.3,153.4 99.6,153.9 C97.9,154.4 96,154.7 94.3,154.8 C92.5,155 90.7,154.9 89,154.7 C87.3,154.5 85.6,154.1 84.1,153.6 C82.6,153 81.2,152.3 80,151.6 C78.7,150.8 77.6,149.8 76.8,148.9 C75.9,147.9 75.2,146.8 74.7,145.8 C74.2,144.7 73.9,143.6 73.8,142.5 C73.7,141.4 73.8,140.3 74.1,139.3 C74.4,138.2 74.9,137.2 75.5,136.3 C76.1,135.4 76.9,134.6 77.8,133.9 C78.6,133.2 79.7,132.5 80.7,132 C81.8,131.6 82.9,131.2 84.1,130.9 C85.2,130.7 86.4,130.5 87.5,130.5 C88.7,130.5 89.8,130.6 90.9,130.8 C91.9,131 92.9,131.4 93.8,131.7 C94.7,132.1 95.5,132.6 96.2,133.2 C96.9,133.7 97.5,134.3 97.9,134.9 C98.3,135.5 98.7,136.2 98.8,136.8 C99,137.5 99.1,138.1 99,138.7 C99,139.4 98.8,140 98.6,140.5 C98.3,141.1 97.9,141.6 97.5,142 C97.1,142.5 96.6,142.8 96,143.2 C95.5,143.5 94.9,143.7 94.3,143.9 C93.8,144 93.2,144.1 92.6,144.2 C92,144.2 91.5,144.2 90.9,144.1 C90.4,144 90,143.8 89.6,143.7 C89.1,143.5 88.8,143.3 88.5,143 C88.2,142.8 88,142.5 87.9,142.2 C87.7,142 87.7,141.7 87.6,141.5 C87.6,141.2 87.7,141 87.8,140.8 C87.9,140.6 88,140.4 88.2,140.2 C88.4,140.1 88.6,140 88.8,139.9 C89,139.8 89.2,139.8 89.4,139.8 C89.6,139.9 89.9,140 90,140" fill="none" stroke="#e6f4f8" stroke-width="1.2000000000000002" stroke-linecap="round" opacity="0.35"/>
<path d="M975,620 C974.6,621.4 974,625.9 972.7,628.6 C971.5,631.4 969.7,634.1 967.6,636.4 C965.5,638.8 962.9,641 960.1,642.8 C957.3,644.7 954.1,646.2 950.8,647.4 C947.5,648.7 943.9,649.5 940.4,650 C936.8,650.5 933.1,650.7 929.6,650.5 C926.1,650.3 922.5,649.7 919.2,648.8 C915.9,648 912.8,646.7 909.9,645.3 C907.1,643.8 904.5,642 902.4,640.1 C900.2,638.2 898.4,636 897,633.7 C895.6,631.5 894.6,629.1 894.1,626.7 C893.5,624.3 893.4,621.8 893.7,619.4 C894,617.1 894.8,614.7 895.9,612.5 C896.9,610.4 898.5,608.3 900.2,606.4 C902,604.6 904.2,602.9 906.5,601.5 C908.8,600.1 911.4,598.9 914.1,598 C916.8,597.1 919.6,596.5 922.5,596.2 C925.3,595.8 928.2,595.8 931,596.1 C933.7,596.3 936.5,596.8 939,597.6 C941.6,598.4 944,599.4 946.1,600.6 C948.2,601.8 950.2,603.3 951.8,604.8 C953.4,606.3 954.7,608.1 955.7,609.8 C956.6,611.6 957.3,613.5 957.6,615.3 C957.9,617.1 957.9,619.1 957.6,620.8 C957.2,622.6 956.5,624.4 955.6,626 C954.7,627.6 953.4,629.2 952,630.5 C950.6,631.9 948.9,633.1 947.1,634.1 C945.3,635.1 943.3,635.9 941.3,636.4 C939.3,637 937.1,637.4 935.1,637.6 C933,637.7 930.8,637.6 928.8,637.4 C926.8,637.1 924.8,636.7 923,636 C921.3,635.4 919.6,634.6 918.1,633.7 C916.7,632.8 915.4,631.7 914.3,630.5 C913.3,629.4 912.4,628.1 911.8,626.9 C911.3,625.6 910.9,624.2 910.8,623 C910.7,621.7 910.8,620.4 911.2,619.1 C911.5,617.9 912.1,616.7 912.8,615.7 C913.5,614.6 914.5,613.6 915.5,612.8 C916.5,611.9 917.8,611.2 919,610.6 C920.2,610 921.6,609.5 923,609.2 C924.3,608.9 925.7,608.8 927.1,608.8 C928.4,608.8 929.8,608.9 931,609.1 C932.3,609.4 933.5,609.8 934.5,610.2 C935.6,610.7 936.5,611.3 937.4,611.9 C938.2,612.5 938.8,613.2 939.4,614 C939.9,614.7 940.3,615.5 940.5,616.2 C940.7,617 940.8,617.8 940.7,618.5 C940.6,619.2 940.4,620 940.1,620.6 C939.8,621.3 939.4,621.9 938.9,622.4 C938.4,622.9 937.8,623.4 937.1,623.7 C936.5,624.1 935.8,624.4 935.1,624.6 C934.5,624.8 933.7,624.9 933.1,624.9 C932.4,625 931.7,624.9 931.1,624.8 C930.5,624.7 930,624.5 929.5,624.3 C929,624.1 928.6,623.9 928.2,623.6 C927.9,623.3 927.6,623 927.5,622.7 C927.3,622.4 927.2,622 927.2,621.7 C927.2,621.4 927.2,621.1 927.4,620.9 C927.5,620.7 927.7,620.4 927.9,620.3 C928.1,620.1 928.3,620 928.6,619.9 C928.8,619.8 929.1,619.8 929.3,619.8 C929.6,619.8 929.9,620 930,620" fill="none" stroke="#e6f4f8" stroke-width="2.2" stroke-linecap="round" opacity="0.75"/>
<path d="M969,620 C968.7,618.8 968.1,614.9 967,612.5 C966,610.1 964.4,607.8 962.6,605.8 C960.8,603.7 958.5,601.8 956.1,600.2 C953.7,598.6 950.9,597.3 948,596.2 C945.2,595.2 942.1,594.4 939,594 C935.9,593.5 932.7,593.4 929.6,593.6 C926.6,593.8 923.5,594.3 920.7,595 C917.8,595.8 915.1,596.8 912.6,598.1 C910.2,599.4 907.9,600.9 906.1,602.6 C904.2,604.3 902.6,606.2 901.4,608.1 C900.2,610 899.3,612.1 898.9,614.2 C898.4,616.3 898.3,618.4 898.6,620.5 C898.8,622.5 899.5,624.6 900.4,626.5 C901.4,628.4 902.7,630.2 904.2,631.8 C905.8,633.4 907.6,634.9 909.6,636.1 C911.6,637.3 913.9,638.3 916.2,639.1 C918.5,639.8 921,640.4 923.5,640.7 C925.9,640.9 928.4,641 930.8,640.7 C933.2,640.5 935.6,640.1 937.8,639.4 C940,638.8 942.1,637.9 944,636.8 C945.8,635.8 947.5,634.5 948.9,633.2 C950.2,631.9 951.4,630.3 952.2,628.8 C953.1,627.3 953.7,625.7 953.9,624.1 C954.2,622.5 954.2,620.8 953.9,619.3 C953.6,617.7 953,616.2 952.2,614.8 C951.4,613.4 950.3,612 949.1,610.9 C947.9,609.7 946.4,608.7 944.8,607.8 C943.3,606.9 941.5,606.2 939.8,605.7 C938.1,605.2 936.2,604.9 934.4,604.8 C932.6,604.6 930.7,604.7 929,604.9 C927.2,605.1 925.5,605.6 924,606.1 C922.4,606.6 921,607.3 919.7,608.1 C918.4,608.9 917.3,609.9 916.4,610.9 C915.5,611.9 914.8,613 914.3,614.1 C913.8,615.2 913.5,616.3 913.4,617.4 C913.3,618.5 913.4,619.7 913.7,620.7 C914,621.8 914.5,622.8 915.1,623.8 C915.7,624.7 916.5,625.5 917.4,626.3 C918.3,627 919.4,627.7 920.5,628.2 C921.5,628.7 922.7,629.1 923.9,629.3 C925.1,629.6 926.3,629.7 927.5,629.7 C928.6,629.7 929.8,629.6 930.9,629.4 C932,629.2 933,628.9 933.9,628.5 C934.8,628.1 935.7,627.6 936.4,627 C937.1,626.5 937.7,625.9 938.1,625.2 C938.6,624.6 938.9,623.9 939.1,623.3 C939.3,622.6 939.3,621.9 939.3,621.3 C939.2,620.7 939,620 938.8,619.5 C938.5,618.9 938.1,618.4 937.7,617.9 C937.3,617.5 936.7,617.1 936.2,616.8 C935.7,616.4 935,616.2 934.5,616 C933.9,615.9 933.2,615.8 932.7,615.7 C932.1,615.7 931.5,615.7 931,615.8 C930.5,615.9 930,616.1 929.5,616.2 C929.1,616.4 928.8,616.7 928.5,616.9 C928.2,617.1 928,617.4 927.8,617.7 C927.7,618 927.6,618.2 927.6,618.5 C927.6,618.8 927.6,619 927.7,619.2 C927.8,619.4 928,619.6 928.1,619.8 C928.3,619.9 928.5,620 928.7,620.1 C929,620.2 929.2,620.2 929.4,620.2 C929.6,620.2 929.9,620 930,620" fill="none" stroke="#e6f4f8" stroke-width="1.7000000000000002" stroke-linecap="round" opacity="0.55"/>
<path d="M963,620 C962.7,621.1 962.2,624.3 961.3,626.3 C960.4,628.3 959.1,630.3 957.6,632 C956.1,633.8 954.2,635.4 952.1,636.7 C950,638.1 947.7,639.2 945.3,640.1 C942.8,641 940.2,641.7 937.6,642 C935,642.4 932.3,642.5 929.7,642.4 C927.1,642.2 924.5,641.8 922.1,641.1 C919.7,640.5 917.4,639.6 915.3,638.5 C913.2,637.5 911.3,636.1 909.8,634.7 C908.2,633.3 906.8,631.7 905.8,630.1 C904.8,628.4 904.1,626.6 903.7,624.9 C903.3,623.2 903.2,621.3 903.4,619.6 C903.6,617.9 904.2,616.1 905,614.5 C905.8,612.9 906.9,611.4 908.2,610 C909.5,608.7 911.1,607.4 912.8,606.4 C914.5,605.4 916.4,604.5 918.3,603.9 C920.3,603.2 922.4,602.8 924.5,602.5 C926.5,602.3 928.7,602.3 930.7,602.4 C932.7,602.6 934.8,603 936.6,603.6 C938.5,604.1 940.3,604.9 941.8,605.8 C943.4,606.7 944.8,607.7 946,608.8 C947.1,610 948.1,611.2 948.8,612.5 C949.5,613.8 950,615.2 950.2,616.6 C950.5,617.9 950.5,619.3 950.2,620.6 C950,621.9 949.5,623.2 948.8,624.4 C948.1,625.6 947.2,626.7 946.2,627.7 C945.1,628.7 943.9,629.6 942.6,630.3 C941.2,631 939.8,631.6 938.3,632.1 C936.8,632.5 935.2,632.8 933.7,632.9 C932.2,633 930.6,632.9 929.1,632.8 C927.7,632.6 926.2,632.2 924.9,631.8 C923.6,631.3 922.3,630.7 921.3,630 C920.2,629.4 919.3,628.6 918.5,627.7 C917.7,626.9 917.1,625.9 916.7,625 C916.3,624.1 916,623.1 915.9,622.2 C915.8,621.2 915.9,620.3 916.2,619.4 C916.4,618.5 916.9,617.6 917.4,616.8 C917.9,616 918.6,615.3 919.4,614.7 C920.1,614.1 921,613.5 921.9,613.1 C922.8,612.7 923.9,612.3 924.8,612.1 C925.8,611.9 926.9,611.8 927.9,611.8 C928.8,611.8 929.8,611.9 930.8,612 C931.7,612.2 932.5,612.5 933.3,612.8 C934.1,613.2 934.8,613.6 935.4,614.1 C936,614.5 936.5,615 936.9,615.6 C937.2,616.1 937.5,616.7 937.7,617.2 C937.8,617.8 937.9,618.4 937.9,618.9 C937.8,619.4 937.7,620 937.4,620.5 C937.2,620.9 936.9,621.4 936.5,621.8 C936.1,622.1 935.7,622.5 935.2,622.7 C934.8,623 934.3,623.2 933.8,623.4 C933.3,623.5 932.7,623.6 932.2,623.6 C931.8,623.6 931.3,623.6 930.8,623.5 C930.4,623.5 930,623.3 929.6,623.2 C929.3,623 928.9,622.8 928.7,622.6 C928.5,622.4 928.3,622.2 928.1,622 C928,621.7 928,621.5 927.9,621.3 C927.9,621.1 928,620.8 928.1,620.7 C928.1,620.5 928.3,620.3 928.4,620.2 C928.6,620.1 928.8,620 928.9,619.9 C929.1,619.9 929.3,619.8 929.5,619.9 C929.7,619.9 929.9,620 930,620" fill="none" stroke="#e6f4f8" stroke-width="1.2000000000000002" stroke-linecap="round" opacity="0.35"/>
<path d="M200,200 C204.1,195.8 212.9,193.5 219.6,190.9 C226.3,188.4 234.3,188.5 240.4,185 C246.4,181.5 250.2,174.1 256,169.9 C261.8,165.7 268.5,161.8 275.2,159.7 C282,157.6 289.3,158 296.4,157.2 C303.5,156.5 310.6,155.8 317.6,155 C324.7,154.3 331.8,153.6 338.9,152.8 C345.9,152 352.2,149.6 360,150 C367.8,150.4 377.2,152.4 385.4,154.9 C393.6,157.5 401.1,162 409.2,165.1 C417.2,168.2 425.5,170.5 433.6,173.3 C441.7,176 449.4,180.2 457.8,181.8 C466.2,183.5 475.2,182.7 483.9,183.2 C492.5,183.7 501.4,185.5 509.9,184.6 C518.4,183.6 526.7,180 535.1,177.6 C543.4,175.2 554.1,169 560,170 C565.9,171 566.5,179.4 570.5,183.4 C574.6,187.3 579.7,190.2 584.2,193.5 C588.8,196.9 593.3,200.1 597.9,203.4 C602.5,206.6 607.4,209.5 611.8,213 C616.2,216.5 620.5,220.3 624.3,224.4 C628.1,228.5 631.1,233.4 634.7,237.7 C638.3,242.1 641.7,246.7 646,250.4 C650.2,254.2 657.3,255.4 660,260 C662.7,264.6 662.1,272 662.4,278 C662.7,284 661.3,290.1 661.9,296.1 C662.5,302.1 665.4,307.9 665.9,313.9 C666.4,319.9 666.2,326.3 664.8,332.1 C663.4,337.9 660,343.2 657.6,348.7 C655.1,354.2 652.3,359.6 650,365.2 C647.7,370.8 645.7,376.5 644,382.3 C642.3,388.1 643.1,395.3 640,400 C636.9,404.7 630.2,406.8 625.6,410.5 C620.9,414.2 616.7,418.4 612.1,422.3 C607.6,426.2 603.2,430.3 598.4,433.8 C593.6,437.2 587.6,439.3 583.2,443.2 C578.8,447.1 575.6,452.4 572.1,457.2 C568.6,462 565.8,467.3 562.2,472 C558.6,476.7 554.1,480.8 550.4,485.5 C546.7,490.1 545.6,497.3 540,500 C534.4,502.7 524.4,500.8 516.7,501.8 C509,502.9 501.1,503.8 493.8,506.3 C486.5,508.7 479.9,513.3 472.8,516.4 C465.7,519.6 458.6,523.6 451.1,525.1 C443.6,526.6 435.6,525.1 427.8,525.4 C420.1,525.7 412.1,525 404.6,526.6 C397.1,528.2 390.3,533 382.9,535.2 C375.4,537.5 366.9,540.5 360,540 C353.1,539.5 347.8,535 341.7,532.5 C335.6,529.9 329.7,526.9 323.5,524.8 C317.2,522.6 310.7,521.5 304.3,519.8 C297.9,518.1 291.1,517.4 285.2,514.6 C279.4,511.8 274.5,506.9 269.2,503 C263.9,499.1 258.9,494.7 253.3,491.3 C247.6,488 240.8,486.3 235.3,482.8 C229.7,479.2 223.2,475.2 220,470 C216.8,464.8 217.2,457.7 216.2,451.5 C215.2,445.3 214.9,438.9 213.8,432.7 C212.7,426.5 210.6,420.4 209.7,414.2 C208.7,408 209.9,401.2 208,395.3 C206.1,389.5 201.6,384.5 198.3,379.2 C195,373.8 191.4,368.6 188.2,363.1 C185,357.7 182.1,352.1 179.1,346.6 C176,341.1 171.5,335.6 170,330 C168.5,324.4 169.9,318.6 170,313 C170.2,307.3 169.8,301.4 171.1,296 C172.3,290.5 175.3,285.4 177.7,280.3 C180.1,275.1 183.4,270.3 185.5,265.1 C187.6,259.9 189.2,254.5 190.2,249 C191.3,243.6 190.9,237.8 191.7,232.3 C192.5,226.8 193.9,221.4 195.3,216 C196.7,210.6 195.9,204.2 200,200 Z" fill="#7fb8c9" stroke="#7fb8c9" stroke-width="26" stroke-linejoin="round" opacity="0.75"/>
<path d="M200,200 C204.1,195.8 212.9,193.5 219.6,190.9 C226.3,188.4 234.3,188.5 240.4,185 C246.4,181.5 250.2,174.1 256,169.9 C261.8,165.7 268.5,161.8 275.2,159.7 C282,157.6 289.3,158 296.4,157.2 C303.5,156.5 310.6,155.8 317.6,155 C324.7,154.3 331.8,153.6 338.9,152.8 C345.9,152 352.2,149.6 360,150 C367.8,150.4 377.2,152.4 385.4,154.9 C393.6,157.5 401.1,162 409.2,165.1 C417.2,168.2 425.5,170.5 433.6,173.3 C441.7,176 449.4,180.2 457.8,181.8 C466.2,183.5 475.2,182.7 483.9,183.2 C492.5,183.7 501.4,185.5 509.9,184.6 C518.4,183.6 526.7,180 535.1,177.6 C543.4,175.2 554.1,169 560,170 C565.9,171 566.5,179.4 570.5,183.4 C574.6,187.3 579.7,190.2 584.2,193.5 C588.8,196.9 593.3,200.1 597.9,203.4 C602.5,206.6 607.4,209.5 611.8,213 C616.2,216.5 620.5,220.3 624.3,224.4 C628.1,228.5 631.1,233.4 634.7,237.7 C638.3,242.1 641.7,246.7 646,250.4 C650.2,254.2 657.3,255.4 660,260 C662.7,264.6 662.1,272 662.4,278 C662.7,284 661.3,290.1 661.9,296.1 C662.5,302.1 665.4,307.9 665.9,313.9 C666.4,319.9 666.2,326.3 664.8,332.1 C663.4,337.9 660,343.2 657.6,348.7 C655.1,354.2 652.3,359.6 650,365.2 C647.7,370.8 645.7,376.5 644,382.3 C642.3,388.1 643.1,395.3 640,400 C636.9,404.7 630.2,406.8 625.6,410.5 C620.9,414.2 616.7,418.4 612.1,422.3 C607.6,426.2 603.2,430.3 598.4,433.8 C593.6,437.2 587.6,439.3 583.2,443.2 C578.8,447.1 575.6,452.4 572.1,457.2 C568.6,462 565.8,467.3 562.2,472 C558.6,476.7 554.1,480.8 550.4,485.5 C546.7,490.1 545.6,497.3 540,500 C534.4,502.7 524.4,500.8 516.7,501.8 C509,502.9 501.1,503.8 493.8,506.3 C486.5,508.7 479.9,513.3 472.8,516.4 C465.7,519.6 458.6,523.6 451.1,525.1 C443.6,526.6 435.6,525.1 427.8,525.4 C420.1,525.7 412.1,525 404.6,526.6 C397.1,528.2 390.3,533 382.9,535.2 C375.4,537.5 366.9,540.5 360,540 C353.1,539.5 347.8,535 341.7,532.5 C335.6,529.9 329.7,526.9 323.5,524.8 C317.2,522.6 310.7,521.5 304.3,519.8 C297.9,518.1 291.1,517.4 285.2,514.6 C279.4,511.8 274.5,506.9 269.2,503 C263.9,499.1 258.9,494.7 253.3,491.3 C247.6,488 240.8,486.3 235.3,482.8 C229.7,479.2 223.2,475.2 220,470 C216.8,464.8 217.2,457.7 216.2,451.5 C215.2,445.3 214.9,438.9 213.8,432.7 C212.7,426.5 210.6,420.4 209.7,414.2 C208.7,408 209.9,401.2 208,395.3 C206.1,389.5 201.6,384.5 198.3,379.2 C195,373.8 191.4,368.6 188.2,363.1 C185,357.7 182.1,352.1 179.1,346.6 C176,341.1 171.5,335.6 170,330 C168.5,324.4 169.9,318.6 170,313 C170.2,307.3 169.8,301.4 171.1,296 C172.3,290.5 175.3,285.4 177.7,280.3 C180.1,275.1 183.4,270.3 185.5,265.1 C187.6,259.9 189.2,254.5 190.2,249 C191.3,243.6 190.9,237.8 191.7,232.3 C192.5,226.8 193.9,221.4 195.3,216 C196.7,210.6 195.9,204.2 200,200 Z" fill="#d9cc9e" stroke="#d9cc9e" stroke-width="9" stroke-linejoin="round"/>
<path d="M200,200 C204.1,195.8 212.9,193.5 219.6,190.9 C226.3,188.4 234.3,188.5 240.4,185 C246.4,181.5 250.2,174.1 256,169.9 C261.8,165.7 268.5,161.8 275.2,159.7 C282,157.6 289.3,158 296.4,157.2 C303.5,156.5 310.6,155.8 317.6,155 C324.7,154.3 331.8,153.6 338.9,152.8 C345.9,152 352.2,149.6 360,150 C367.8,150.4 377.2,152.4 385.4,154.9 C393.6,157.5 401.1,162 409.2,165.1 C417.2,168.2 425.5,170.5 433.6,173.3 C441.7,176 449.4,180.2 457.8,181.8 C466.2,183.5 475.2,182.7 483.9,183.2 C492.5,183.7 501.4,185.5 509.9,184.6 C518.4,183.6 526.7,180 535.1,177.6 C543.4,175.2 554.1,169 560,170 C565.9,171 566.5,179.4 570.5,183.4 C574.6,187.3 579.7,190.2 584.2,193.5 C588.8,196.9 593.3,200.1 597.9,203.4 C602.5,206.6 607.4,209.5 611.8,213 C616.2,216.5 620.5,220.3 624.3,224.4 C628.1,228.5 631.1,233.4 634.7,237.7 C638.3,242.1 641.7,246.7 646,250.4 C650.2,254.2 657.3,255.4 660,260 C662.7,264.6 662.1,272 662.4,278 C662.7,284 661.3,290.1 661.9,296.1 C662.5,302.1 665.4,307.9 665.9,313.9 C666.4,319.9 666.2,326.3 664.8,332.1 C663.4,337.9 660,343.2 657.6,348.7 C655.1,354.2 652.3,359.6 650,365.2 C647.7,370.8 645.7,376.5 644,382.3 C642.3,388.1 643.1,395.3 640,400 C636.9,404.7 630.2,406.8 625.6,410.5 C620.9,414.2 616.7,418.4 612.1,422.3 C607.6,426.2 603.2,430.3 598.4,433.8 C593.6,437.2 587.6,439.3 583.2,443.2 C578.8,447.1 575.6,452.4 572.1,457.2 C568.6,462 565.8,467.3 562.2,472 C558.6,476.7 554.1,480.8 550.4,485.5 C546.7,490.1 545.6,497.3 540,500 C534.4,502.7 524.4,500.8 516.7,501.8 C509,502.9 501.1,503.8 493.8,506.3 C486.5,508.7 479.9,513.3 472.8,516.4 C465.7,519.6 458.6,523.6 451.1,525.1 C443.6,526.6 435.6,525.1 427.8,525.4 C420.1,525.7 412.1,525 404.6,526.6 C397.1,528.2 390.3,533 382.9,535.2 C375.4,537.5 366.9,540.5 360,540 C353.1,539.5 347.8,535 341.7,532.5 C335.6,529.9 329.7,526.9 323.5,524.8 C317.2,522.6 310.7,521.5 304.3,519.8 C297.9,518.1 291.1,517.4 285.2,514.6 C279.4,511.8 274.5,506.9 269.2,503 C263.9,499.1 258.9,494.7 253.3,491.3 C247.6,488 240.8,486.3 235.3,482.8 C229.7,479.2 223.2,475.2 220,470 C216.8,464.8 217.2,457.7 216.2,451.5 C215.2,445.3 214.9,438.9 213.8,432.7 C212.7,426.5 210.6,420.4 209.7,414.2 C208.7,408 209.9,401.2 208,395.3 C206.1,389.5 201.6,384.5 198.3,379.2 C195,373.8 191.4,368.6 188.2,363.1 C185,357.7 182.1,352.1 179.1,346.6 C176,341.1 171.5,335.6 170,330 C168.5,324.4 169.9,318.6 170,313 C170.2,307.3 169.8,301.4 171.1,296 C172.3,290.5 175.3,285.4 177.7,280.3 C180.1,275.1 183.4,270.3 185.5,265.1 C187.6,259.9 189.2,254.5 190.2,249 C191.3,243.6 190.9,237.8 191.7,232.3 C192.5,226.8 193.9,221.4 195.3,216 C196.7,210.6 195.9,204.2 200,200 Z" fill="#8fae7a" stroke="#2e2618" stroke-width="3" stroke-linejoin="round"/>
<g>
<use href="#t6c984121" x="351.5" y="161.9"/>
<use href="#t6c984120" x="319.5" y="162.5"/>
<use href="#t6c984121" x="286.5" y="163.4"/>
<use href="#t6c984122" x="385.2" y="165.1"/>
<use href="#t6c984122" x="368.9" y="169.7"/>
<use href="#t6c984120" x="307.6" y="176.1"/>
<use href="#t6c984121" x="555" y="177.5"/>
<use href="#t6c984122" x="384" y="179.3"/>
<use href="#t6c984121" x="317.3" y="179.8"/>
<use href="#t6c984122" x="427.2" y="181"/>
<use href="#t6c984121" x="340.3" y="184.6"/>
<use href="#t6c984120" x="523.9" y="184.8"/>
<use href="#t6c984122" x="460.4" y="185.2"/>
<use href="#t6c984122" x="249.3" y="187.1"/>
<use href="#t6c984122" x="507.7" y="187.1"/>
<use href="#t6c984121" x="444.8" y="187.2"/>
<use href="#t6c984120" x="556.8" y="189.6"/>
<use href="#t6c984120" x="237.6" y="193.9"/>
<use href="#t6c984122" x="275" y="194"/>
<use href="#t6c984121" x="487.4" y="194.8"/>
<use href="#t6c984120" x="298.6" y="194.9"/>
<use href="#t6c984122" x="357.4" y="195.1"/>
<use href="#t6c984121" x="477.3" y="199.7"/>
<use href="#t6c984120" x="254" y="199.8"/>
<use href="#t6c984120" x="265.8" y="199.8"/>
<use href="#t6c984120" x="424.4" y="200.3"/>
<use href="#t6c984121" x="407.7" y="200.8"/>
<use href="#t6c984120" x="231.3" y="204.3"/>
<use href="#t6c984120" x="444.8" y="205.2"/>
<use href="#t6c984122" x="493.6" y="205.4"/>
<use href="#t6c984120" x="204.1" y="206.6"/>
<use href="#t6c984120" x="582.7" y="208.6"/>
<use href="#t6c984120" x="459" y="208.9"/>
<use href="#t6c984121" x="314.5" y="209.7"/>
<use href="#t6c984120" x="480.5" y="209.8"/>
<use href="#t6c984120" x="246.9" y="210.6"/>
<use href="#t6c984120" x="407.1" y="211.4"/>
<use href="#t6c984122" x="289.6" y="213.8"/>
<use href="#t6c984121" x="565.9" y="215.9"/>
<use href="#t6c984121" x="606.3" y="216"/>
<use href="#t6c984122" x="232.5" y="216.6"/>
<use href="#t6c984121" x="522.1" y="217.8"/>
<use href="#t6c984121" x="441" y="218.2"/>
<use href="#t6c984122" x="196.5" y="218.2"/>
<use href="#t6c984120" x="390.3" y="219.8"/>
<use href="#t6c984121" x="323.7" y="220.4"/>
<use href="#t6c984120" x="556.4" y="220.9"/>
<use href="#t6c984120" x="308.1" y="221.5"/>
<use href="#t6c984121" x="459.5" y="223.1"/>
<use href="#t6c984120" x="576.3" y="223.2"/>
<use href="#t6c984121" x="355.3" y="224"/>
<use href="#t6c984121" x="470.1" y="224.2"/>
<use href="#t6c984120" x="373.4" y="225.4"/>
<use href="#t6c984120" x="625" y="225.9"/>
<use href="#t6c984122" x="413.1" y="225.9"/>
<use href="#t6c984122" x="497.7" y="226"/>
<use href="#t6c984121" x="286.5" y="227.1"/>
<use href="#t6c984120" x="207.5" y="228.2"/>
<use href="#t6c984121" x="225.2" y="230.2"/>
<use href="#t6c984122" x="399.4" y="231.9"/>
<use href="#t6c984122" x="425.3" y="233.4"/>
<use href="#t6c984120" x="352.1" y="235.5"/>
<use href="#t6c984121" x="370.5" y="236.7"/>
<use href="#t6c984120" x="453.2" y="238.4"/>
<use href="#t6c984120" x="613.8" y="239.2"/>
<use href="#t6c984120" x="508.6" y="239.5"/>
<use href="#t6c984120" x="287.6" y="240.8"/>
<use href="#t6c984122" x="338.3" y="241.2"/>
<use href="#t6c984121" x="560" y="242"/>
<use href="#t6c984121" x="409.2" y="243"/>
<use href="#t6c984121" x="487.5" y="243.1"/>
<use href="#t6c984121" x="231.2" y="243.6"/>
<use href="#t6c984121" x="217.9" y="243.7"/>
<use href="#t6c984121" x="203.2" y="246.4"/>
<use href="#t6c984122" x="499.4" y="246.9"/>
<use href="#t6c984121" x="305.4" y="247.1"/>
<use href="#t6c984121" x="585.9" y="247.2"/>
<use href="#t6c984120" x="523.2" y="248.2"/>
<use href="#t6c984122" x="451.1" y="251.8"/>
<use href="#t6c984120" x="355.9" y="254.1"/>
<use href="#t6c984120" x="429.5" y="254.6"/>
<use href="#t6c984121" x="214.6" y="256.3"/>
<use href="#t6c984120" x="343.4" y="256.5"/>
<use href="#t6c984122" x="397.6" y="256.8"/>
<use href="#t6c984121" x="289.6" y="257"/>
<use href="#t6c984121" x="654.3" y="258"/>
<use href="#t6c984120" x="569.1" y="259"/>
<use href="#t6c984122" x="516.6" y="259.8"/>
<use href="#t6c984121" x="240.4" y="260.2"/>
<use href="#t6c984121" x="625.2" y="261"/>
<use href="#t6c984121" x="203.3" y="261.1"/>
<use href="#t6c984120" x="586.9" y="261.4"/>
<use href="#t6c984121" x="272.8" y="263.6"/>
<use href="#t6c984121" x="226.6" y="263.7"/>
<use href="#t6c984120" x="334.2" y="263.7"/>
<use href="#t6c984122" x="388.6" y="264"/>
<use href="#t6c984122" x="261.7" y="265"/>
<use href="#t6c984121" x="537.3" y="265.6"/>
<use href="#t6c984122" x="611.1" y="266.4"/>
<use href="#t6c984120" x="410.1" y="266.8"/>
<use href="#t6c984120" x="192.3" y="269.4"/>
<use href="#t6c984121" x="294.3" y="270.9"/>
<use href="#t6c984121" x="590.8" y="272.7"/>
<use href="#t6c984121" x="317.1" y="273.1"/>
<use href="#t6c984121" x="375.4" y="273.3"/>
<use href="#t6c984120" x="386.6" y="274.8"/>
<use href="#t6c984121" x="658.2" y="276.2"/>
<use href="#t6c984122" x="336.6" y="276.3"/>
<use href="#t6c984122" x="565.9" y="276.6"/>
<use href="#t6c984122" x="255.8" y="279.2"/>
<use href="#t6c984120" x="612.2" y="279.5"/>
<use href="#t6c984122" x="189.4" y="280.3"/>
<use href="#t6c984120" x="360" y="281.3"/>
<use href="#t6c984121" x="547.3" y="281.4"/>
<use href="#t6c984120" x="299.7" y="281.6"/>
<use href="#t6c984120" x="311.5" y="282"/>
<use href="#t6c984121" x="217" y="283.9"/>
<use href="#t6c984122" x="381.1" y="284.3"/>
<use href="#t6c984121" x="278.1" y="286.3"/>
<use href="#t6c984121" x="200.2" y="286.4"/>
<use href="#t6c984120" x="243.3" y="288.6"/>
<use href="#t6c984121" x="267.4" y="288.9"/>
<use href="#t6c984121" x="538.7" y="289.9"/>
<use href="#t6c984122" x="326.1" y="290.1"/>
<use href="#t6c984121" x="315.7" y="292.7"/>
<use href="#t6c984122" x="181.7" y="293.1"/>
<use href="#t6c984120" x="579.2" y="293.2"/>
<use href="#t6c984120" x="356" y="294.3"/>
<use href="#t6c984120" x="252.4" y="296.1"/>
<use href="#t6c984121" x="394.3" y="298.3"/>
<use href="#t6c984122" x="650.6" y="299.7"/>
<use href="#t6c984122" x="626.3" y="299.8"/>
<use href="#t6c984120" x="231.8" y="301.1"/>
<use href="#t6c984122" x="243.4" y="301.4"/>
<use href="#t6c984120" x="175.8" y="302.9"/>
<use href="#t6c984120" x="600.3" y="303"/>
<use href="#t6c984121" x="296.3" y="305.3"/>
<use href="#t6c984121" x="618.1" y="306.7"/>
<use href="#t6c984120" x="589.9" y="307.2"/>
<use href="#t6c984120" x="578.6" y="308.1"/>
<use href="#t6c984121" x="565.5" y="308.4"/>
<use href="#t6c984122" x="315.7" y="308.6"/>
<use href="#t6c984122" x="277.8" y="309"/>
<use href="#t6c984121" x="370.3" y="309.7"/>
<use href="#t6c984121" x="265.6" y="310.7"/>
<use href="#t6c984120" x="543.6" y="311.2"/>
<use href="#t6c984120" x="209.3" y="311.8"/>
<use href="#t6c984120" x="230.9" y="311.9"/>
<use href="#t6c984122" x="340.1" y="312.9"/>
<use href="#t6c984120" x="328.3" y="314.3"/>
<use href="#t6c984122" x="648.5" y="317.8"/>
<use href="#t6c984122" x="570.1" y="318.2"/>
<use href="#t6c984122" x="258.1" y="318.6"/>
<use href="#t6c984121" x="196.4" y="318.9"/>
<use href="#t6c984122" x="277.6" y="320.6"/>
<use href="#t6c984121" x="354.3" y="321.9"/>
<use href="#t6c984121" x="599.5" y="322.9"/>
<use href="#t6c984121" x="287.4" y="326.7"/>
<use href="#t6c984122" x="344.4" y="327.7"/>
<use href="#t6c984122" x="315.7" y="328.2"/>
<use href="#t6c984120" x="566.5" y="329.9"/>
<use href="#t6c984121" x="200.7" y="330.3"/>
<use href="#t6c984122" x="388.4" y="331.6"/>
<use href="#t6c984120" x="377.4" y="331.9"/>
<use href="#t6c984120" x="277.7" y="332.9"/>
<use href="#t6c984122" x="333.1" y="334"/>
<use href="#t6c984121" x="611.5" y="335.2"/>
<use href="#t6c984122" x="230.8" y="335.7"/>
<use href="#t6c984121" x="268.9" y="338.4"/>
<use href="#t6c984120" x="185.3" y="339.4"/>
<use href="#t6c984121" x="245.1" y="340.2"/>
<use href="#t6c984122" x="558" y="340.3"/>
<use href="#t6c984122" x="303.9" y="341.3"/>
<use href="#t6c984122" x="197.4" y="342.4"/>
<use href="#t6c984122" x="327.1" y="342.5"/>
<use href="#t6c984120" x="353.8" y="342.6"/>
<use href="#t6c984120" x="395.3" y="344.3"/>
<use href="#t6c984122" x="209.6" y="346.1"/>
<use href="#t6c984120" x="619.6" y="346.9"/>
<use href="#t6c984121" x="544.4" y="347.6"/>
<use href="#t6c984120" x="590" y="347.9"/>
<use href="#t6c984120" x="380.9" y="348.7"/>
<use href="#t6c984122" x="565.8" y="351.5"/>
<use href="#t6c984120" x="282.9" y="351.8"/>
<use href="#t6c984121" x="230" y="352"/>
<use href="#t6c984122" x="364.8" y="354.2"/>
<use href="#t6c984122" x="184.7" y="355.1"/>
<use href="#t6c984121" x="205.6" y="356.3"/>
<use href="#t6c984122" x="548.5" y="358.4"/>
<use href="#t6c984121" x="392.4" y="359.7"/>
<use href="#t6c984122" x="528.1" y="360.5"/>
<use href="#t6c984120" x="228" y="362.2"/>
<use href="#t6c984120" x="632.9" y="363.3"/>
<use href="#t6c984120" x="190.7" y="363.5"/>
<use href="#t6c984122" x="282.6" y="364.6"/>
<use href="#t6c984122" x="619.8" y="364.8"/>
<use href="#t6c984121" x="215.9" y="364.8"/>
<use href="#t6c984122" x="609.1" y="365.3"/>
<use href="#t6c984121" x="411.1" y="367.1"/>
<use href="#t6c984120" x="582.4" y="368.9"/>
<use href="#t6c984121" x="387.2" y="369.4"/>
<use href="#t6c984121" x="543" y="375"/>
<use href="#t6c984120" x="198" y="376.2"/>
<use href="#t6c984120" x="564" y="377.5"/>
<use href="#t6c984122" x="511.4" y="378"/>
<use href="#t6c984122" x="578.3" y="379.2"/>
<use href="#t6c984121" x="611.2" y="383"/>
<use href="#t6c984120" x="227" y="383"/>
<use href="#t6c984120" x="393" y="384"/>
<use href="#t6c984122" x="261.2" y="384.1"/>
<use href="#t6c984121" x="425.5" y="385"/>
<use href="#t6c984122" x="203.3" y="385.8"/>
<use href="#t6c984120" x="496.9" y="385.8"/>
<use href="#t6c984120" x="630" y="389.7"/>
<use href="#t6c984122" x="548.4" y="392.4"/>
<use href="#t6c984120" x="571.3" y="392.7"/>
<use href="#t6c984122" x="215.5" y="393.5"/>
<use href="#t6c984122" x="606.9" y="395.9"/>
<use href="#t6c984120" x="618.9" y="396.6"/>
<use href="#t6c984121" x="503.2" y="397.1"/>
<use href="#t6c984120" x="231.3" y="398.5"/>
<use href="#t6c984122" x="433.5" y="398.7"/>
<use href="#t6c984122" x="450" y="401.6"/>
<use href="#t6c984121" x="488.2" y="403.6"/>
<use href="#t6c984121" x="530.1" y="403.7"/>
<use href="#t6c984121" x="461.7" y="404.8"/>
<use href="#t6c984121" x="209.4" y="405.2"/>
<use href="#t6c984121" x="627.5" y="405.8"/>
<use href="#t6c984121" x="261" y="405.8"/>
<use href="#t6c984120" x="516.3" y="410.2"/>
<use href="#t6c984121" x="239.1" y="410.6"/>
<use href="#t6c984122" x="219.8" y="411.9"/>
<use href="#t6c984120" x="567.9" y="412.2"/>
<use href="#t6c984120" x="614.9" y="412.5"/>
<use href="#t6c984121" x="542.6" y="412.7"/>
<use href="#t6c984122" x="429.9" y="413.3"/>
<use href="#t6c984122" x="450.4" y="413.5"/>
<use href="#t6c984120" x="492.5" y="414"/>
<use href="#t6c984121" x="557.1" y="417.4"/>
<use href="#t6c984122" x="601.4" y="419.9"/>
<use href="#t6c984120" x="587.5" y="420.2"/>
<use href="#t6c984121" x="234.9" y="420.7"/>
<use href="#t6c984122" x="258.9" y="420.7"/>
<use href="#t6c984121" x="507.4" y="421.3"/>
<use href="#t6c984122" x="248.4" y="425"/>
<use href="#t6c984122" x="409.9" y="426.1"/>
<use href="#t6c984120" x="539" y="427.2"/>
<use href="#t6c984122" x="420.2" y="429.1"/>
<use href="#t6c984120" x="465" y="430"/>
<use href="#t6c984121" x="572.2" y="430.1"/>
<use href="#t6c984122" x="554" y="430.2"/>
<use href="#t6c984122" x="520.9" y="437.5"/>
<use href="#t6c984121" x="238.7" y="440.2"/>
<use href="#t6c984120" x="543.3" y="440.6"/>
<use href="#t6c984121" x="485.4" y="442.3"/>
<use href="#t6c984120" x="559.1" y="442.8"/>
<use href="#t6c984122" x="474.2" y="444.3"/>
<use href="#t6c984122" x="457.4" y="445.4"/>
<use href="#t6c984120" x="253.2" y="446.6"/>
<use href="#t6c984121" x="440" y="447.3"/>
<use href="#t6c984121" x="527.4" y="450.9"/>
<use href="#t6c984122" x="263.5" y="452.6"/>
<use href="#t6c984120" x="470.8" y="455.8"/>
<use href="#t6c984121" x="539.5" y="457.1"/>
<use href="#t6c984121" x="506.3" y="457.3"/>
<use href="#t6c984120" x="553.4" y="458.6"/>
<use href="#t6c984121" x="523.4" y="461.1"/>
<use href="#t6c984120" x="478.8" y="462.5"/>
<use href="#t6c984120" x="262.1" y="463.1"/>
<use href="#t6c984120" x="495" y="463.1"/>
<use href="#t6c984120" x="407.2" y="463.8"/>
<use href="#t6c984121" x="565.8" y="463.9"/>
<use href="#t6c984120" x="249.1" y="464.6"/>
<use href="#t6c984122" x="219.8" y="465.3"/>
<use href="#t6c984122" x="454.6" y="469.5"/>
<use href="#t6c984121" x="273.6" y="473.4"/>
<use href="#t6c984120" x="479.3" y="473.9"/>
<use href="#t6c984122" x="378.1" y="474.4"/>
<use href="#t6c984122" x="507.7" y="474.8"/>
<use href="#t6c984121" x="406.5" y="477.5"/>
<use href="#t6c984122" x="231.8" y="478.4"/>
<use href="#t6c984120" x="528.9" y="481.5"/>
<use href="#t6c984122" x="485" y="485.2"/>
<use href="#t6c984120" x="380.9" y="490.7"/>
<use href="#t6c984122" x="461.8" y="491.4"/>
<use href="#t6c984120" x="541.5" y="492.1"/>
<use href="#t6c984121" x="367.6" y="492.7"/>
<use href="#t6c984122" x="309.1" y="493"/>
<use href="#t6c984120" x="503" y="493.1"/>
<use href="#t6c984122" x="284.5" y="493.9"/>
<use href="#t6c984122" x="523" y="497.3"/>
<use href="#t6c984122" x="402.7" y="498.4"/>
<use href="#t6c984121" x="429.9" y="498.4"/>
<use href="#t6c984121" x="492.1" y="499.1"/>
<use href="#t6c984122" x="452.2" y="501.3"/>
<use href="#t6c984122" x="345.7" y="502.2"/>
<use href="#t6c984121" x="307.8" y="504.4"/>
<use href="#t6c984122" x="484.5" y="507.5"/>
<use href="#t6c984120" x="409.5" y="509.1"/>
<use href="#t6c984121" x="295.9" y="511.4"/>
<use href="#t6c984122" x="472.5" y="511.9"/>
<use href="#t6c984120" x="430.9" y="514.6"/>
<use href="#t6c984122" x="441.5" y="516.9"/>
<use href="#t6c984120" x="338.7" y="517.5"/>
<use href="#t6c984122" x="370.1" y="520.6"/>
<use href="#t6c984121" x="409.2" y="521.9"/>
<use href="#t6c984121" x="395.5" y="524"/>
<use href="#t6c984120" x="343.7" y="526.6"/>
<use href="#t6c984120" x="387.3" y="532.4"/>
</g>
<g>
<path d="M520.6,397.5 v-12 l5,-4 l4,6 l6,-8 l4.5,6 v12 Z" fill="#a39a88" stroke="#2e2618" stroke-width="1"/>
<path d="M359.1,319.9 v-12 l5,-4 l4,6 l6,-8 l12.3,6 v12 Z" fill="#a39a88" stroke="#2e2618" stroke-width="1"/>
<path d="M501,276.3 v-12 l5,-4 l4,6 l6,-8 l12.2,6 v12 Z" fill="#a39a88" stroke="#2e2618" stroke-width="1"/>
<path d="M412.9,330.8 v-12 l5,-4 l4,6 l6,-8 l5.2,6 v12 Z" fill="#a39a88" stroke="#2e2618" stroke-width="1"/>
<path d="M549.3,346.1 v-12 l5,-4 l4,6 l6,-8 l2.9,6 v12 Z" fill="#a39a88" stroke="#2e2618" stroke-width="1"/>
<path d="M494.1,379.4 v-12 l5,-4 l4,6 l6,-8 l4.4,6 v12 Z" fill="#a39a88" stroke="#2e2618" stroke-width="1"/>
<path d="M475.6,358.3 v-12 l5,-4 l4,6 l6,-8 l6.9,6 v12 Z" fill="#a39a88" stroke="#2e2618" stroke-width="1"/>
<path d="M434.2,384.9 v-12 l5,-4 l4,6 l6,-8 l4.2,6 v12 Z" fill="#a39a88" stroke="#2e2618" stroke-width="1"/>
<path d="M488.6,334 v-12 l5,-4 l4,6 l6,-8 l7.9,6 v12 Z" fill="#a39a88" stroke="#2e2618" stroke-width="1"/>
<path d="M538,264.2 v-12 l5,-4 l4,6 l6,-8 l5.2,6 v12 Z" fill="#a39a88" stroke="#2e2618" stroke-width="1"/>
<path d="M361.7,397.6 v-12 l5,-4 l4,6 l6,-8 l7.7,6 v12 Z" fill="#a39a88" stroke="#2e2618" stroke-width="1"/>
<path d="M367.8,360.4 v-12 l5,-4 l4,6 l6,-8 l4,6 v12 Z" fill="#a39a88" stroke="#2e2618" stroke-width="1"/>
<path d="M583.5,267.9 v-12 l5,-4 l4,6 l6,-8 l1.1,6 v12 Z" fill="#a39a88" stroke="#2e2618" stroke-width="1"/>
<path d="M529.1,291.3 v-12 l5,-4 l4,6 l6,-8 l6.1,6 v12 Z" fill="#a39a88" stroke="#2e2618" stroke-width="1"/>
<path d="M407.4,357.9 v-12 l5,-4 l4,6 l6,-8 l11,6 v12 Z" fill="#a39a88" stroke="#2e2618" stroke-width="1"/>
<path d="M481.7,258.1 v-12 l5,-4 l4,6 l6,-8 l12.8,6 v12 Z" fill="#a39a88" stroke="#2e2618" stroke-width="1"/>
<path d="M469.4,291 v-12 l5,-4 l4,6 l6,-8 l10.4,6 v12 Z" fill="#a39a88" stroke="#2e2618" stroke-width="1"/>
<path d="M568.9,320.6 v-12 l5,-4 l4,6 l6,-8 l14.6,6 v12 Z" fill="#a39a88" stroke="#2e2618" stroke-width="1"/>
<path d="M470.2,231.2 v-12 l5,-4 l4,6 l6,-8 l13.8,6 v12 Z" fill="#a39a88" stroke="#2e2618" stroke-width="1"/>
<path d="M389.5,377.9 v-12 l5,-4 l4,6 l6,-8 l5.3,6 v12 Z" fill="#a39a88" stroke="#2e2618" stroke-width="1"/>
<path d="M471.9,406.1 v-12 l5,-4 l4,6 l6,-8 l12.2,6 v12 Z" fill="#a39a88" stroke="#2e2618" stroke-width="1"/>
<path d="M519.5,231.6 v-12 l5,-4 l4,6 l6,-8 l12.1,6 v12 Z" fill="#a39a88" stroke="#2e2618" stroke-width="1"/>
<path d="M367.7,237.4 v-12 l5,-4 l4,6 l6,-8 l14.8,6 v12 Z" fill="#a39a88" stroke="#2e2618" stroke-width="1"/>
<path d="M564.2,368.4 v-12 l5,-4 l4,6 l6,-8 l13.5,6 v12 Z" fill="#a39a88" stroke="#2e2618" stroke-width="1"/>
<path d="M397.8,234.6 v-12 l5,-4 l4,6 l6,-8 l10.1,6 v12 Z" fill="#a39a88" stroke="#2e2618" stroke-width="1"/>
<path d="M431.2,231.9 v-12 l5,-4 l4,6 l6,-8 l10.7,6 v12 Z" fill="#a39a88" stroke="#2e2618" stroke-width="1"/>
</g>
<circle cx="470" cy="320" r="44" fill="none" stroke="#b9ab90" stroke-width="10" opacity="0.8"/>
<path d="M500,320 C499.7,321 499.2,324 498.4,325.8 C497.5,327.6 496.3,329.4 494.9,331 C493.4,332.5 491.6,334 489.7,335.2 C487.8,336.4 485.7,337.4 483.5,338.2 C481.2,338.9 478.8,339.5 476.5,339.7 C474.1,340 471.7,340.1 469.4,339.9 C467,339.7 464.7,339.3 462.6,338.7 C460.5,338 458.4,337.2 456.6,336.2 C454.8,335.2 453.2,334 451.8,332.7 C450.5,331.4 449.4,329.9 448.5,328.4 C447.7,327 447.2,325.4 446.9,323.8 C446.6,322.3 446.7,320.7 447,319.2 C447.2,317.7 447.8,316.1 448.6,314.8 C449.4,313.4 450.5,312.1 451.7,311 C452.9,309.9 454.3,308.8 455.8,308 C457.4,307.2 459.1,306.5 460.8,306 C462.5,305.6 464.3,305.3 466.1,305.1 C467.9,305 469.7,305.1 471.4,305.3 C473.1,305.6 474.8,306 476.3,306.5 C477.8,307.1 479.3,307.8 480.5,308.6 C481.7,309.4 482.8,310.4 483.7,311.4 C484.5,312.3 485.2,313.4 485.7,314.5 C486.2,315.6 486.4,316.8 486.5,317.9 C486.6,319 486.4,320.1 486.1,321.2 C485.8,322.2 485.2,323.2 484.6,324.1 C483.9,325 483.1,325.9 482.1,326.6 C481.2,327.3 480.1,327.9 479,328.4 C477.9,328.9 476.7,329.3 475.5,329.5 C474.3,329.8 473.1,329.9 471.9,329.8 C470.7,329.8 469.6,329.7 468.5,329.4 C467.4,329.2 466.3,328.8 465.4,328.4 C464.5,328 463.7,327.4 463,326.9 C462.3,326.3 461.7,325.6 461.3,325 C460.9,324.3 460.6,323.6 460.4,322.9 C460.2,322.3 460.2,321.5 460.3,320.9 C460.3,320.2 460.6,319.6 460.9,319 C461.2,318.4 461.6,317.9 462.1,317.4 C462.5,316.9 463.1,316.5 463.7,316.2 C464.3,315.9 465,315.6 465.6,315.4 C466.2,315.3 466.9,315.2 467.5,315.1 C468.2,315.1 468.8,315.2 469.4,315.3 C470,315.4 470.5,315.5 471,315.7 C471.4,315.9 471.9,316.2 472.2,316.5 C472.5,316.7 472.8,317.1 473,317.4 C473.2,317.7 473.3,318 473.3,318.3 C473.4,318.6 473.3,318.9 473.3,319.1 C473.2,319.4 473,319.6 472.9,319.8 C472.7,320 472.5,320.2 472.3,320.3 C472,320.5 471.8,320.5 471.6,320.6 C471.3,320.6 471.1,320.6 470.9,320.6 C470.7,320.5 470.5,320.5 470.3,320.4 C470.2,320.3 470.1,320.1 470,320" fill="none" stroke="#b03a2e" stroke-width="5" stroke-linecap="round" opacity="0.95"/>
<path d="M318,438 h26 M322,432 h18 M325,432 v16 M337,432 v16" stroke="#b03a2e" stroke-width="3"/>
<text x="800" y="620" font-family="Georgia, 'Times New Roman', serif" font-size="16" font-weight="bold" fill="#0f2f3c" text-anchor="middle" letter-spacing="5" stroke="#cfe8ef" stroke-width="3.52" stroke-linejoin="round" paint-order="stroke">UZU NO KUNI</text>
<text x="800" y="635.2" font-family="Georgia, 'Times New Roman', serif" font-size="7.2" font-weight="normal" fill="#0f2f3c" text-anchor="middle" font-style="italic" opacity="0.9" stroke="#cfe8ef" stroke-width="3" stroke-linejoin="round" paint-order="stroke">Land of Whirlpools</text>
<rect x="15" y="12" width="310" height="92" rx="6" fill="#2a2116" fill-opacity="0.92" stroke="#c9a85a" stroke-width="3"/>
<rect x="21" y="18" width="298" height="80" rx="3" fill="none" stroke="#c9a85a" stroke-width="1" opacity="0.7"/>
<text x="170" y="51.5" font-family="Georgia, 'Times New Roman', serif" font-size="28" font-weight="bold" fill="#f6e9c8" text-anchor="middle" letter-spacing="3">Uzushiogakure</text>
<text x="170" y="85.1" font-family="'Hiragino Mincho ProN', 'Yu Mincho', 'Noto Serif CJK JP', 'Noto Serif JP', serif" font-size="15.4" font-weight="normal" fill="#f6e9c8" text-anchor="middle" letter-spacing="1">渦潮隠れの里</text>
<text x="170" y="103.6" font-family="Georgia, 'Times New Roman', serif" font-size="11.8" font-weight="normal" fill="#f6e9c8" text-anchor="middle" letter-spacing="1" font-style="italic">Villaggio dei Vortici · Hidden Whirlpool</text>
<g stroke="#2e2618" stroke-width="1.4" stroke-linejoin="round">
<circle cx="944" cy="70" r="23" fill="#f3ead2" fill-opacity="0.75"/>
<circle cx="944" cy="70" r="19.2" fill="none" stroke-dasharray="2 3"/>
<path d="M944,70 L938.9,70 L944,38 Z" fill="#f3ead2"/>
<path d="M944,70 L949.1,70 L944,38 Z" fill="#c0392b"/>
<path d="M944,70 L941.3,67.3 L958,56 Z" fill="#f3ead2"/>
<path d="M944,70 L946.7,72.7 L958,56 Z" fill="#2e2618"/>
<path d="M944,70 L944,64.9 L976,70 Z" fill="#f3ead2"/>
<path d="M944,70 L944,75.1 L976,70 Z" fill="#2e2618"/>
<path d="M944,70 L946.7,67.3 L958,84 Z" fill="#f3ead2"/>
<path d="M944,70 L941.3,72.7 L958,84 Z" fill="#2e2618"/>
<path d="M944,70 L949.1,70 L944,102 Z" fill="#f3ead2"/>
<path d="M944,70 L938.9,70 L944,102 Z" fill="#2e2618"/>
<path d="M944,70 L946.7,72.7 L930,84 Z" fill="#f3ead2"/>
<path d="M944,70 L941.3,67.3 L930,84 Z" fill="#2e2618"/>
<path d="M944,70 L944,75.1 L912,70 Z" fill="#f3ead2"/>
<path d="M944,70 L944,64.9 L912,70 Z" fill="#2e2618"/>
<path d="M944,70 L941.3,72.7 L930,56 Z" fill="#f3ead2"/>
<path d="M944,70 L946.7,67.3 L930,56 Z" fill="#2e2618"/>
<circle cx="944" cy="70" r="2.6" fill="#2e2618"/>
</g>
<text x="944" y="32" font-family="Georgia, 'Times New Roman', serif" font-size="13.4" font-weight="bold" fill="#2e2618" text-anchor="middle" stroke="#f3ead2" stroke-width="3" stroke-linejoin="round" paint-order="stroke">N</text>
</svg>
