<svg xmlns="http://www.w3.org/2000/svg" width="1200" height="800" viewBox="0 0 1200 800">
<title>Dawn Island · ドーン島</title>
<!-- Ricostruzione originale AniMapVerse · CC0 · non è materiale ufficiale di One Piece -->
<defs><linearGradient id="seaG" x1="0" y1="0" x2="0" y2="1"><stop offset="0" stop-color="#62b6dc"/><stop offset="1" stop-color="#3d8fc2"/></linearGradient><symbol id="t96452a780" overflow="visible"><g stroke="#1f3418" stroke-width="0.9" stroke-linejoin="round"><ellipse cx="2.3" cy="1.4" rx="9" ry="5" fill="#245a20" stroke="none" opacity="0.45"/><circle cx="0" cy="-5.4" r="9" fill="#3f8a3a"/><circle cx="-2.7" cy="-8.6" r="3.4" fill="#6fc060" stroke="none" opacity="0.8"/></g></symbol><symbol id="t96452a781" overflow="visible"><g stroke="#1f3418" stroke-width="0.9" stroke-linejoin="round"><ellipse cx="2.8" cy="1.6" rx="11" ry="6.1" fill="#245a20" stroke="none" opacity="0.45"/><circle cx="0" cy="-6.6" r="11" fill="#3f8a3a"/><circle cx="-3.3" cy="-10.4" r="4.2" fill="#6fc060" stroke="none" opacity="0.8"/></g></symbol><symbol id="t96452a782" overflow="visible"><g stroke="#1f3418" stroke-width="0.9" stroke-linejoin="round"><ellipse cx="3.2" cy="1.9" rx="13" ry="7.1" fill="#245a20" stroke="none" opacity="0.45"/><circle cx="0" cy="-7.8" r="13" fill="#3f8a3a"/><circle cx="-3.9" cy="-12.3" r="4.9" fill="#6fc060" stroke="none" opacity="0.8"/></g></symbol></defs>
<rect width="1200" height="800" fill="url(#seaG)"/>
<g fill="none" stroke="#ffffff" stroke-width="2" stroke-linecap="round" opacity="0.6">
<path d="M323.6,109.7 q7.4,-6.6 14.8,0 q7.4,6.6 14.8,0"/>
<path d="M18.5,126.9 q10.3,-9.3 20.7,0 q10.3,9.3 20.7,0"/>
<path d="M74.2,396.9 q9.9,-8.9 19.7,0 q9.9,8.9 19.7,0"/>
<path d="M689.3,730.6 q9,-8.1 18.1,0 q9,8.1 18.1,0"/>
<path d="M564.2,75.6 q9.9,-8.9 19.7,0 q9.9,8.9 19.7,0"/>
<path d="M830.4,709 q10,-9 20.1,0 q10,9 20.1,0"/>
<path d="M1018,197.1 q9.9,-8.9 19.9,0 q9.9,8.9 19.9,0"/>
<path d="M56.5,33.3 q7.5,-6.7 15,0 q7.5,6.7 15,0"/>
<path d="M294.3,714.2 q9.5,-8.6 19.1,0 q9.5,8.6 19.1,0"/>
<path d="M853.9,760 q9.2,-8.3 18.5,0 q9.2,8.3 18.5,0"/>
<path d="M1137.8,717.5 q7.3,-6.6 14.7,0 q7.3,6.6 14.7,0"/>
<path d="M749.3,37.9 q6,-5.4 12,0 q6,5.4 12,0"/>
<path d="M164.5,744.9 q10,-9 20.1,0 q10,9 20.1,0"/>
<path d="M898.4,776.3 q6.8,-6.1 13.7,0 q6.8,6.1 13.7,0"/>
<path d="M6.9,248.1 q8.1,-7.3 16.3,0 q8.1,7.3 16.3,0"/>
<path d="M45,287.3 q9.4,-8.5 18.8,0 q9.4,8.5 18.8,0"/>
<path d="M35.4,407.4 q9.1,-8.2 18.2,0 q9.1,8.2 18.2,0"/>
<path d="M109.2,285.2 q6.3,-5.7 12.7,0 q6.3,5.7 12.7,0"/>
<path d="M1117.1,474.4 q7.6,-6.9 15.3,0 q7.6,6.9 15.3,0"/>
<path d="M1103.6,198.6 q8.6,-7.7 17.2,0 q8.6,7.7 17.2,0"/>
<path d="M87.2,737 q6.2,-5.6 12.5,0 q6.2,5.6 12.5,0"/>
<path d="M1095.4,508.6 q6.2,-5.6 12.3,0 q6.2,5.6 12.3,0"/>
<path d="M960.7,721.1 q6.8,-6.2 13.7,0 q6.8,6.2 13.7,0"/>
<path d="M85.9,216.9 q9.9,-8.9 19.8,0 q9.9,8.9 19.8,0"/>
<path d="M1029.7,643.5 q6.4,-5.7 12.8,0 q6.4,5.7 12.8,0"/>
<path d="M26.9,634.8 q10.3,-9.2 20.5,0 q10.3,9.2 20.5,0"/>
<path d="M811.5,781 q6.5,-5.8 12.9,0 q6.5,5.8 12.9,0"/>
<path d="M1160.9,340.1 q6.1,-5.5 12.3,0 q6.1,5.5 12.3,0"/>
<path d="M97.8,433.2 q8.6,-7.7 17.2,0 q8.6,7.7 17.2,0"/>
<path d="M985.9,170.8 q9.1,-8.2 18.2,0 q9.1,8.2 18.2,0"/>
<path d="M500.4,752.9 q10.3,-9.3 20.7,0 q10.3,9.3 20.7,0"/>
<path d="M594.8,16.3 q5.7,-5.1 11.3,0 q5.7,5.1 11.3,0"/>
<path d="M58.6,154.4 q7.4,-6.7 14.8,0 q7.4,6.7 14.8,0"/>
<path d="M571.7,757.7 q6.9,-6.3 13.9,0 q6.9,6.3 13.9,0"/>
<path d="M1124.1,300.5 q9.7,-8.7 19.4,0 q9.7,8.7 19.4,0"/>
<path d="M87.2,249.2 q8.8,-7.9 17.6,0 q8.8,7.9 17.6,0"/>
<path d="M641.9,101 q7,-6.3 14,0 q7,6.3 14,0"/>
<path d="M8.8,653.1 q8.1,-7.3 16.3,0 q8.1,7.3 16.3,0"/>
<path d="M1137.3,274.5 q9.7,-8.8 19.4,0 q9.7,8.8 19.4,0"/>
<path d="M700.8,75.6 q9.2,-8.3 18.4,0 q9.2,8.3 18.4,0"/>
<path d="M349.7,33.8 q8.1,-7.3 16.1,0 q8.1,7.3 16.1,0"/>
<path d="M1160,31.1 q6.4,-5.7 12.8,0 q6.4,5.7 12.8,0"/>
<path d="M1093.7,685.1 q8.4,-7.6 16.8,0 q8.4,7.6 16.8,0"/>
<path d="M1080.1,781.9 q6.7,-6 13.3,0 q6.7,6 13.3,0"/>
<path d="M656.4,45.3 q10.1,-9.1 20.3,0 q10.1,9.1 20.3,0"/>
<path d="M1137.2,369.6 q8.7,-7.8 17.3,0 q8.7,7.8 17.3,0"/>
<path d="M1026.8,42.8 q5.7,-5.2 11.5,0 q5.7,5.2 11.5,0"/>
<path d="M264.3,720.1 q8.9,-8 17.8,0 q8.9,8 17.8,0"/>
<path d="M1107.9,374.5 q7.2,-6.5 14.5,0 q7.2,6.5 14.5,0"/>
<path d="M1055,614.2 q9.4,-8.4 18.7,0 q9.4,8.4 18.7,0"/>
<path d="M900.8,749.1 q6.2,-5.5 12.3,0 q6.2,5.5 12.3,0"/>
<path d="M1159.7,220.2 q6.8,-6.2 13.7,0 q6.8,6.2 13.7,0"/>
<path d="M561.2,108.7 q9.5,-8.6 19,0 q9.5,8.6 19,0"/>
<path d="M500.7,56.9 q6,-5.4 12.1,0 q6,5.4 12.1,0"/>
<path d="M95.2,149 q8.7,-7.8 17.4,0 q8.7,7.8 17.4,0"/>
<path d="M9.3,393.9 q9.3,-8.3 18.5,0 q9.3,8.3 18.5,0"/>
<path d="M786.3,100.5 q9.8,-8.8 19.6,0 q9.8,8.8 19.6,0"/>
<path d="M1002.4,710.2 q8.4,-7.6 16.8,0 q8.4,7.6 16.8,0"/>
<path d="M48.9,708.1 q6.6,-5.9 13.2,0 q6.6,5.9 13.2,0"/>
<path d="M1085.8,269.8 q6.5,-5.8 12.9,0 q6.5,5.8 12.9,0"/>
<path d="M908.4,116.2 q8.3,-7.5 16.7,0 q8.3,7.5 16.7,0"/>
<path d="M547.8,732.8 q5.7,-5.1 11.4,0 q5.7,5.1 11.4,0"/>
<path d="M1161.1,76.2 q8.7,-7.8 17.4,0 q8.7,7.8 17.4,0"/>
<path d="M84.8,593.5 q9.1,-8.2 18.2,0 q9.1,8.2 18.2,0"/>
<path d="M83.9,178.6 q7.6,-6.8 15.1,0 q7.6,6.8 15.1,0"/>
<path d="M712.4,108.5 q10.3,-9.3 20.6,0 q10.3,9.3 20.6,0"/>
<path d="M767.6,758.7 q8.3,-7.5 16.6,0 q8.3,7.5 16.6,0"/>
<path d="M1009.5,580.9 q8.9,-8 17.9,0 q8.9,8 17.9,0"/>
<path d="M158,617 q10.2,-9.1 20.3,0 q10.2,9.1 20.3,0"/>
<path d="M1109.8,324 q8.3,-7.5 16.7,0 q8.3,7.5 16.7,0"/>
<path d="M179.5,75.4 q6.5,-5.9 13,0 q6.5,5.9 13,0"/>
<path d="M73.9,118.6 q7.8,-7 15.6,0 q7.8,7 15.6,0"/>
<path d="M32.1,763.1 q7.4,-6.7 14.8,0 q7.4,6.7 14.8,0"/>
<path d="M-7.5,475.7 q10.2,-9.1 20.3,0 q10.2,9.1 20.3,0"/>
<path d="M399.7,37.3 q6.6,-6 13.3,0 q6.6,6 13.3,0"/>
<path d="M1160.8,673.6 q10.1,-9.1 20.2,0 q10.1,9.1 20.2,0"/>
<path d="M718,731.2 q9.7,-8.8 19.5,0 q9.7,8.8 19.5,0"/>
<path d="M1134.8,781.1 q8.8,-7.9 17.7,0 q8.8,7.9 17.7,0"/>
<path d="M757.3,784.4 q8,-7.2 16.1,0 q8,7.2 16.1,0"/>
<path d="M935.2,753.8 q9.4,-8.5 18.8,0 q9.4,8.5 18.8,0"/>
<path d="M1132.1,642.2 q7.4,-6.6 14.7,0 q7.4,6.6 14.7,0"/>
<path d="M186.2,27.6 q9.4,-8.4 18.8,0 q9.4,8.4 18.8,0"/>
<path d="M754.9,706.9 q5.8,-5.3 11.7,0 q5.8,5.3 11.7,0"/>
<path d="M601.8,124.7 q7.3,-6.6 14.6,0 q7.3,6.6 14.6,0"/>
<path d="M1017.4,755.9 q6.3,-5.7 12.6,0 q6.3,5.7 12.6,0"/>
<path d="M1056.9,176.6 q8.5,-7.6 17,0 q8.5,7.6 17,0"/>
<path d="M194.7,724.4 q6.9,-6.2 13.8,0 q6.9,6.2 13.8,0"/>
<path d="M972.3,43.1 q6.9,-6.2 13.7,0 q6.9,6.2 13.7,0"/>
<path d="M876.7,11 q7.4,-6.6 14.8,0 q7.4,6.6 14.8,0"/>
<path d="M869.7,46.8 q6.9,-6.2 13.7,0 q6.9,6.2 13.7,0"/>
<path d="M326.2,748 q6,-5.4 12,0 q6,5.4 12,0"/>
<path d="M45.8,325.5 q8.7,-7.8 17.4,0 q8.7,7.8 17.4,0"/>
<path d="M699.3,764.1 q6.9,-6.2 13.9,0 q6.9,6.2 13.9,0"/>
<path d="M361.5,778.3 q6.5,-5.8 13,0 q6.5,5.8 13,0"/>
<path d="M939.3,26.6 q8.8,-7.9 17.6,0 q8.8,7.9 17.6,0"/>
<path d="M741.7,79.2 q7.2,-6.5 14.5,0 q7.2,6.5 14.5,0"/>
<path d="M784.3,60.4 q6.2,-5.6 12.3,0 q6.2,5.6 12.3,0"/>
<path d="M197.9,208.8 q7,-6.3 13.9,0 q7,6.3 13.9,0"/>
<path d="M290.4,27.2 q5.9,-5.3 11.8,0 q5.9,5.3 11.8,0"/>
<path d="M473.7,35.4 q10.4,-9.3 20.7,0 q10.4,9.3 20.7,0"/>
<path d="M134.6,91.8 q9,-8.1 18.1,0 q9,8.1 18.1,0"/>
<path d="M386.5,776.5 q10,-9 20,0 q10,9 20,0"/>
<path d="M296.3,66.7 q8.2,-7.4 16.4,0 q8.2,7.4 16.4,0"/>
<path d="M1162.9,120.5 q8.8,-7.9 17.6,0 q8.8,7.9 17.6,0"/>
<path d="M67.5,453.6 q9.9,-8.9 19.7,0 q9.9,8.9 19.7,0"/>
<path d="M121.7,625.5 q8,-7.2 16.1,0 q8,7.2 16.1,0"/>
<path d="M861.3,105.1 q6.2,-5.6 12.4,0 q6.2,5.6 12.4,0"/>
<path d="M174.6,267 q7,-6.3 14,0 q7,6.3 14,0"/>
<path d="M206.8,664 q7.1,-6.4 14.3,0 q7.1,6.4 14.3,0"/>
<path d="M468.1,61.2 q6.7,-6.1 13.5,0 q6.7,6.1 13.5,0"/>
<path d="M5.4,187.5 q8.2,-7.4 16.5,0 q8.2,7.4 16.5,0"/>
<path d="M1106.7,53.7 q10.1,-9.1 20.2,0 q10.1,9.1 20.2,0"/>
<path d="M984.7,94.3 q10,-9 19.9,0 q10,9 19.9,0"/>
<path d="M373,85.7 q6.8,-6.1 13.6,0 q6.8,6.1 13.6,0"/>
<path d="M164.6,221.9 q7.6,-6.8 15.1,0 q7.6,6.8 15.1,0"/>
<path d="M259.2,34.2 q6.4,-5.8 12.9,0 q6.4,5.8 12.9,0"/>
<path d="M220.4,115.8 q10.3,-9.2 20.5,0 q10.3,9.2 20.5,0"/>
<path d="M28.6,213.3 q6.8,-6.1 13.6,0 q6.8,6.1 13.6,0"/>
<path d="M86.2,350.7 q9,-8.1 18,0 q9,8.1 18,0"/>
<path d="M1099.3,410.7 q9.8,-8.8 19.6,0 q9.8,8.8 19.6,0"/>
<path d="M919.2,677.2 q6.7,-6 13.4,0 q6.7,6 13.4,0"/>
<path d="M1038.3,544.1 q6.2,-5.5 12.3,0 q6.2,5.5 12.3,0"/>
<path d="M9,333.7 q9.6,-8.6 19.1,0 q9.6,8.6 19.1,0"/>
<path d="M829.8,83.9 q6.2,-5.6 12.4,0 q6.2,5.6 12.4,0"/>
<path d="M109.5,573.8 q7,-6.3 14,0 q7,6.3 14,0"/>
<path d="M1177.2,525.5 q6.2,-5.6 12.4,0 q6.2,5.6 12.4,0"/>
<path d="M48.4,517.6 q8.2,-7.4 16.3,0 q8.2,7.4 16.3,0"/>
<path d="M977.5,143.5 q5.9,-5.3 11.9,0 q5.9,5.3 11.9,0"/>
<path d="M751.9,734.3 q8.5,-7.7 17.1,0 q8.5,7.7 17.1,0"/>
<path d="M1089.8,148.9 q8.7,-7.8 17.3,0 q8.7,7.8 17.3,0"/>
<path d="M400.5,82.4 q8.6,-7.7 17.2,0 q8.6,7.7 17.2,0"/>
<path d="M152.9,652.5 q9.6,-8.6 19.1,0 q9.6,8.6 19.1,0"/>
<path d="M34.8,19.4 q6.3,-5.7 12.7,0 q6.3,5.7 12.7,0"/>
<path d="M76,657.4 q6.5,-5.8 12.9,0 q6.5,5.8 12.9,0"/>
<path d="M1167.9,589.1 q8.2,-7.4 16.4,0 q8.2,7.4 16.4,0"/>
<path d="M970.1,639.9 q10.3,-9.3 20.7,0 q10.3,9.3 20.7,0"/>
<path d="M15.1,537.7 q9.6,-8.6 19.2,0 q9.6,8.6 19.2,0"/>
<path d="M34,65.1 q9.5,-8.5 18.9,0 q9.5,8.5 18.9,0"/>
<path d="M246.2,76 q7.5,-6.8 15,0 q7.5,6.8 15,0"/>
<path d="M166.7,152.5 q5.6,-5.1 11.3,0 q5.6,5.1 11.3,0"/>
<path d="M1094.8,548.2 q10.3,-9.2 20.5,0 q10.3,9.2 20.5,0"/>
<path d="M233.8,168.9 q10,-9 19.9,0 q10,9 19.9,0"/>
<path d="M-7,221.8 q9.9,-8.9 19.8,0 q9.9,8.9 19.8,0"/>
<path d="M403.8,110.2 q5.8,-5.3 11.7,0 q5.8,5.3 11.7,0"/>
<path d="M881.6,674.1 q6,-5.4 12,0 q6,5.4 12,0"/>
<path d="M1172.1,561.6 q7.3,-6.6 14.7,0 q7.3,6.6 14.7,0"/>
<path d="M1117.7,89.7 q9.2,-8.3 18.5,0 q9.2,8.3 18.5,0"/>
<path d="M126.3,361.2 q9,-8.1 18,0 q9,8.1 18,0"/>
<path d="M76,765.4 q8.1,-7.3 16.3,0 q8.1,7.3 16.3,0"/>
<path d="M2.7,369.6 q5.6,-5.1 11.3,0 q5.6,5.1 11.3,0"/>
<path d="M1155.7,152.6 q5.8,-5.2 11.5,0 q5.8,5.2 11.5,0"/>
<path d="M974.1,765.3 q7.3,-6.6 14.6,0 q7.3,6.6 14.6,0"/>
<path d="M443.5,755.8 q10,-9 19.9,0 q10,9 19.9,0"/>
<path d="M107.9,106.8 q9.6,-8.7 19.2,0 q9.6,8.7 19.2,0"/>
<path d="M1043.4,91.4 q9.9,-8.9 19.8,0 q9.9,8.9 19.8,0"/>
<path d="M69.9,550.9 q9.6,-8.6 19.2,0 q9.6,8.6 19.2,0"/>
<path d="M120.4,321.7 q5.9,-5.3 11.9,0 q5.9,5.3 11.9,0"/>
<path d="M1048.9,567.6 q9.7,-8.7 19.3,0 q9.7,8.7 19.3,0"/>
<path d="M1112.5,607.5 q5.6,-5 11.2,0 q5.6,5 11.2,0"/>
<path d="M41.8,456.7 q8.6,-7.8 17.3,0 q8.6,7.8 17.3,0"/>
<path d="M591.4,789.7 q8.9,-8 17.9,0 q8.9,8 17.9,0"/>
<path d="M255.4,775.5 q6.1,-5.4 12.1,0 q6.1,5.4 12.1,0"/>
<path d="M1139.6,191.1 q8.4,-7.5 16.7,0 q8.4,7.5 16.7,0"/>
<path d="M1157.9,399 q9.8,-8.8 19.7,0 q9.8,8.8 19.7,0"/>
<path d="M793.8,753.8 q8.8,-7.9 17.6,0 q8.8,7.9 17.6,0"/>
<path d="M121.6,699 q5.8,-5.3 11.7,0 q5.8,5.3 11.7,0"/>
<path d="M465,730.2 q9.5,-8.6 19.1,0 q9.5,8.6 19.1,0"/>
<path d="M651.4,771 q9,-8.1 17.9,0 q9,8.1 17.9,0"/>
<path d="M862.2,75.8 q7,-6.3 14.1,0 q7,6.3 14.1,0"/>
<path d="M1095.5,85.1 q5.6,-5.1 11.3,0 q5.6,5.1 11.3,0"/>
<path d="M720.8,49.4 q7.5,-6.7 14.9,0 q7.5,6.7 14.9,0"/>
<path d="M90.2,521.6 q5.9,-5.3 11.8,0 q5.9,5.3 11.8,0"/>
<path d="M111.6,40.7 q8.1,-7.3 16.2,0 q8.1,7.3 16.2,0"/>
<path d="M524.5,142.7 q8.6,-7.7 17.2,0 q8.6,7.7 17.2,0"/>
<path d="M966.2,663.8 q5.7,-5.1 11.4,0 q5.7,5.1 11.4,0"/>
<path d="M82.2,479.9 q6.4,-5.8 12.8,0 q6.4,5.8 12.8,0"/>
<path d="M1025.5,682 q6.3,-5.7 12.7,0 q6.3,5.7 12.7,0"/>
<path d="M45.2,662 q6.2,-5.5 12.3,0 q6.2,5.5 12.3,0"/>
<path d="M131.1,758.7 q9.8,-8.8 19.5,0 q9.8,8.8 19.5,0"/>
<path d="M1004.4,72.9 q9.1,-8.2 18.2,0 q9.1,8.2 18.2,0"/>
<path d="M206.9,68.3 q6,-5.4 11.9,0 q6,5.4 11.9,0"/>
<path d="M1053.3,767.4 q6.2,-5.6 12.4,0 q6.2,5.6 12.4,0"/>
<path d="M305.6,784.6 q7.4,-6.7 14.8,0 q7.4,6.7 14.8,0"/>
<path d="M1147,514.1 q7,-6.3 14.1,0 q7,6.3 14.1,0"/>
<path d="M526.5,77.6 q6.7,-6 13.4,0 q6.7,6 13.4,0"/>
<path d="M902.8,704.8 q10.1,-9.1 20.1,0 q10.1,9.1 20.1,0"/>
<path d="M1110.9,248.5 q6.9,-6.2 13.8,0 q6.9,6.2 13.8,0"/>
<path d="M608.7,748.7 q5.6,-5.1 11.3,0 q5.6,5.1 11.3,0"/>
<path d="M40.7,576 q8.6,-7.7 17.1,0 q8.6,7.7 17.1,0"/>
<path d="M138.3,174.2 q8.4,-7.6 16.9,0 q8.4,7.6 16.9,0"/>
<path d="M-4.9,111.7 q7.8,-7 15.6,0 q7.8,7 15.6,0"/>
<path d="M1080.2,716.1 q9,-8.1 18,0 q9,8.1 18,0"/>
<path d="M440.1,42.8 q9,-8.1 17.9,0 q9,8.1 17.9,0"/>
<path d="M436.9,16.6 q6.6,-5.9 13.2,0 q6.6,5.9 13.2,0"/>
<path d="M1082.8,12.5 q8,-7.2 15.9,0 q8,7.2 15.9,0"/>
<path d="M194.4,155.4 q9.6,-8.6 19.1,0 q9.6,8.6 19.1,0"/>
<path d="M136.2,295.6 q9.8,-8.9 19.7,0 q9.8,8.9 19.7,0"/>
<path d="M1073.8,205.4 q5.7,-5.2 11.5,0 q5.7,5.2 11.5,0"/>
<path d="M215.2,23.4 q10.2,-9.2 20.4,0 q10.2,9.2 20.4,0"/>
<path d="M-2.7,67.7 q8.8,-7.9 17.5,0 q8.8,7.9 17.5,0"/>
<path d="M303.8,159.8 q8.3,-7.5 16.6,0 q8.3,7.5 16.6,0"/>
<path d="M448.8,97.5 q7.6,-6.8 15.1,0 q7.6,6.8 15.1,0"/>
<path d="M794.4,36.1 q9.2,-8.3 18.4,0 q9.2,8.3 18.4,0"/>
<path d="M258.5,198.4 q9.9,-8.9 19.8,0 q9.9,8.9 19.8,0"/>
<path d="M107,394.6 q7,-6.3 14.1,0 q7,6.3 14.1,0"/>
<path d="M125.2,520.5 q7.3,-6.6 14.7,0 q7.3,6.6 14.7,0"/>
<path d="M362.3,113 q10.1,-9.1 20.3,0 q10.1,9.1 20.3,0"/>
<path d="M7.7,780.6 q8.6,-7.8 17.3,0 q8.6,7.8 17.3,0"/>
<path d="M680.8,117.7 q8.6,-7.8 17.3,0 q8.6,7.8 17.3,0"/>
<path d="M1077.6,586.1 q6.9,-6.2 13.7,0 q6.9,6.2 13.7,0"/>
<path d="M276.2,96.7 q6.6,-5.9 13.1,0 q6.6,5.9 13.1,0"/>
<path d="M1159.6,450.6 q9.4,-8.5 18.9,0 q9.4,8.5 18.9,0"/>
<path d="M941.2,133.5 q5.9,-5.3 11.8,0 q5.9,5.3 11.8,0"/>
<path d="M352.6,141.7 q8.8,-7.9 17.5,0 q8.8,7.9 17.5,0"/>
<path d="M214.3,751.8 q9.9,-8.9 19.9,0 q9.9,8.9 19.9,0"/>
<path d="M3.3,145.5 q7.8,-7 15.6,0 q7.8,7 15.6,0"/>
<path d="M10.8,581.8 q8.6,-7.7 17.2,0 q8.6,7.7 17.2,0"/>
<path d="M1064.3,139.6 q7.8,-7 15.6,0 q7.8,7 15.6,0"/>
<path d="M49.1,93.9 q8.3,-7.5 16.6,0 q8.3,7.5 16.6,0"/>
<path d="M1128.9,441 q9.7,-8.7 19.4,0 q9.7,8.7 19.4,0"/>
<path d="M270.9,687.4 q7.3,-6.6 14.6,0 q7.3,6.6 14.6,0"/>
<path d="M146.2,115.9 q10.3,-9.3 20.7,0 q10.3,9.3 20.7,0"/>
<path d="M1142.7,245.6 q7.2,-6.4 14.3,0 q7.2,6.4 14.3,0"/>
<path d="M931,789.7 q7,-6.3 14,0 q7,6.3 14,0"/>
<path d="M35.9,370.2 q9.8,-8.8 19.6,0 q9.8,8.8 19.6,0"/>
<path d="M983.5,612.9 q6.8,-6.1 13.5,0 q6.8,6.1 13.5,0"/>
<path d="M160.9,322.9 q6.3,-5.6 12.6,0 q6.3,5.6 12.6,0"/>
<path d="M64.6,237.6 q6.1,-5.5 12.1,0 q6.1,5.5 12.1,0"/>
<path d="M616.4,40.7 q6.3,-5.6 12.5,0 q6.3,5.6 12.5,0"/>
<path d="M83.2,627.9 q8.5,-7.6 17,0 q8.5,7.6 17,0"/>
</g>
<path d="M150,420 C150.5,412.3 159.3,405.7 163,398.1 C166.7,390.5 168.1,381.7 172.2,374.4 C176.3,367.1 182.6,361.1 187.6,354.3 C192.6,347.5 197.6,340.7 202.3,333.6 C206.9,326.5 211.1,319.1 215.4,311.8 C219.6,304.4 224.9,297.4 227.8,289.5 C230.8,281.6 230.8,272.7 232.8,264.5 C234.9,256.2 234.7,245.5 240,240 C245.3,234.5 256.2,234.3 264.4,231.5 C272.5,228.7 280.8,226.2 288.9,223.3 C297,220.5 305,217.4 313.1,214.5 C321.2,211.6 329.4,209 337.5,205.9 C345.5,202.7 353.3,199.1 361.2,195.7 C369.1,192.3 377.2,189.2 384.9,185.4 C392.7,181.5 400,177 407.5,172.8 C415,168.6 420.6,161.2 430,160 C439.4,158.8 452.4,163.9 463.7,165.4 C474.9,166.9 486.2,168 497.6,169 C508.9,170 520.2,170.6 531.6,171.2 C542.9,171.7 554.5,173.6 565.6,172.1 C576.8,170.7 587.3,164.9 598.4,162.3 C609.5,159.7 620.8,158 632.1,156.5 C643.3,155.1 654.7,154.7 666.1,153.7 C677.4,152.6 688.9,150.5 700,150 C711.1,149.5 721.8,150.3 732.6,150.6 C743.5,150.8 754.4,151.2 765.3,151.5 C776.2,151.8 787,152.3 797.9,152.5 C808.8,152.7 819.7,152.1 830.6,152.8 C841.4,153.5 852.1,155.9 863,156.9 C873.9,157.8 884.8,157.4 895.7,158.4 C906.5,159.4 917.4,160.9 928.1,162.8 C938.8,164.7 952.2,166 960,170 C967.8,174 969.9,181 974.7,186.6 C979.5,192.3 983.7,198.5 988.7,203.9 C993.7,209.3 999.2,214.4 1004.9,219.1 C1010.5,223.9 1017.4,227.4 1022.6,232.6 C1027.8,237.8 1031.2,244.7 1035.9,250.3 C1040.7,256 1046.1,261 1051.1,266.5 C1056.1,271.9 1060.9,277.5 1065.7,283.1 C1070.5,288.7 1077.5,293.3 1080,300 C1082.5,306.7 1080.6,315.4 1080.9,323.1 C1081.2,330.8 1081.1,338.5 1081.8,346.2 C1082.4,353.8 1084,361.4 1085,369.1 C1086,376.7 1088.8,384.5 1087.9,392 C1087,399.4 1082.8,406.6 1079.8,413.7 C1076.9,420.9 1072.7,427.5 1070.1,434.8 C1067.5,442 1066,449.7 1064.3,457.2 C1062.6,464.8 1063,472.3 1060,480 C1057,487.7 1051.6,496 1046.3,503.1 C1041,510.3 1033.6,515.9 1028.1,522.9 C1022.6,529.9 1018.4,537.8 1013.4,545.2 C1008.5,552.7 1004.4,560.9 998.4,567.3 C992.3,573.7 984,578 977,583.6 C970,589.1 962.6,594.3 956.3,600.5 C949.9,606.8 944.9,614.4 938.9,620.9 C932.8,627.5 927.7,635.5 920,640 C912.3,644.5 901.7,645.7 892.5,647.8 C883.2,650 873.7,651.2 864.3,653 C854.9,654.8 845.6,657.2 836.2,658.6 C826.8,660.1 817.1,660.1 807.8,661.8 C798.4,663.5 789.2,666.4 780,669 C770.9,671.6 761.7,674.4 752.7,677.5 C743.7,680.6 734.7,684 725.9,687.8 C717.2,691.6 709.7,698.4 700,700 C690.3,701.6 678.3,697.5 667.4,697.4 C656.6,697.3 645.7,698.7 634.8,699.1 C624,699.5 613.1,699.2 602.2,699.7 C591.4,700.1 580.6,701.8 569.7,702 C558.8,702.1 547.9,700.5 536.9,700.7 C526,700.8 515,703.9 504.2,703 C493.4,702.1 483,697.6 472.3,695.5 C461.6,693.3 450.2,691.6 440,690 C429.8,688.4 420.9,687.1 411.3,685.6 C401.7,684.2 392,683.4 382.6,681.4 C373.1,679.3 363.9,676.2 354.6,673.4 C345.4,670.6 336.1,667.6 326.9,664.6 C317.7,661.7 308.5,658.7 299.4,655.4 C290.3,652.2 281.1,649 272.3,645.1 C263.5,641.2 255.2,636.1 246.4,632 C237.7,627.8 226.1,626.1 220,620 C213.9,613.9 213.3,603.7 210,595.5 C206.7,587.3 202.9,579.2 200.2,570.8 C197.4,562.4 196.4,553.5 193.6,545.1 C190.8,536.7 186.2,528.9 183.3,520.6 C180.5,512.2 179.1,503.4 176.7,494.9 C174.3,486.4 171.7,478 168.9,469.6 C166.1,461.2 163.3,452.8 160.1,444.5 C157,436.3 149.5,427.7 150,420 Z" fill="#a9e1f0" stroke="#a9e1f0" stroke-width="28" stroke-linejoin="round" opacity="0.75"/>
<path d="M150,420 C150.5,412.3 159.3,405.7 163,398.1 C166.7,390.5 168.1,381.7 172.2,374.4 C176.3,367.1 182.6,361.1 187.6,354.3 C192.6,347.5 197.6,340.7 202.3,333.6 C206.9,326.5 211.1,319.1 215.4,311.8 C219.6,304.4 224.9,297.4 227.8,289.5 C230.8,281.6 230.8,272.7 232.8,264.5 C234.9,256.2 234.7,245.5 240,240 C245.3,234.5 256.2,234.3 264.4,231.5 C272.5,228.7 280.8,226.2 288.9,223.3 C297,220.5 305,217.4 313.1,214.5 C321.2,211.6 329.4,209 337.5,205.9 C345.5,202.7 353.3,199.1 361.2,195.7 C369.1,192.3 377.2,189.2 384.9,185.4 C392.7,181.5 400,177 407.5,172.8 C415,168.6 420.6,161.2 430,160 C439.4,158.8 452.4,163.9 463.7,165.4 C474.9,166.9 486.2,168 497.6,169 C508.9,170 520.2,170.6 531.6,171.2 C542.9,171.7 554.5,173.6 565.6,172.1 C576.8,170.7 587.3,164.9 598.4,162.3 C609.5,159.7 620.8,158 632.1,156.5 C643.3,155.1 654.7,154.7 666.1,153.7 C677.4,152.6 688.9,150.5 700,150 C711.1,149.5 721.8,150.3 732.6,150.6 C743.5,150.8 754.4,151.2 765.3,151.5 C776.2,151.8 787,152.3 797.9,152.5 C808.8,152.7 819.7,152.1 830.6,152.8 C841.4,153.5 852.1,155.9 863,156.9 C873.9,157.8 884.8,157.4 895.7,158.4 C906.5,159.4 917.4,160.9 928.1,162.8 C938.8,164.7 952.2,166 960,170 C967.8,174 969.9,181 974.7,186.6 C979.5,192.3 983.7,198.5 988.7,203.9 C993.7,209.3 999.2,214.4 1004.9,219.1 C1010.5,223.9 1017.4,227.4 1022.6,232.6 C1027.8,237.8 1031.2,244.7 1035.9,250.3 C1040.7,256 1046.1,261 1051.1,266.5 C1056.1,271.9 1060.9,277.5 1065.7,283.1 C1070.5,288.7 1077.5,293.3 1080,300 C1082.5,306.7 1080.6,315.4 1080.9,323.1 C1081.2,330.8 1081.1,338.5 1081.8,346.2 C1082.4,353.8 1084,361.4 1085,369.1 C1086,376.7 1088.8,384.5 1087.9,392 C1087,399.4 1082.8,406.6 1079.8,413.7 C1076.9,420.9 1072.7,427.5 1070.1,434.8 C1067.5,442 1066,449.7 1064.3,457.2 C1062.6,464.8 1063,472.3 1060,480 C1057,487.7 1051.6,496 1046.3,503.1 C1041,510.3 1033.6,515.9 1028.1,522.9 C1022.6,529.9 1018.4,537.8 1013.4,545.2 C1008.5,552.7 1004.4,560.9 998.4,567.3 C992.3,573.7 984,578 977,583.6 C970,589.1 962.6,594.3 956.3,600.5 C949.9,606.8 944.9,614.4 938.9,620.9 C932.8,627.5 927.7,635.5 920,640 C912.3,644.5 901.7,645.7 892.5,647.8 C883.2,650 873.7,651.2 864.3,653 C854.9,654.8 845.6,657.2 836.2,658.6 C826.8,660.1 817.1,660.1 807.8,661.8 C798.4,663.5 789.2,666.4 780,669 C770.9,671.6 761.7,674.4 752.7,677.5 C743.7,680.6 734.7,684 725.9,687.8 C717.2,691.6 709.7,698.4 700,700 C690.3,701.6 678.3,697.5 667.4,697.4 C656.6,697.3 645.7,698.7 634.8,699.1 C624,699.5 613.1,699.2 602.2,699.7 C591.4,700.1 580.6,701.8 569.7,702 C558.8,702.1 547.9,700.5 536.9,700.7 C526,700.8 515,703.9 504.2,703 C493.4,702.1 483,697.6 472.3,695.5 C461.6,693.3 450.2,691.6 440,690 C429.8,688.4 420.9,687.1 411.3,685.6 C401.7,684.2 392,683.4 382.6,681.4 C373.1,679.3 363.9,676.2 354.6,673.4 C345.4,670.6 336.1,667.6 326.9,664.6 C317.7,661.7 308.5,658.7 299.4,655.4 C290.3,652.2 281.1,649 272.3,645.1 C263.5,641.2 255.2,636.1 246.4,632 C237.7,627.8 226.1,626.1 220,620 C213.9,613.9 213.3,603.7 210,595.5 C206.7,587.3 202.9,579.2 200.2,570.8 C197.4,562.4 196.4,553.5 193.6,545.1 C190.8,536.7 186.2,528.9 183.3,520.6 C180.5,512.2 179.1,503.4 176.7,494.9 C174.3,486.4 171.7,478 168.9,469.6 C166.1,461.2 163.3,452.8 160.1,444.5 C157,436.3 149.5,427.7 150,420 Z" fill="#f2dfa4" stroke="#f2dfa4" stroke-width="10" stroke-linejoin="round"/>
<path d="M150,420 C150.5,412.3 159.3,405.7 163,398.1 C166.7,390.5 168.1,381.7 172.2,374.4 C176.3,367.1 182.6,361.1 187.6,354.3 C192.6,347.5 197.6,340.7 202.3,333.6 C206.9,326.5 211.1,319.1 215.4,311.8 C219.6,304.4 224.9,297.4 227.8,289.5 C230.8,281.6 230.8,272.7 232.8,264.5 C234.9,256.2 234.7,245.5 240,240 C245.3,234.5 256.2,234.3 264.4,231.5 C272.5,228.7 280.8,226.2 288.9,223.3 C297,220.5 305,217.4 313.1,214.5 C321.2,211.6 329.4,209 337.5,205.9 C345.5,202.7 353.3,199.1 361.2,195.7 C369.1,192.3 377.2,189.2 384.9,185.4 C392.7,181.5 400,177 407.5,172.8 C415,168.6 420.6,161.2 430,160 C439.4,158.8 452.4,163.9 463.7,165.4 C474.9,166.9 486.2,168 497.6,169 C508.9,170 520.2,170.6 531.6,171.2 C542.9,171.7 554.5,173.6 565.6,172.1 C576.8,170.7 587.3,164.9 598.4,162.3 C609.5,159.7 620.8,158 632.1,156.5 C643.3,155.1 654.7,154.7 666.1,153.7 C677.4,152.6 688.9,150.5 700,150 C711.1,149.5 721.8,150.3 732.6,150.6 C743.5,150.8 754.4,151.2 765.3,151.5 C776.2,151.8 787,152.3 797.9,152.5 C808.8,152.7 819.7,152.1 830.6,152.8 C841.4,153.5 852.1,155.9 863,156.9 C873.9,157.8 884.8,157.4 895.7,158.4 C906.5,159.4 917.4,160.9 928.1,162.8 C938.8,164.7 952.2,166 960,170 C967.8,174 969.9,181 974.7,186.6 C979.5,192.3 983.7,198.5 988.7,203.9 C993.7,209.3 999.2,214.4 1004.9,219.1 C1010.5,223.9 1017.4,227.4 1022.6,232.6 C1027.8,237.8 1031.2,244.7 1035.9,250.3 C1040.7,256 1046.1,261 1051.1,266.5 C1056.1,271.9 1060.9,277.5 1065.7,283.1 C1070.5,288.7 1077.5,293.3 1080,300 C1082.5,306.7 1080.6,315.4 1080.9,323.1 C1081.2,330.8 1081.1,338.5 1081.8,346.2 C1082.4,353.8 1084,361.4 1085,369.1 C1086,376.7 1088.8,384.5 1087.9,392 C1087,399.4 1082.8,406.6 1079.8,413.7 C1076.9,420.9 1072.7,427.5 1070.1,434.8 C1067.5,442 1066,449.7 1064.3,457.2 C1062.6,464.8 1063,472.3 1060,480 C1057,487.7 1051.6,496 1046.3,503.1 C1041,510.3 1033.6,515.9 1028.1,522.9 C1022.6,529.9 1018.4,537.8 1013.4,545.2 C1008.5,552.7 1004.4,560.9 998.4,567.3 C992.3,573.7 984,578 977,583.6 C970,589.1 962.6,594.3 956.3,600.5 C949.9,606.8 944.9,614.4 938.9,620.9 C932.8,627.5 927.7,635.5 920,640 C912.3,644.5 901.7,645.7 892.5,647.8 C883.2,650 873.7,651.2 864.3,653 C854.9,654.8 845.6,657.2 836.2,658.6 C826.8,660.1 817.1,660.1 807.8,661.8 C798.4,663.5 789.2,666.4 780,669 C770.9,671.6 761.7,674.4 752.7,677.5 C743.7,680.6 734.7,684 725.9,687.8 C717.2,691.6 709.7,698.4 700,700 C690.3,701.6 678.3,697.5 667.4,697.4 C656.6,697.3 645.7,698.7 634.8,699.1 C624,699.5 613.1,699.2 602.2,699.7 C591.4,700.1 580.6,701.8 569.7,702 C558.8,702.1 547.9,700.5 536.9,700.7 C526,700.8 515,703.9 504.2,703 C493.4,702.1 483,697.6 472.3,695.5 C461.6,693.3 450.2,691.6 440,690 C429.8,688.4 420.9,687.1 411.3,685.6 C401.7,684.2 392,683.4 382.6,681.4 C373.1,679.3 363.9,676.2 354.6,673.4 C345.4,670.6 336.1,667.6 326.9,664.6 C317.7,661.7 308.5,658.7 299.4,655.4 C290.3,652.2 281.1,649 272.3,645.1 C263.5,641.2 255.2,636.1 246.4,632 C237.7,627.8 226.1,626.1 220,620 C213.9,613.9 213.3,603.7 210,595.5 C206.7,587.3 202.9,579.2 200.2,570.8 C197.4,562.4 196.4,553.5 193.6,545.1 C190.8,536.7 186.2,528.9 183.3,520.6 C180.5,512.2 179.1,503.4 176.7,494.9 C174.3,486.4 171.7,478 168.9,469.6 C166.1,461.2 163.3,452.8 160.1,444.5 C157,436.3 149.5,427.7 150,420 Z" fill="#a5d07c" stroke="#2a1f14" stroke-width="3" stroke-linejoin="round"/>
<path d="M471.5,260 L522.3,163.1 L568.5,260 Z" fill="#8a9a6a" stroke="#2a1f14" stroke-width="1.6" stroke-linejoin="round"/>
<path d="M522.3,163.1 L568.5,260 L527.2,260 Z" fill="#5a6a4a" opacity="0.85"/>
<path d="M395.7,300 L427.6,231.3 L464.3,300 Z" fill="#8a9a6a" stroke="#2a1f14" stroke-width="1.6" stroke-linejoin="round"/>
<path d="M427.6,231.3 L464.3,300 L431,300 Z" fill="#5a6a4a" opacity="0.85"/>
<path d="M529.1,320 L578.1,218.1 L630.9,320 Z" fill="#8a9a6a" stroke="#2a1f14" stroke-width="1.6" stroke-linejoin="round"/>
<path d="M578.1,218.1 L630.9,320 L583.2,320 Z" fill="#5a6a4a" opacity="0.85"/>
<path d="M415.5,360 L458.8,251.1 L524.5,360 Z" fill="#8a9a6a" stroke="#2a1f14" stroke-width="1.6" stroke-linejoin="round"/>
<path d="M458.8,251.1 L524.5,360 L464.3,360 Z" fill="#5a6a4a" opacity="0.85"/>
<g>
<use href="#t96452a781" x="481.4" y="204.4"/>
<use href="#t96452a781" x="469.1" y="207.8"/>
<use href="#t96452a782" x="457.8" y="213.6"/>
<use href="#t96452a782" x="443.7" y="215.8"/>
<use href="#t96452a780" x="483.1" y="219.2"/>
<use href="#t96452a781" x="495.8" y="220.4"/>
<use href="#t96452a782" x="522.8" y="222.6"/>
<use href="#t96452a781" x="464.5" y="225.8"/>
<use href="#t96452a781" x="511" y="227.3"/>
<use href="#t96452a780" x="423" y="228.7"/>
<use href="#t96452a782" x="452.6" y="230.3"/>
<use href="#t96452a780" x="409.5" y="232.2"/>
<use href="#t96452a782" x="542.1" y="232.9"/>
<use href="#t96452a780" x="561.3" y="234.6"/>
<use href="#t96452a781" x="480.7" y="234.8"/>
<use href="#t96452a780" x="522.9" y="238.1"/>
<use href="#t96452a782" x="432.6" y="239.2"/>
<use href="#t96452a782" x="575.6" y="240.9"/>
<use href="#t96452a782" x="400.9" y="242.5"/>
<use href="#t96452a780" x="468.2" y="243.4"/>
<use href="#t96452a780" x="414.6" y="244.7"/>
<use href="#t96452a780" x="587.9" y="245.6"/>
<use href="#t96452a781" x="498.8" y="246.9"/>
<use href="#t96452a782" x="556.8" y="247"/>
<use href="#t96452a782" x="532.6" y="247.1"/>
<use href="#t96452a782" x="603.6" y="247.3"/>
<use href="#t96452a781" x="378.4" y="247.8"/>
<use href="#t96452a781" x="364.4" y="250.4"/>
<use href="#t96452a782" x="343.3" y="250.4"/>
<use href="#t96452a780" x="516.6" y="251.9"/>
<use href="#t96452a781" x="453.9" y="252"/>
<use href="#t96452a780" x="329.7" y="252"/>
<use href="#t96452a782" x="482.8" y="252.7"/>
<use href="#t96452a782" x="316.9" y="256.9"/>
<use href="#t96452a782" x="394.1" y="257.1"/>
<use href="#t96452a781" x="545.8" y="258.1"/>
<use href="#t96452a782" x="353" y="258.8"/>
<use href="#t96452a780" x="592.7" y="259.2"/>
<use href="#t96452a781" x="531" y="259.7"/>
<use href="#t96452a782" x="636.5" y="259.7"/>
<use href="#t96452a780" x="443.7" y="259.8"/>
<use href="#t96452a781" x="423" y="259.8"/>
<use href="#t96452a780" x="300.8" y="260.7"/>
<use href="#t96452a780" x="607.6" y="261.4"/>
<use href="#t96452a781" x="462.4" y="261.4"/>
<use href="#t96452a780" x="561.4" y="261.6"/>
<use href="#t96452a782" x="338" y="262.7"/>
<use href="#t96452a780" x="621.4" y="263.5"/>
<use href="#t96452a780" x="375" y="263.6"/>
<use href="#t96452a782" x="287.5" y="264.5"/>
<use href="#t96452a781" x="580.2" y="264.6"/>
<use href="#t96452a781" x="266.3" y="264.7"/>
<use href="#t96452a782" x="400.5" y="268.5"/>
<use href="#t96452a780" x="355.7" y="271.5"/>
<use href="#t96452a780" x="439.9" y="274"/>
<use href="#t96452a782" x="553.5" y="274.2"/>
<use href="#t96452a780" x="325.4" y="274.4"/>
<use href="#t96452a780" x="383.3" y="274.7"/>
<use href="#t96452a782" x="595.6" y="274.8"/>
<use href="#t96452a780" x="572.4" y="276.1"/>
<use href="#t96452a780" x="455.2" y="276.2"/>
<use href="#t96452a782" x="271.9" y="276.4"/>
<use href="#t96452a782" x="301.1" y="276.5"/>
<use href="#t96452a780" x="288.1" y="278.2"/>
<use href="#t96452a782" x="408.7" y="278.3"/>
<use href="#t96452a780" x="366.7" y="279.2"/>
<use href="#t96452a781" x="258.3" y="280.4"/>
<use href="#t96452a780" x="616.4" y="281.6"/>
<use href="#t96452a781" x="631.8" y="282.1"/>
<use href="#t96452a782" x="427.2" y="282.1"/>
<use href="#t96452a782" x="344.2" y="282.4"/>
<use href="#t96452a781" x="312.4" y="284.2"/>
<use href="#t96452a780" x="557.7" y="286.9"/>
<use href="#t96452a782" x="604.5" y="286.9"/>
<use href="#t96452a780" x="325" y="287.4"/>
<use href="#t96452a780" x="590" y="287.6"/>
<use href="#t96452a780" x="577.3" y="288.5"/>
<use href="#t96452a781" x="388.9" y="288.7"/>
<use href="#t96452a780" x="448.5" y="289.4"/>
<use href="#t96452a782" x="269.7" y="290.5"/>
<use href="#t96452a782" x="298.8" y="290.9"/>
<use href="#t96452a780" x="419.8" y="293.4"/>
<use href="#t96452a780" x="376.9" y="294.3"/>
<use href="#t96452a780" x="352" y="294.8"/>
<use href="#t96452a780" x="338.9" y="295"/>
<use href="#t96452a782" x="435.3" y="296.9"/>
<use href="#t96452a780" x="316.3" y="297.4"/>
<use href="#t96452a782" x="613.3" y="297.5"/>
<use href="#t96452a781" x="280.6" y="297.7"/>
<use href="#t96452a782" x="562.4" y="299"/>
<use href="#t96452a781" x="387.8" y="302"/>
<use href="#t96452a782" x="632.6" y="302.2"/>
<use href="#t96452a780" x="576.1" y="302.4"/>
<use href="#t96452a780" x="367.4" y="303.1"/>
<use href="#t96452a781" x="400.6" y="303.3"/>
<use href="#t96452a780" x="253" y="303.8"/>
<use href="#t96452a781" x="297.7" y="305.1"/>
<use href="#t96452a782" x="596.7" y="305.5"/>
<use href="#t96452a781" x="267.2" y="306.4"/>
<use href="#t96452a782" x="444.3" y="306.8"/>
<use href="#t96452a780" x="552.2" y="307.4"/>
<use href="#t96452a782" x="417.2" y="307.7"/>
<use href="#t96452a782" x="353.4" y="308.8"/>
<use href="#t96452a780" x="329.6" y="309.4"/>
<use href="#t96452a782" x="313.5" y="310.5"/>
<use href="#t96452a781" x="378.3" y="311.6"/>
<use href="#t96452a782" x="611.7" y="311.7"/>
<use href="#t96452a782" x="570.9" y="314.7"/>
<use href="#t96452a781" x="289.4" y="316"/>
<use href="#t96452a780" x="627.5" y="316.4"/>
<use href="#t96452a782" x="586.3" y="316.9"/>
<use href="#t96452a782" x="437" y="318.2"/>
<use href="#t96452a780" x="424.2" y="318.4"/>
<use href="#t96452a782" x="269.3" y="319.1"/>
<use href="#t96452a781" x="558.9" y="319.6"/>
<use href="#t96452a780" x="338" y="320.1"/>
<use href="#t96452a781" x="393.6" y="321.1"/>
<use href="#t96452a780" x="255.7" y="323"/>
<use href="#t96452a780" x="409.1" y="323"/>
<use href="#t96452a780" x="356.9" y="323.2"/>
<use href="#t96452a781" x="303.5" y="324.2"/>
<use href="#t96452a780" x="372.9" y="324.3"/>
<use href="#t96452a782" x="448.7" y="324.9"/>
<use href="#t96452a780" x="607.8" y="325.1"/>
<use href="#t96452a782" x="578.2" y="326.9"/>
<use href="#t96452a782" x="325.9" y="327.5"/>
<use href="#t96452a781" x="291.3" y="329.9"/>
<use href="#t96452a781" x="565.7" y="330.5"/>
<use href="#t96452a780" x="418.5" y="332.6"/>
<use href="#t96452a781" x="625.4" y="334.7"/>
<use href="#t96452a780" x="265.7" y="335.3"/>
<use href="#t96452a780" x="353.7" y="336.6"/>
<use href="#t96452a782" x="403.4" y="337.2"/>
<use href="#t96452a782" x="594.6" y="337.3"/>
<use href="#t96452a782" x="315.2" y="337.6"/>
<use href="#t96452a782" x="446.1" y="338.3"/>
<use href="#t96452a780" x="279.6" y="339.2"/>
<use href="#t96452a781" x="370.8" y="339.5"/>
<use href="#t96452a782" x="581" y="339.8"/>
<use href="#t96452a780" x="608.9" y="340.9"/>
<use href="#t96452a781" x="334" y="341"/>
<use href="#t96452a781" x="428.7" y="341.1"/>
<use href="#t96452a780" x="301" y="341.6"/>
<use href="#t96452a781" x="389" y="342"/>
<use href="#t96452a780" x="255.3" y="343.1"/>
<use href="#t96452a781" x="554.9" y="343.2"/>
<use href="#t96452a782" x="619.8" y="347.7"/>
<use href="#t96452a782" x="360.6" y="347.8"/>
<use href="#t96452a781" x="289.5" y="348.7"/>
<use href="#t96452a781" x="453.5" y="348.8"/>
<use href="#t96452a781" x="582.8" y="352.5"/>
<use href="#t96452a781" x="347" y="353.3"/>
<use href="#t96452a782" x="440.5" y="353.4"/>
<use href="#t96452a781" x="417.6" y="353.9"/>
<use href="#t96452a782" x="570.2" y="354.4"/>
<use href="#t96452a782" x="264.7" y="355.3"/>
<use href="#t96452a782" x="372.4" y="355.4"/>
<use href="#t96452a781" x="542.8" y="356.2"/>
<use href="#t96452a781" x="387.1" y="356.4"/>
<use href="#t96452a782" x="595.3" y="356.7"/>
<use href="#t96452a780" x="320.7" y="358"/>
<use href="#t96452a781" x="405.6" y="358.5"/>
<use href="#t96452a780" x="558.5" y="359.4"/>
<use href="#t96452a782" x="303.4" y="359.7"/>
<use href="#t96452a781" x="614.4" y="364"/>
<use href="#t96452a781" x="581.7" y="365.4"/>
<use href="#t96452a781" x="278.8" y="365.6"/>
<use href="#t96452a780" x="455.4" y="367.5"/>
<use href="#t96452a780" x="353.1" y="368.2"/>
<use href="#t96452a780" x="257.5" y="368.5"/>
<use href="#t96452a782" x="569.1" y="369.1"/>
<use href="#t96452a780" x="382.6" y="369.8"/>
<use href="#t96452a780" x="411.9" y="369.8"/>
<use href="#t96452a780" x="396" y="369.9"/>
<use href="#t96452a781" x="594.1" y="370.5"/>
<use href="#t96452a782" x="549.3" y="371.2"/>
<use href="#t96452a782" x="336.6" y="372.1"/>
<use href="#t96452a782" x="431.8" y="372.8"/>
<use href="#t96452a780" x="297.8" y="373.5"/>
<use href="#t96452a782" x="536.4" y="374.2"/>
<use href="#t96452a780" x="269.6" y="375.4"/>
<use href="#t96452a780" x="322.8" y="375.7"/>
<use href="#t96452a781" x="464.7" y="377.1"/>
<use href="#t96452a782" x="615.6" y="378.4"/>
<use href="#t96452a780" x="309.7" y="378.6"/>
<use href="#t96452a781" x="584.3" y="379.2"/>
<use href="#t96452a780" x="447.3" y="380.6"/>
<use href="#t96452a782" x="503.8" y="381.3"/>
<use href="#t96452a781" x="252.5" y="381.4"/>
<use href="#t96452a781" x="479.9" y="381.5"/>
<use href="#t96452a781" x="373.3" y="381.7"/>
<use href="#t96452a780" x="569.1" y="381.8"/>
<use href="#t96452a780" x="389.1" y="382.3"/>
<use href="#t96452a782" x="554.2" y="383"/>
<use href="#t96452a782" x="411.9" y="384.2"/>
<use href="#t96452a782" x="352.1" y="384.3"/>
<use href="#t96452a782" x="285.4" y="384.3"/>
<use href="#t96452a781" x="519.6" y="386.5"/>
<use href="#t96452a781" x="603" y="388.3"/>
<use href="#t96452a782" x="325.4" y="391.2"/>
<use href="#t96452a780" x="441.3" y="391.8"/>
<use href="#t96452a780" x="493.4" y="392.4"/>
<use href="#t96452a780" x="422.4" y="394.5"/>
<use href="#t96452a780" x="367.6" y="394.6"/>
<use href="#t96452a780" x="563.9" y="394.6"/>
<use href="#t96452a780" x="345" y="395.4"/>
<use href="#t96452a780" x="533.5" y="395.6"/>
<use href="#t96452a780" x="297.2" y="395.8"/>
<use href="#t96452a781" x="474.1" y="395.9"/>
<use href="#t96452a780" x="548.5" y="396.2"/>
<use href="#t96452a782" x="269.9" y="396.5"/>
<use href="#t96452a782" x="509.1" y="396.5"/>
<use href="#t96452a782" x="461" y="396.7"/>
<use href="#t96452a780" x="585.1" y="396.9"/>
<use href="#t96452a780" x="613.4" y="397"/>
<use href="#t96452a781" x="284.1" y="397.1"/>
<use href="#t96452a782" x="384.3" y="400.3"/>
<use href="#t96452a782" x="312.1" y="401.1"/>
<use href="#t96452a782" x="448.9" y="402.1"/>
<use href="#t96452a782" x="400.1" y="403"/>
<use href="#t96452a781" x="259.1" y="404.5"/>
<use href="#t96452a780" x="336.1" y="404.5"/>
<use href="#t96452a781" x="571.9" y="406"/>
<use href="#t96452a782" x="603.4" y="406"/>
<use href="#t96452a781" x="350.6" y="406.9"/>
<use href="#t96452a781" x="429.6" y="408.2"/>
<use href="#t96452a780" x="529.9" y="408.8"/>
<use href="#t96452a782" x="511.9" y="408.9"/>
<use href="#t96452a781" x="558.2" y="409.5"/>
<use href="#t96452a780" x="363.2" y="409.7"/>
<use href="#t96452a781" x="286.9" y="409.7"/>
<use href="#t96452a781" x="495.6" y="409.8"/>
<use href="#t96452a781" x="590.6" y="410.2"/>
<use href="#t96452a780" x="469.1" y="412.6"/>
<use href="#t96452a780" x="390.2" y="413"/>
<use href="#t96452a782" x="545.1" y="414.3"/>
<use href="#t96452a782" x="408" y="414.5"/>
<use href="#t96452a781" x="274.6" y="416.2"/>
<use href="#t96452a781" x="313.8" y="416.3"/>
<use href="#t96452a781" x="439.6" y="416.9"/>
<use href="#t96452a782" x="618.2" y="417.4"/>
<use href="#t96452a782" x="484.8" y="417.5"/>
<use href="#t96452a782" x="261.6" y="417.9"/>
<use href="#t96452a781" x="350.6" y="419.8"/>
<use href="#t96452a782" x="570.8" y="420"/>
<use href="#t96452a782" x="458.9" y="420.6"/>
<use href="#t96452a781" x="292.8" y="421.1"/>
<use href="#t96452a780" x="521.9" y="422.1"/>
<use href="#t96452a780" x="427.4" y="422.9"/>
<use href="#t96452a782" x="336" y="423"/>
<use href="#t96452a782" x="368.1" y="423.5"/>
<use href="#t96452a780" x="497.5" y="423.7"/>
<use href="#t96452a781" x="596.2" y="423.7"/>
<use href="#t96452a781" x="557" y="424"/>
<use href="#t96452a780" x="582.4" y="425.1"/>
<use href="#t96452a782" x="401.3" y="425.3"/>
<use href="#t96452a782" x="611" y="428"/>
<use href="#t96452a781" x="477.2" y="429.1"/>
<use href="#t96452a781" x="305.5" y="429.2"/>
<use href="#t96452a781" x="537.4" y="429.2"/>
<use href="#t96452a780" x="509" y="430.5"/>
<use href="#t96452a780" x="381.5" y="431.5"/>
<use href="#t96452a782" x="416.7" y="432.4"/>
<use href="#t96452a780" x="464" y="435.1"/>
<use href="#t96452a782" x="446.7" y="435.3"/>
<use href="#t96452a781" x="552.1" y="435.8"/>
<use href="#t96452a781" x="363.3" y="436"/>
<use href="#t96452a781" x="495.5" y="436.9"/>
<use href="#t96452a782" x="338.2" y="438.5"/>
<use href="#t96452a780" x="432.8" y="439.5"/>
<use href="#t96452a781" x="403.4" y="440.4"/>
<use href="#t96452a782" x="325.6" y="441.1"/>
<use href="#t96452a780" x="527.9" y="441.5"/>
<use href="#t96452a781" x="389.5" y="442.2"/>
<use href="#t96452a782" x="351.5" y="445.5"/>
<use href="#t96452a780" x="418.5" y="446.5"/>
<use href="#t96452a782" x="469.8" y="446.9"/>
<use href="#t96452a781" x="367.9" y="447.8"/>
<use href="#t96452a781" x="447.1" y="448.5"/>
<use href="#t96452a780" x="487.4" y="448.7"/>
<use href="#t96452a782" x="502.9" y="449.6"/>
<use href="#t96452a780" x="432.7" y="456.5"/>
<use href="#t96452a780" x="380.6" y="456.6"/>
<use href="#t96452a782" x="460.4" y="457.9"/>
<use href="#t96452a781" x="395.2" y="458"/>
<use href="#t96452a781" x="477.5" y="458.1"/>
<use href="#t96452a780" x="410.2" y="460.4"/>
<use href="#t96452a780" x="444.8" y="461.1"/>
<use href="#t96452a780" x="420.2" y="469"/>
</g>
<rect x="457" y="343.9" width="26" height="16.1" fill="#c9a46a" stroke="#3b2f1e" stroke-width="1.1"/>
<path d="M453.9,343.9 L462.2,329.6 L477.8,329.6 L486.1,343.9 Z" fill="#7a4a2a" stroke="#3b2f1e" stroke-width="1.1" stroke-linejoin="round"/>
<g>
<rect x="232.4" y="532.4" width="13.4" height="8.3" fill="#fff3d6" stroke="#3b2f1e" stroke-width="1.1"/>
<path d="M230.8,532.4 L235.1,525.1 L243.1,525.1 L247.4,532.4 Z" fill="#e07a4a" stroke="#3b2f1e" stroke-width="1.1" stroke-linejoin="round"/>
<rect x="268.8" y="535.1" width="12.7" height="7.9" fill="#fff3d6" stroke="#3b2f1e" stroke-width="1.1"/>
<path d="M267.3,535.1 L271.4,528.2 L279,528.2 L283,535.1 Z" fill="#c0392b" stroke="#3b2f1e" stroke-width="1.1" stroke-linejoin="round"/>
<rect x="248.3" y="538.4" width="13" height="8.1" fill="#fff3d6" stroke="#3b2f1e" stroke-width="1.1"/>
<path d="M246.8,538.4 L250.9,531.2 L258.7,531.2 L262.9,538.4 Z" fill="#c0392b" stroke="#3b2f1e" stroke-width="1.1" stroke-linejoin="round"/>
<rect x="195.7" y="538.2" width="16.4" height="10.2" fill="#fff3d6" stroke="#3b2f1e" stroke-width="1.1"/>
<path d="M193.8,538.2 L199,529.2 L208.9,529.2 L214.1,538.2 Z" fill="#e07a4a" stroke="#3b2f1e" stroke-width="1.1" stroke-linejoin="round"/>
<rect x="218.7" y="546.2" width="12" height="7.5" fill="#fff3d6" stroke="#3b2f1e" stroke-width="1.1"/>
<path d="M217.3,546.2 L221.1,539.6 L228.3,539.6 L232.2,546.2 Z" fill="#e07a4a" stroke="#3b2f1e" stroke-width="1.1" stroke-linejoin="round"/>
<rect x="284.6" y="550.5" width="14.5" height="9" fill="#fff3d6" stroke="#3b2f1e" stroke-width="1.1"/>
<path d="M282.9,550.5 L287.5,542.5 L296.2,542.5 L300.9,550.5 Z" fill="#3a8ac0" stroke="#3b2f1e" stroke-width="1.1" stroke-linejoin="round"/>
<rect x="249.3" y="552.6" width="16.4" height="10.2" fill="#fff3d6" stroke="#3b2f1e" stroke-width="1.1"/>
<path d="M247.3,552.6 L252.6,543.6 L262.4,543.6 L267.7,552.6 Z" fill="#c0392b" stroke="#3b2f1e" stroke-width="1.1" stroke-linejoin="round"/>
<rect x="184.5" y="555.7" width="14.5" height="9" fill="#fff3d6" stroke="#3b2f1e" stroke-width="1.1"/>
<path d="M182.8,555.7 L187.4,547.7 L196.1,547.7 L200.8,555.7 Z" fill="#e07a4a" stroke="#3b2f1e" stroke-width="1.1" stroke-linejoin="round"/>
<rect x="201.3" y="560.2" width="15.5" height="9.6" fill="#fff3d6" stroke="#3b2f1e" stroke-width="1.1"/>
<path d="M199.4,560.2 L204.4,551.7 L213.7,551.7 L218.7,560.2 Z" fill="#c0392b" stroke="#3b2f1e" stroke-width="1.1" stroke-linejoin="round"/>
<rect x="229.7" y="562.4" width="13.9" height="8.6" fill="#fff3d6" stroke="#3b2f1e" stroke-width="1.1"/>
<path d="M228.1,562.4 L232.5,554.7 L240.9,554.7 L245.3,562.4 Z" fill="#c0392b" stroke="#3b2f1e" stroke-width="1.1" stroke-linejoin="round"/>
<rect x="271.4" y="571.3" width="12.6" height="7.8" fill="#fff3d6" stroke="#3b2f1e" stroke-width="1.1"/>
<path d="M269.9,571.3 L273.9,564.4 L281.5,564.4 L285.5,571.3 Z" fill="#3a8ac0" stroke="#3b2f1e" stroke-width="1.1" stroke-linejoin="round"/>
<rect x="244.3" y="573.8" width="15.4" height="9.6" fill="#fff3d6" stroke="#3b2f1e" stroke-width="1.1"/>
<path d="M242.4,573.8 L247.3,565.3 L256.6,565.3 L261.5,573.8 Z" fill="#e07a4a" stroke="#3b2f1e" stroke-width="1.1" stroke-linejoin="round"/>
</g>
<path d="M200,520 l-24,-20 M200,520 l24,-20 M200,520 l-24,20 M200,520 l24,20" stroke="#2a1f14" stroke-width="4"/>
<circle cx="200" cy="520" r="5" fill="#8a5a2a" stroke="#2a1f14" stroke-width="1"/>
<path d="M150,600 l40,20" stroke="#8a6a44" stroke-width="7"/>
<g stroke="#2b2418" stroke-width="1.3" stroke-linejoin="round">
<path d="M110.2,642.8 L149.8,642.8 L144.4,650 L115.6,650 Z" fill="#7a4f2a"/>
<path d="M130,642.8 V615.8" fill="none"/>
<path d="M118.3,619.4 Q130,623 141.7,619.4 L141.7,637.4 Q130,641 118.3,637.4 Z" fill="#f4ecd8"/>
<path d="M130,615.8 l8.1,2.7 l-8.1,2.7 Z" fill="#3a5a9a"/>
</g>
<ellipse cx="940" cy="330" rx="150" ry="108.0" fill="#d8cfb8" stroke="#2a1f14" stroke-width="3"/>
<ellipse cx="940" cy="330" rx="100" ry="72.0" fill="#e6dcc4" stroke="#2a1f14" stroke-width="3"/>
<ellipse cx="940" cy="330" rx="56" ry="40.32" fill="#f4ecd8" stroke="#2a1f14" stroke-width="3"/>
<g>
<rect x="915.3" y="224.4" width="11.7" height="7.3" fill="#fbf3e0" stroke="#3b2f1e" stroke-width="1.1"/>
<path d="M913.9,224.4 L917.6,217.9 L924.7,217.9 L928.4,224.4 Z" fill="#3a5aa0" stroke="#3b2f1e" stroke-width="1.1" stroke-linejoin="round"/>
<rect x="970.1" y="235" width="16" height="9.9" fill="#fbf3e0" stroke="#3b2f1e" stroke-width="1.1"/>
<path d="M968.2,235 L973.3,226.2 L982.9,226.2 L988,235 Z" fill="#3a5aa0" stroke="#3b2f1e" stroke-width="1.1" stroke-linejoin="round"/>
<rect x="918.4" y="237.7" width="15.2" height="9.4" fill="#fbf3e0" stroke="#3b2f1e" stroke-width="1.1"/>
<path d="M916.5,237.7 L921.4,229.3 L930.5,229.3 L935.4,237.7 Z" fill="#3a5aa0" stroke="#3b2f1e" stroke-width="1.1" stroke-linejoin="round"/>
<rect x="901.4" y="239.3" width="12.9" height="8" fill="#fbf3e0" stroke="#3b2f1e" stroke-width="1.1"/>
<path d="M899.8,239.3 L903.9,232.2 L911.7,232.2 L915.9,239.3 Z" fill="#3a5aa0" stroke="#3b2f1e" stroke-width="1.1" stroke-linejoin="round"/>
<rect x="999.8" y="245.4" width="13.6" height="8.5" fill="#fbf3e0" stroke="#3b2f1e" stroke-width="1.1"/>
<path d="M998.2,245.4 L1002.5,237.9 L1010.7,237.9 L1015.1,245.4 Z" fill="#c0392b" stroke="#3b2f1e" stroke-width="1.1" stroke-linejoin="round"/>
<rect x="855.3" y="249.1" width="14.9" height="9.2" fill="#fbf3e0" stroke="#3b2f1e" stroke-width="1.1"/>
<path d="M853.5,249.1 L858.2,240.9 L867.2,240.9 L871.9,249.1 Z" fill="#c0392b" stroke="#3b2f1e" stroke-width="1.1" stroke-linejoin="round"/>
<rect x="911.7" y="257.9" width="15.5" height="9.6" fill="#fbf3e0" stroke="#3b2f1e" stroke-width="1.1"/>
<path d="M909.8,257.9 L914.8,249.4 L924.1,249.4 L929,257.9 Z" fill="#3a5aa0" stroke="#3b2f1e" stroke-width="1.1" stroke-linejoin="round"/>
<rect x="986.4" y="263.1" width="15.3" height="9.5" fill="#fbf3e0" stroke="#3b2f1e" stroke-width="1.1"/>
<path d="M984.6,263.1 L989.5,254.7 L998.7,254.7 L1003.5,263.1 Z" fill="#d9a84a" stroke="#3b2f1e" stroke-width="1.1" stroke-linejoin="round"/>
<rect x="1020.7" y="266.3" width="14.7" height="9.1" fill="#fbf3e0" stroke="#3b2f1e" stroke-width="1.1"/>
<path d="M1018.9,266.3 L1023.6,258.2 L1032.5,258.2 L1037.2,266.3 Z" fill="#3a5aa0" stroke="#3b2f1e" stroke-width="1.1" stroke-linejoin="round"/>
<rect x="885.4" y="268.3" width="15.9" height="9.9" fill="#fbf3e0" stroke="#3b2f1e" stroke-width="1.1"/>
<path d="M883.5,268.3 L888.6,259.5 L898.1,259.5 L903.2,268.3 Z" fill="#3a5aa0" stroke="#3b2f1e" stroke-width="1.1" stroke-linejoin="round"/>
<rect x="894.2" y="282.6" width="13.4" height="8.3" fill="#fbf3e0" stroke="#3b2f1e" stroke-width="1.1"/>
<path d="M892.6,282.6 L896.9,275.2 L904.9,275.2 L909.2,282.6 Z" fill="#c0392b" stroke="#3b2f1e" stroke-width="1.1" stroke-linejoin="round"/>
<rect x="997.4" y="284.2" width="11.8" height="7.3" fill="#fbf3e0" stroke="#3b2f1e" stroke-width="1.1"/>
<path d="M996,284.2 L999.8,277.7 L1006.8,277.7 L1010.6,284.2 Z" fill="#d9a84a" stroke="#3b2f1e" stroke-width="1.1" stroke-linejoin="round"/>
<rect x="970.6" y="287" width="12.2" height="7.6" fill="#fbf3e0" stroke="#3b2f1e" stroke-width="1.1"/>
<path d="M969.2,287 L973.1,280.3 L980.4,280.3 L984.3,287 Z" fill="#c0392b" stroke="#3b2f1e" stroke-width="1.1" stroke-linejoin="round"/>
<rect x="1025.5" y="291.7" width="12.3" height="7.6" fill="#fbf3e0" stroke="#3b2f1e" stroke-width="1.1"/>
<path d="M1024,291.7 L1028,285 L1035.3,285 L1039.3,291.7 Z" fill="#c0392b" stroke="#3b2f1e" stroke-width="1.1" stroke-linejoin="round"/>
<rect x="977.4" y="303.3" width="12.5" height="7.7" fill="#fbf3e0" stroke="#3b2f1e" stroke-width="1.1"/>
<path d="M975.9,303.3 L979.9,296.5 L987.3,296.5 L991.3,303.3 Z" fill="#c0392b" stroke="#3b2f1e" stroke-width="1.1" stroke-linejoin="round"/>
<rect x="889.3" y="307.9" width="13.5" height="8.4" fill="#fbf3e0" stroke="#3b2f1e" stroke-width="1.1"/>
<path d="M887.7,307.9 L892,300.4 L900.1,300.4 L904.5,307.9 Z" fill="#d9a84a" stroke="#3b2f1e" stroke-width="1.1" stroke-linejoin="round"/>
<rect x="989.5" y="310.4" width="14.2" height="8.8" fill="#fbf3e0" stroke="#3b2f1e" stroke-width="1.1"/>
<path d="M987.7,310.4 L992.3,302.6 L1000.8,302.6 L1005.4,310.4 Z" fill="#3a5aa0" stroke="#3b2f1e" stroke-width="1.1" stroke-linejoin="round"/>
<rect x="804.2" y="312.9" width="15.8" height="9.8" fill="#fbf3e0" stroke="#3b2f1e" stroke-width="1.1"/>
<path d="M802.3,312.9 L807.3,304.2 L816.8,304.2 L821.8,312.9 Z" fill="#3a5aa0" stroke="#3b2f1e" stroke-width="1.1" stroke-linejoin="round"/>
<rect x="861.3" y="314.3" width="13.6" height="8.4" fill="#fbf3e0" stroke="#3b2f1e" stroke-width="1.1"/>
<path d="M859.6,314.3 L864,306.8 L872.2,306.8 L876.5,314.3 Z" fill="#d9a84a" stroke="#3b2f1e" stroke-width="1.1" stroke-linejoin="round"/>
<rect x="880.1" y="321.8" width="12.2" height="7.5" fill="#fbf3e0" stroke="#3b2f1e" stroke-width="1.1"/>
<path d="M878.7,321.8 L882.5,315.1 L889.9,315.1 L893.7,321.8 Z" fill="#d9a84a" stroke="#3b2f1e" stroke-width="1.1" stroke-linejoin="round"/>
<rect x="823.8" y="322.7" width="12.2" height="7.6" fill="#fbf3e0" stroke="#3b2f1e" stroke-width="1.1"/>
<path d="M822.3,322.7 L826.2,316 L833.5,316 L837.4,322.7 Z" fill="#3a5aa0" stroke="#3b2f1e" stroke-width="1.1" stroke-linejoin="round"/>
<rect x="968.8" y="324.2" width="14.2" height="8.8" fill="#fbf3e0" stroke="#3b2f1e" stroke-width="1.1"/>
<path d="M967.1,324.2 L971.7,316.4 L980.1,316.4 L984.7,324.2 Z" fill="#d9a84a" stroke="#3b2f1e" stroke-width="1.1" stroke-linejoin="round"/>
<rect x="946.8" y="335.2" width="11.9" height="7.4" fill="#fbf3e0" stroke="#3b2f1e" stroke-width="1.1"/>
<path d="M945.4,335.2 L949.2,328.7 L956.4,328.7 L960.2,335.2 Z" fill="#d9a84a" stroke="#3b2f1e" stroke-width="1.1" stroke-linejoin="round"/>
<rect x="1043.6" y="333.1" width="16" height="9.9" fill="#fbf3e0" stroke="#3b2f1e" stroke-width="1.1"/>
<path d="M1041.7,333.1 L1046.8,324.4 L1056.3,324.4 L1061.4,333.1 Z" fill="#d9a84a" stroke="#3b2f1e" stroke-width="1.1" stroke-linejoin="round"/>
<rect x="809.8" y="337.6" width="13.7" height="8.5" fill="#fbf3e0" stroke="#3b2f1e" stroke-width="1.1"/>
<path d="M808.2,337.6 L812.6,330.1 L820.8,330.1 L825.2,337.6 Z" fill="#c0392b" stroke="#3b2f1e" stroke-width="1.1" stroke-linejoin="round"/>
<rect x="862.4" y="336.7" width="15.4" height="9.5" fill="#fbf3e0" stroke="#3b2f1e" stroke-width="1.1"/>
<path d="M860.5,336.7 L865.4,328.3 L874.7,328.3 L879.6,336.7 Z" fill="#d9a84a" stroke="#3b2f1e" stroke-width="1.1" stroke-linejoin="round"/>
<rect x="972.2" y="341.6" width="13.7" height="8.5" fill="#fbf3e0" stroke="#3b2f1e" stroke-width="1.1"/>
<path d="M970.6,341.6 L975,334 L983.2,334 L987.5,341.6 Z" fill="#3a5aa0" stroke="#3b2f1e" stroke-width="1.1" stroke-linejoin="round"/>
<rect x="1021.2" y="343.9" width="11.8" height="7.3" fill="#fbf3e0" stroke="#3b2f1e" stroke-width="1.1"/>
<path d="M1019.8,343.9 L1023.5,337.4 L1030.6,337.4 L1034.4,343.9 Z" fill="#d9a84a" stroke="#3b2f1e" stroke-width="1.1" stroke-linejoin="round"/>
<rect x="882.1" y="349.1" width="13" height="8.1" fill="#fbf3e0" stroke="#3b2f1e" stroke-width="1.1"/>
<path d="M880.5,349.1 L884.7,342 L892.4,342 L896.6,349.1 Z" fill="#3a5aa0" stroke="#3b2f1e" stroke-width="1.1" stroke-linejoin="round"/>
<rect x="1038" y="348.5" width="14.2" height="8.8" fill="#fbf3e0" stroke="#3b2f1e" stroke-width="1.1"/>
<path d="M1036.3,348.5 L1040.9,340.7 L1049.4,340.7 L1053.9,348.5 Z" fill="#c0392b" stroke="#3b2f1e" stroke-width="1.1" stroke-linejoin="round"/>
<rect x="806.2" y="352" width="13.8" height="8.6" fill="#fbf3e0" stroke="#3b2f1e" stroke-width="1.1"/>
<path d="M804.6,352 L809,344.4 L817.3,344.4 L821.7,352 Z" fill="#d9a84a" stroke="#3b2f1e" stroke-width="1.1" stroke-linejoin="round"/>
<rect x="990.9" y="369.1" width="15.2" height="9.4" fill="#fbf3e0" stroke="#3b2f1e" stroke-width="1.1"/>
<path d="M989.1,369.1 L994,360.7 L1003.1,360.7 L1008,369.1 Z" fill="#d9a84a" stroke="#3b2f1e" stroke-width="1.1" stroke-linejoin="round"/>
<rect x="870.8" y="369.7" width="14.8" height="9.2" fill="#fbf3e0" stroke="#3b2f1e" stroke-width="1.1"/>
<path d="M869.1,369.7 L873.8,361.5 L882.7,361.5 L887.5,369.7 Z" fill="#c0392b" stroke="#3b2f1e" stroke-width="1.1" stroke-linejoin="round"/>
<rect x="851.1" y="372" width="14.6" height="9.1" fill="#fbf3e0" stroke="#3b2f1e" stroke-width="1.1"/>
<path d="M849.3,372 L854,363.9 L862.8,363.9 L867.5,372 Z" fill="#d9a84a" stroke="#3b2f1e" stroke-width="1.1" stroke-linejoin="round"/>
<rect x="1017.8" y="374.5" width="15.1" height="9.4" fill="#fbf3e0" stroke="#3b2f1e" stroke-width="1.1"/>
<path d="M1016,374.5 L1020.9,366.2 L1029.9,366.2 L1034.8,374.5 Z" fill="#3a5aa0" stroke="#3b2f1e" stroke-width="1.1" stroke-linejoin="round"/>
<rect x="825.9" y="383.7" width="15" height="9.3" fill="#fbf3e0" stroke="#3b2f1e" stroke-width="1.1"/>
<path d="M824.1,383.7 L828.9,375.5 L837.9,375.5 L842.7,383.7 Z" fill="#d9a84a" stroke="#3b2f1e" stroke-width="1.1" stroke-linejoin="round"/>
<rect x="892.4" y="388" width="12.8" height="7.9" fill="#fbf3e0" stroke="#3b2f1e" stroke-width="1.1"/>
<path d="M890.9,388 L895,381 L902.6,381 L906.7,388 Z" fill="#d9a84a" stroke="#3b2f1e" stroke-width="1.1" stroke-linejoin="round"/>
<rect x="921.5" y="396.9" width="11.6" height="7.2" fill="#fbf3e0" stroke="#3b2f1e" stroke-width="1.1"/>
<path d="M920.1,396.9 L923.9,390.5 L930.9,390.5 L934.6,396.9 Z" fill="#3a5aa0" stroke="#3b2f1e" stroke-width="1.1" stroke-linejoin="round"/>
<rect x="1000.4" y="398.8" width="11.3" height="7" fill="#fbf3e0" stroke="#3b2f1e" stroke-width="1.1"/>
<path d="M999,398.8 L1002.6,392.6 L1009.4,392.6 L1013,398.8 Z" fill="#d9a84a" stroke="#3b2f1e" stroke-width="1.1" stroke-linejoin="round"/>
<rect x="911" y="414.3" width="12.9" height="8" fill="#fbf3e0" stroke="#3b2f1e" stroke-width="1.1"/>
<path d="M909.5,414.3 L913.6,407.2 L921.4,407.2 L925.5,414.3 Z" fill="#c0392b" stroke="#3b2f1e" stroke-width="1.1" stroke-linejoin="round"/>
</g>
<g stroke-linejoin="round">
<rect x="919" y="291.6" width="42" height="20.4" fill="#f4ecd8" stroke="#2b2418" stroke-width="1.6"/>
<rect x="919" y="288" width="3" height="3.6" fill="#f4ecd8" stroke="#2b2418" stroke-width="1.2"/>
<rect x="925.5" y="288" width="3" height="3.6" fill="#f4ecd8" stroke="#2b2418" stroke-width="1.2"/>
<rect x="931.9" y="288" width="3" height="3.6" fill="#f4ecd8" stroke="#2b2418" stroke-width="1.2"/>
<rect x="938.4" y="288" width="3" height="3.6" fill="#f4ecd8" stroke="#2b2418" stroke-width="1.2"/>
<rect x="944.8" y="288" width="3" height="3.6" fill="#f4ecd8" stroke="#2b2418" stroke-width="1.2"/>
<rect x="951.3" y="288" width="3" height="3.6" fill="#f4ecd8" stroke="#2b2418" stroke-width="1.2"/>
<rect x="957.8" y="288" width="3" height="3.6" fill="#f4ecd8" stroke="#2b2418" stroke-width="1.2"/>
<path d="M935.2,312 v-8.4 a4.8,4.8 0 0,1 9.6,0 v8.4 Z" fill="#2b2418" opacity="0.75"/>
<rect x="913.6" y="280.8" width="10.8" height="31.2" fill="#f4ecd8" stroke="#2b2418" stroke-width="1.3"/>
<rect x="917.7" y="290.2" width="2.6" height="4.4" rx="2" fill="#2b2418" opacity="0.7"/>
<path d="M911.7,280.8 L919,264.6 L926.3,280.8 Z" fill="#3a5aa0" stroke="#2b2418" stroke-width="1.3" stroke-linejoin="round"/>
<rect x="955.6" y="280.8" width="10.8" height="31.2" fill="#f4ecd8" stroke="#2b2418" stroke-width="1.3"/>
<rect x="959.7" y="290.2" width="2.6" height="4.4" rx="2" fill="#2b2418" opacity="0.7"/>
<path d="M953.7,280.8 L961,264.6 L968.3,280.8 Z" fill="#3a5aa0" stroke="#2b2418" stroke-width="1.3" stroke-linejoin="round"/>
<rect x="932.8" y="266" width="14.4" height="27.6" fill="#f4ecd8" stroke="#2b2418" stroke-width="1.3"/>
<rect x="938.3" y="274.3" width="3.5" height="3.9" rx="2" fill="#2b2418" opacity="0.7"/>
<path d="M930.2,266 L940,244.4 L949.8,266 Z" fill="#3a5aa0" stroke="#2b2418" stroke-width="1.3" stroke-linejoin="round"/>
<path d="M940,242.4 v-9.6 l8.4,3 l-8.4,3" fill="#c0392b" stroke="#2b2418" stroke-width="1"/>
</g>
<path d="M810,530 C809.8,532.7 808.1,535.7 806.4,537.9 C804.7,540.2 801.4,541.3 799.7,543.6 C798.1,545.8 797.1,548.7 796.3,551.5 C795.6,554.2 797.3,558.1 795.3,560 C793.2,561.9 787.5,561.5 784,563.1 C780.6,564.8 777.4,567.3 774.5,569.8 C771.5,572.3 769.5,576.3 766.3,578.4 C763,580.4 759.2,582.6 755,582 C750.8,581.3 745.9,576.3 741,574.6 C736.1,573 730.4,571.2 725.5,572 C720.5,572.8 715.7,576.2 711.4,579.2 C707.2,582.2 704.4,588.2 700,590 C695.6,591.8 689.7,588.8 684.9,589.8 C680,590.8 675.4,596.4 671,596 C666.7,595.6 663.1,590 658.7,587.6 C654.4,585.3 649.1,583.6 645,582 C640.9,580.3 637.6,579.7 634.2,577.9 C630.8,576.1 627.8,573.6 624.7,571.3 C621.6,569 619,565.8 615.7,563.9 C612.4,562 607.1,561.9 604.7,560 C602.4,558.1 602.8,554.6 601.4,552.2 C600,549.8 597.4,548.1 596.1,545.6 C594.9,543.1 595,540 594,537.4 C593,534.8 589.8,532.3 590,530 C590.2,527.7 593.9,525.8 595.4,523.5 C596.9,521.1 597.9,518.4 598.9,515.8 C599.9,513.1 600.4,510.3 601.3,507.7 C602.3,505.1 602.3,502.4 604.7,500 C607.1,497.6 613.1,496.4 615.8,493.3 C618.4,490.2 617.8,483.7 620.7,481.3 C623.5,479 628.7,479.9 632.8,479.3 C636.8,478.8 640.6,477.8 645,478 C649.4,478.2 654.3,480.4 659,480.5 C663.7,480.6 668.5,479.5 673.2,478.6 C677.8,477.6 682.3,476.3 686.8,474.8 C691.2,473.4 695.3,472.6 700,470 C704.7,467.4 709.6,462.3 714.8,459 C719.9,455.8 726.2,449.6 731,450.4 C735.7,451.1 739.5,459.1 743.5,463.7 C747.5,468.4 751.1,475.3 755,478 C758.9,480.8 762.8,479.5 766.7,480.4 C770.5,481.3 774.8,481.5 778.2,483.4 C781.5,485.3 783.8,489 786.6,491.8 C789.5,494.6 793,497.5 795.3,500 C797.6,502.5 799,504.3 800.4,506.7 C801.9,509.1 802.8,511.8 804,514.3 C805.2,516.9 806.7,519.3 807.7,521.9 C808.7,524.5 810.2,527.3 810,530 Z" fill="#8a7a62" stroke="#2a1f14" stroke-width="1.8"/>
<rect x="750.8" y="550.7" width="7.2" height="3.9" fill="#5a4a3a" transform="rotate(61 750.8 550.7)"/>
<rect x="759.3" y="544.3" width="5.3" height="6.8" fill="#5a4a3a" transform="rotate(50 759.3 544.3)"/>
<rect x="788.8" y="551.3" width="8.2" height="6.8" fill="#5a4a3a" transform="rotate(69 788.8 551.3)"/>
<rect x="639.5" y="502.9" width="11.1" height="4.2" fill="#7a5a3a" transform="rotate(63 639.5 502.9)"/>
<rect x="627.1" y="514.5" width="9.3" height="3.6" fill="#7a5a3a" transform="rotate(41 627.1 514.5)"/>
<rect x="740.9" y="489.6" width="11.5" height="3.1" fill="#5a4a3a" transform="rotate(1 740.9 489.6)"/>
<rect x="626.8" y="517.8" width="9.3" height="4.1" fill="#6a6a6a" transform="rotate(24 626.8 517.8)"/>
<rect x="631" y="574" width="9.2" height="5.8" fill="#7a5a3a" transform="rotate(80 631 574)"/>
<rect x="763" y="496.8" width="7.6" height="4" fill="#6a6a6a" transform="rotate(75 763 496.8)"/>
<rect x="639.5" y="570.1" width="6.4" height="7" fill="#7a5a3a" transform="rotate(70 639.5 570.1)"/>
<rect x="726.9" y="548.5" width="7.1" height="6.7" fill="#7a5a3a" transform="rotate(32 726.9 548.5)"/>
<rect x="759.8" y="510.8" width="6.4" height="6.8" fill="#6a6a6a" transform="rotate(76 759.8 510.8)"/>
<rect x="761.8" y="559.9" width="9.5" height="4.8" fill="#6a6a6a" transform="rotate(30 761.8 559.9)"/>
<rect x="638.6" y="512.1" width="11.8" height="4.5" fill="#6a6a6a" transform="rotate(46 638.6 512.1)"/>
<rect x="781.1" y="528.6" width="9.4" height="6.8" fill="#5a4a3a" transform="rotate(59 781.1 528.6)"/>
<rect x="730.9" y="557.7" width="8.2" height="6.7" fill="#7a5a3a" transform="rotate(34 730.9 557.7)"/>
<rect x="750.4" y="564.7" width="6" height="3.7" fill="#5a4a3a" transform="rotate(28 750.4 564.7)"/>
<rect x="709.7" y="535.3" width="9.9" height="4" fill="#7a5a3a" transform="rotate(75 709.7 535.3)"/>
<rect x="716.2" y="513.3" width="9.5" height="3.1" fill="#6a6a6a" transform="rotate(61 716.2 513.3)"/>
<rect x="630.9" y="553.1" width="10.9" height="4.5" fill="#5a4a3a" transform="rotate(78 630.9 553.1)"/>
<rect x="704.3" y="546.7" width="7.4" height="4.5" fill="#6a6a6a" transform="rotate(14 704.3 546.7)"/>
<rect x="727.5" y="562.5" width="5.8" height="4.1" fill="#6a6a6a" transform="rotate(90 727.5 562.5)"/>
<rect x="727.9" y="538.6" width="6" height="6.3" fill="#7a5a3a" transform="rotate(62 727.9 538.6)"/>
<rect x="631.2" y="524" width="5.6" height="6.1" fill="#5a4a3a" transform="rotate(67 631.2 524)"/>
<rect x="632" y="512.2" width="11.7" height="4.8" fill="#7a5a3a" transform="rotate(26 632 512.2)"/>
<rect x="723.5" y="498.2" width="6.4" height="5.7" fill="#7a5a3a" transform="rotate(89 723.5 498.2)"/>
<rect x="663.2" y="515.6" width="9.4" height="4.6" fill="#5a4a3a" transform="rotate(86 663.2 515.6)"/>
<rect x="788.7" y="499" width="5.5" height="6" fill="#5a4a3a" transform="rotate(89 788.7 499)"/>
<rect x="726.2" y="526.3" width="8.8" height="3.9" fill="#5a4a3a" transform="rotate(23 726.2 526.3)"/>
<rect x="645.5" y="549.7" width="8.8" height="5" fill="#5a4a3a" transform="rotate(40 645.5 549.7)"/>
<rect x="641.7" y="533.2" width="11.6" height="3.3" fill="#5a4a3a" transform="rotate(86 641.7 533.2)"/>
<rect x="777.5" y="515.4" width="11.6" height="4.9" fill="#7a5a3a" transform="rotate(72 777.5 515.4)"/>
<rect x="726.8" y="485.4" width="9.3" height="5.4" fill="#6a6a6a" transform="rotate(9 726.8 485.4)"/>
<rect x="658.3" y="515.2" width="11" height="3" fill="#7a5a3a" transform="rotate(13 658.3 515.2)"/>
<rect x="722.4" y="537.8" width="8.4" height="5.2" fill="#5a4a3a" transform="rotate(51 722.4 537.8)"/>
<rect x="642.3" y="524.2" width="7" height="5.4" fill="#7a5a3a" transform="rotate(89 642.3 524.2)"/>
<rect x="708.3" y="562.5" width="11" height="3.6" fill="#6a6a6a" transform="rotate(67 708.3 562.5)"/>
<rect x="685.9" y="515.6" width="10.4" height="6.4" fill="#6a6a6a" transform="rotate(74 685.9 515.6)"/>
<rect x="707.2" y="574.2" width="6.6" height="6.1" fill="#6a6a6a" transform="rotate(32 707.2 574.2)"/>
<rect x="679" y="533.3" width="8.9" height="3.1" fill="#7a5a3a" transform="rotate(67 679 533.3)"/>
<path d="M640,500 q10,-30 20,0 M720,490 q10,-30 20,0" fill="none" stroke="#9a9a9a" stroke-width="5" opacity="0.6"/>
<path d="M250,540 C286.7,528.3 395,473.3 470,470 C545,466.7 640,526.7 700,520 C760,513.3 808.3,445 830,430" fill="none" stroke="#8a7550" stroke-width="10" stroke-linecap="round"/>
<path d="M250,540 C286.7,528.3 395,473.3 470,470 C545,466.7 640,526.7 700,520 C760,513.3 808.3,445 830,430" fill="none" stroke="#efe0b4" stroke-width="7" stroke-linecap="round"/>
<text x="500" y="210" font-family="Georgia, 'Times New Roman', serif" font-size="14" font-weight="bold" fill="#1f3418" text-anchor="middle" letter-spacing="5" stroke="#c9e0a0" stroke-width="3.08" stroke-linejoin="round" paint-order="stroke">MT. COLUBO</text>
<g stroke="#5a3a1a" stroke-width="3" stroke-linejoin="round">
<path d="M45.8,38.8 L8,38.8 L23.1,82.1 L8,107.6 L45.8,107.6 Z" fill="#c5b99a"/>
<path d="M422.3,38.8 L460.1,38.8 L445,82.1 L460.1,107.6 L422.3,107.6 Z" fill="#c5b99a"/>
<path d="M45.8,21.6 Q234.1,9.2 422.3,21.6 L422.3,90.4 Q234.1,78 45.8,90.4 Z" fill="#f1e2bc"/>
</g>
<text x="234.1" y="53.5" font-family="Georgia, 'Times New Roman', serif" font-size="32" font-weight="bold" fill="#4a2a10" text-anchor="middle" letter-spacing="3">Dawn Island</text>
<text x="234.1" y="76.6" font-family="Georgia, 'Times New Roman', serif" font-size="14.4" font-weight="normal" fill="#4a2a10" text-anchor="middle" letter-spacing="2" font-style="italic" opacity="0.85">East Blue · Regno di Goa / Goa Kingdom</text>
<g stroke="#2a1f14" stroke-width="1.4" stroke-linejoin="round">
<circle cx="1130" cy="90" r="25.9" fill="#f1e2bc" fill-opacity="0.75"/>
<circle cx="1130" cy="90" r="21.6" fill="none" stroke-dasharray="2 3"/>
<path d="M1130,90 L1124.2,90 L1130,54 Z" fill="#f1e2bc"/>
<path d="M1130,90 L1135.8,90 L1130,54 Z" fill="#c0392b"/>
<path d="M1130,90 L1126.9,86.9 L1145.8,74.2 Z" fill="#f1e2bc"/>
<path d="M1130,90 L1133.1,93.1 L1145.8,74.2 Z" fill="#2a1f14"/>
<path d="M1130,90 L1130,84.2 L1166,90 Z" fill="#f1e2bc"/>
<path d="M1130,90 L1130,95.8 L1166,90 Z" fill="#2a1f14"/>
<path d="M1130,90 L1133.1,86.9 L1145.8,105.8 Z" fill="#f1e2bc"/>
<path d="M1130,90 L1126.9,93.1 L1145.8,105.8 Z" fill="#2a1f14"/>
<path d="M1130,90 L1135.8,90 L1130,126 Z" fill="#f1e2bc"/>
<path d="M1130,90 L1124.2,90 L1130,126 Z" fill="#2a1f14"/>
<path d="M1130,90 L1133.1,93.1 L1114.2,105.8 Z" fill="#f1e2bc"/>
<path d="M1130,90 L1126.9,86.9 L1114.2,105.8 Z" fill="#2a1f14"/>
<path d="M1130,90 L1130,95.8 L1094,90 Z" fill="#f1e2bc"/>
<path d="M1130,90 L1130,84.2 L1094,90 Z" fill="#2a1f14"/>
<path d="M1130,90 L1126.9,93.1 L1114.2,74.2 Z" fill="#f1e2bc"/>
<path d="M1130,90 L1133.1,86.9 L1114.2,74.2 Z" fill="#2a1f14"/>
<circle cx="1130" cy="90" r="2.9" fill="#2a1f14"/>
</g>
<text x="1130" y="48" font-family="Georgia, 'Times New Roman', serif" font-size="15.1" font-weight="bold" fill="#2a1f14" text-anchor="middle" stroke="#f1e2bc" stroke-width="3" stroke-linejoin="round" paint-order="stroke">N</text>
</svg>
