<svg xmlns="http://www.w3.org/2000/svg" width="1400" height="1000" viewBox="0 0 1400 1000">
<title>The Paths · 道</title>
<!-- Ricostruzione originale AniMapVerse · CC0 · non è materiale ufficiale di Attack on Titan -->
<defs><linearGradient id="night" x1="0" y1="0" x2="0" y2="1"><stop offset="0" stop-color="#05060f"/><stop offset="0.7" stop-color="#141a33"/><stop offset="1" stop-color="#2a2a3a"/></linearGradient></defs>
<rect width="1400" height="1000" fill="url(#night)"/>
<g fill="#ffffff">
<circle cx="899.1" cy="48" r="1.6" opacity="0.84"/>
<circle cx="597.6" cy="263.9" r="0.4" opacity="0.49"/>
<circle cx="411.4" cy="599" r="0.7" opacity="0.40"/>
<circle cx="604.3" cy="367.7" r="1.2" opacity="0.75"/>
<circle cx="371.4" cy="364" r="1.1" opacity="0.93"/>
<circle cx="152.5" cy="5" r="0.5" opacity="0.62"/>
<circle cx="578.5" cy="574" r="1.5" opacity="0.88"/>
<circle cx="358" cy="593.9" r="0.5" opacity="0.54"/>
<circle cx="1323.6" cy="418.3" r="1.2" opacity="0.75"/>
<circle cx="484.7" cy="564.6" r="1.6" opacity="0.91"/>
<circle cx="1278.3" cy="407.4" r="1.4" opacity="0.67"/>
<circle cx="222.2" cy="383.7" r="1.4" opacity="0.30"/>
<circle cx="759.1" cy="401.7" r="1" opacity="0.26"/>
<circle cx="45.3" cy="13.7" r="1" opacity="0.36"/>
<circle cx="805.6" cy="463.2" r="1.3" opacity="0.23"/>
<circle cx="1059.8" cy="296.4" r="0.9" opacity="0.31"/>
<circle cx="844.8" cy="72.9" r="0.5" opacity="0.25"/>
<circle cx="1207.8" cy="417.1" r="0.6" opacity="0.69"/>
<circle cx="389.6" cy="5.4" r="0.9" opacity="0.57"/>
<circle cx="173.7" cy="68.5" r="0.8" opacity="0.46"/>
<circle cx="363" cy="228.3" r="1.1" opacity="0.27"/>
<circle cx="743.2" cy="260.1" r="1" opacity="0.49"/>
<circle cx="1090.1" cy="10.6" r="1.2" opacity="0.21"/>
<circle cx="905.9" cy="6.2" r="0.9" opacity="0.71"/>
<circle cx="103" cy="172.1" r="0.9" opacity="0.44"/>
<circle cx="758.7" cy="6.1" r="0.7" opacity="0.78"/>
<circle cx="420.9" cy="530.6" r="1.5" opacity="0.31"/>
<circle cx="1336.6" cy="195.8" r="0.4" opacity="0.89"/>
<circle cx="49.3" cy="131.5" r="1.3" opacity="0.56"/>
<circle cx="1088.6" cy="371.4" r="1" opacity="0.87"/>
<circle cx="490.3" cy="41" r="1.4" opacity="0.67"/>
<circle cx="691.1" cy="554.6" r="1" opacity="0.85"/>
<circle cx="575.3" cy="125" r="0.9" opacity="0.23"/>
<circle cx="782.8" cy="438.6" r="1.4" opacity="0.63"/>
<circle cx="391.1" cy="525.5" r="0.4" opacity="0.87"/>
<circle cx="198.1" cy="52.7" r="0.9" opacity="0.77"/>
<circle cx="826.5" cy="567.2" r="1.3" opacity="0.80"/>
<circle cx="497" cy="530.4" r="1.3" opacity="0.60"/>
<circle cx="15.7" cy="508" r="1.3" opacity="0.66"/>
<circle cx="719.2" cy="152.2" r="1.4" opacity="0.52"/>
<circle cx="1067.7" cy="396.2" r="1.2" opacity="0.53"/>
<circle cx="151.7" cy="599.5" r="0.9" opacity="0.90"/>
<circle cx="408.8" cy="164.5" r="1.5" opacity="0.75"/>
<circle cx="30.7" cy="497.4" r="1" opacity="0.37"/>
<circle cx="13" cy="560.4" r="1.5" opacity="0.66"/>
<circle cx="362.4" cy="402.3" r="1" opacity="0.68"/>
<circle cx="270.2" cy="504.1" r="1.4" opacity="0.32"/>
<circle cx="1349.3" cy="587.5" r="1.5" opacity="0.42"/>
<circle cx="1162.7" cy="454.9" r="1.2" opacity="0.75"/>
<circle cx="1218.8" cy="87" r="1.1" opacity="0.40"/>
<circle cx="127.8" cy="205.4" r="1" opacity="0.93"/>
<circle cx="639.5" cy="471.2" r="1.4" opacity="0.32"/>
<circle cx="141.3" cy="523.2" r="0.9" opacity="0.59"/>
<circle cx="332.3" cy="615.6" r="0.4" opacity="0.76"/>
<circle cx="697.6" cy="44.7" r="0.8" opacity="0.46"/>
<circle cx="1286.4" cy="57.2" r="0.9" opacity="0.40"/>
<circle cx="812.3" cy="54.3" r="0.5" opacity="0.37"/>
<circle cx="247.7" cy="73.8" r="0.8" opacity="0.35"/>
<circle cx="578" cy="523.4" r="1.1" opacity="0.62"/>
<circle cx="271.9" cy="338.9" r="0.7" opacity="0.87"/>
<circle cx="276.3" cy="265.6" r="1.1" opacity="0.21"/>
<circle cx="1197.9" cy="268" r="0.7" opacity="0.41"/>
<circle cx="1174" cy="356.8" r="1.3" opacity="0.61"/>
<circle cx="1066.6" cy="571.3" r="1.5" opacity="0.82"/>
<circle cx="765.5" cy="247.8" r="0.7" opacity="0.29"/>
<circle cx="877.7" cy="130.1" r="1.4" opacity="0.65"/>
<circle cx="1224.8" cy="423.4" r="1.5" opacity="0.56"/>
<circle cx="384.2" cy="26.8" r="0.8" opacity="0.79"/>
<circle cx="0.2" cy="43.8" r="1.3" opacity="0.54"/>
<circle cx="774.5" cy="409.4" r="0.9" opacity="0.50"/>
<circle cx="1327.4" cy="246.4" r="0.5" opacity="0.51"/>
<circle cx="1000.8" cy="364.4" r="1.4" opacity="0.64"/>
<circle cx="165.7" cy="500.7" r="1" opacity="0.88"/>
<circle cx="1130" cy="529.3" r="0.5" opacity="0.54"/>
<circle cx="197.6" cy="159.6" r="1.6" opacity="0.64"/>
<circle cx="55" cy="114" r="1.2" opacity="0.75"/>
<circle cx="1209" cy="154.3" r="1.3" opacity="0.69"/>
<circle cx="96.3" cy="11.3" r="1.4" opacity="0.79"/>
<circle cx="1138.2" cy="141" r="0.7" opacity="0.49"/>
<circle cx="93.3" cy="285.3" r="0.6" opacity="0.23"/>
<circle cx="1054.1" cy="131.2" r="0.5" opacity="0.31"/>
<circle cx="1287.2" cy="515.9" r="1.4" opacity="0.52"/>
<circle cx="552.6" cy="150.4" r="0.7" opacity="0.29"/>
<circle cx="37.4" cy="184.2" r="0.5" opacity="0.40"/>
<circle cx="584.2" cy="149.7" r="0.5" opacity="0.91"/>
<circle cx="427.3" cy="123.5" r="1" opacity="0.54"/>
<circle cx="135.2" cy="111.9" r="1.4" opacity="0.40"/>
<circle cx="1237.1" cy="90.7" r="1.4" opacity="0.46"/>
<circle cx="520.1" cy="436.3" r="0.7" opacity="0.39"/>
<circle cx="1001.6" cy="170.9" r="0.6" opacity="0.53"/>
<circle cx="56" cy="314" r="1" opacity="0.53"/>
<circle cx="222" cy="340.9" r="1.5" opacity="0.51"/>
<circle cx="669.7" cy="15" r="0.5" opacity="0.82"/>
<circle cx="1193.7" cy="184" r="1.1" opacity="0.29"/>
<circle cx="1239" cy="336.2" r="1.1" opacity="0.85"/>
<circle cx="54.8" cy="369.7" r="1.1" opacity="0.29"/>
<circle cx="1351.8" cy="75.6" r="1.4" opacity="0.71"/>
<circle cx="1061.6" cy="438.7" r="1.4" opacity="0.45"/>
<circle cx="896.7" cy="427.1" r="0.7" opacity="0.23"/>
<circle cx="698.5" cy="471.9" r="1" opacity="0.35"/>
<circle cx="671.2" cy="115.6" r="1.1" opacity="0.64"/>
<circle cx="810.7" cy="208.4" r="0.9" opacity="0.46"/>
<circle cx="244.7" cy="42.4" r="0.8" opacity="0.35"/>
<circle cx="993.3" cy="353.6" r="1.5" opacity="0.90"/>
<circle cx="311.1" cy="528.9" r="1.3" opacity="0.79"/>
<circle cx="152.2" cy="229.2" r="0.6" opacity="0.32"/>
<circle cx="144.6" cy="419.7" r="1.2" opacity="0.88"/>
<circle cx="598.4" cy="159.1" r="0.5" opacity="0.70"/>
<circle cx="66.1" cy="324.9" r="1.1" opacity="0.85"/>
<circle cx="210.7" cy="24.8" r="1.3" opacity="0.71"/>
<circle cx="976.4" cy="219.1" r="0.7" opacity="0.68"/>
<circle cx="289.4" cy="476.9" r="0.5" opacity="0.88"/>
<circle cx="769.3" cy="567.6" r="0.4" opacity="0.35"/>
<circle cx="487" cy="446.6" r="0.6" opacity="0.23"/>
<circle cx="86.5" cy="282.5" r="0.8" opacity="0.44"/>
<circle cx="1387.7" cy="435.3" r="0.4" opacity="0.41"/>
<circle cx="486" cy="578.8" r="1.1" opacity="0.46"/>
<circle cx="436.5" cy="566.8" r="1.2" opacity="0.68"/>
<circle cx="509" cy="575.3" r="1.5" opacity="0.77"/>
<circle cx="1010.6" cy="245.9" r="0.6" opacity="0.22"/>
<circle cx="26.4" cy="393.9" r="1.4" opacity="0.48"/>
<circle cx="509.3" cy="97.5" r="1.2" opacity="0.50"/>
<circle cx="954.6" cy="100.6" r="1.5" opacity="0.61"/>
<circle cx="194.6" cy="148.5" r="1.4" opacity="0.33"/>
<circle cx="979.4" cy="538.4" r="0.6" opacity="0.78"/>
<circle cx="55" cy="504.7" r="1" opacity="0.25"/>
<circle cx="305.2" cy="230.2" r="0.6" opacity="0.41"/>
<circle cx="857.2" cy="370.6" r="0.8" opacity="0.93"/>
<circle cx="722.2" cy="441.2" r="1.4" opacity="0.21"/>
<circle cx="248.3" cy="64.7" r="1.2" opacity="0.31"/>
<circle cx="547.9" cy="106.5" r="1.2" opacity="0.37"/>
<circle cx="1066.3" cy="561.7" r="1" opacity="0.68"/>
<circle cx="789.1" cy="486.6" r="1.2" opacity="0.75"/>
<circle cx="224.1" cy="387.2" r="1.2" opacity="0.52"/>
<circle cx="168.6" cy="97.9" r="1.4" opacity="0.23"/>
<circle cx="909.5" cy="544.1" r="1.5" opacity="0.51"/>
<circle cx="109.4" cy="545.5" r="0.7" opacity="0.45"/>
<circle cx="248.8" cy="106.9" r="0.8" opacity="0.38"/>
<circle cx="966.6" cy="319" r="0.5" opacity="0.78"/>
<circle cx="767.2" cy="351.8" r="1.4" opacity="0.51"/>
<circle cx="1360.8" cy="20.5" r="0.9" opacity="0.89"/>
<circle cx="99" cy="24.4" r="0.5" opacity="0.75"/>
<circle cx="1280.7" cy="87.7" r="0.7" opacity="0.27"/>
<circle cx="316.6" cy="113.7" r="1.5" opacity="0.62"/>
<circle cx="323.6" cy="232.5" r="1" opacity="0.36"/>
<circle cx="415.4" cy="430.3" r="1.1" opacity="0.87"/>
<circle cx="884.5" cy="550.5" r="0.6" opacity="0.70"/>
<circle cx="1013.3" cy="33.8" r="0.7" opacity="0.47"/>
<circle cx="336.9" cy="231.3" r="1.3" opacity="0.72"/>
<circle cx="1152.9" cy="605.5" r="1.1" opacity="0.50"/>
<circle cx="213.7" cy="376.9" r="0.4" opacity="0.20"/>
<circle cx="1239.1" cy="305.9" r="1.3" opacity="0.54"/>
<circle cx="1172.2" cy="52.8" r="1.6" opacity="0.80"/>
<circle cx="916.9" cy="216.4" r="1.5" opacity="0.59"/>
<circle cx="1113.2" cy="215.1" r="1.4" opacity="0.21"/>
<circle cx="1013.4" cy="457.8" r="1.4" opacity="0.61"/>
<circle cx="241.3" cy="376.4" r="0.8" opacity="0.70"/>
<circle cx="1011.4" cy="137" r="0.8" opacity="0.85"/>
<circle cx="952.3" cy="416.4" r="0.8" opacity="0.68"/>
<circle cx="511.2" cy="618.3" r="1.2" opacity="0.60"/>
<circle cx="665.4" cy="502.3" r="1" opacity="0.81"/>
<circle cx="1258.7" cy="547.9" r="1.4" opacity="0.82"/>
<circle cx="1010.9" cy="411.2" r="0.5" opacity="0.66"/>
<circle cx="1315.6" cy="204.2" r="0.5" opacity="0.56"/>
<circle cx="427.6" cy="407.2" r="0.8" opacity="0.88"/>
<circle cx="1214.7" cy="72.7" r="1.2" opacity="0.80"/>
<circle cx="880.7" cy="284.3" r="1.1" opacity="0.58"/>
<circle cx="1170.1" cy="355.5" r="1.1" opacity="0.29"/>
<circle cx="680.6" cy="600.7" r="0.9" opacity="0.35"/>
<circle cx="920.8" cy="490.1" r="0.6" opacity="0.22"/>
<circle cx="419.2" cy="64.3" r="1.4" opacity="0.52"/>
<circle cx="500.1" cy="275.1" r="0.4" opacity="0.88"/>
<circle cx="900.1" cy="44.6" r="1.1" opacity="0.50"/>
<circle cx="564.3" cy="303" r="0.8" opacity="0.69"/>
<circle cx="1088.6" cy="410.4" r="1.3" opacity="0.30"/>
<circle cx="221.6" cy="221.7" r="0.7" opacity="0.40"/>
<circle cx="9.2" cy="501.9" r="0.5" opacity="0.46"/>
<circle cx="572.6" cy="387.8" r="1.5" opacity="0.57"/>
<circle cx="614.3" cy="226.9" r="0.9" opacity="0.44"/>
<circle cx="622.8" cy="569.6" r="1.3" opacity="0.76"/>
<circle cx="472.1" cy="345.5" r="1" opacity="0.70"/>
<circle cx="1282.6" cy="164.6" r="1.1" opacity="0.63"/>
<circle cx="206.3" cy="283.3" r="0.9" opacity="0.75"/>
<circle cx="1071.5" cy="473.6" r="0.9" opacity="0.80"/>
<circle cx="498.5" cy="279.4" r="0.4" opacity="0.68"/>
<circle cx="1100.3" cy="481" r="1.5" opacity="0.23"/>
<circle cx="407.7" cy="436.1" r="0.4" opacity="0.34"/>
<circle cx="854.8" cy="508.7" r="1" opacity="0.69"/>
<circle cx="818.1" cy="113.6" r="1.5" opacity="0.77"/>
<circle cx="1132.5" cy="99.7" r="1.5" opacity="0.43"/>
<circle cx="1024.1" cy="481" r="1" opacity="0.82"/>
<circle cx="398.9" cy="279.6" r="1.2" opacity="0.57"/>
<circle cx="237.2" cy="105" r="0.5" opacity="0.22"/>
<circle cx="800.8" cy="230.5" r="0.7" opacity="0.52"/>
<circle cx="1016.2" cy="597.1" r="1.3" opacity="0.67"/>
<circle cx="399.1" cy="35.4" r="1.5" opacity="0.71"/>
<circle cx="839.2" cy="198.3" r="0.7" opacity="0.58"/>
<circle cx="588.7" cy="368.7" r="0.5" opacity="0.79"/>
<circle cx="64.5" cy="582" r="0.9" opacity="0.71"/>
<circle cx="1184.8" cy="77.2" r="1" opacity="0.82"/>
<circle cx="1207.4" cy="289.1" r="1" opacity="0.56"/>
<circle cx="1199.8" cy="502.9" r="0.7" opacity="0.88"/>
<circle cx="419.9" cy="346.3" r="1.2" opacity="0.66"/>
<circle cx="942.8" cy="68.3" r="1.2" opacity="0.63"/>
<circle cx="1306.7" cy="338.1" r="1.6" opacity="0.55"/>
<circle cx="1210.6" cy="601.1" r="1.1" opacity="0.23"/>
<circle cx="580" cy="3.1" r="1.5" opacity="0.78"/>
<circle cx="391.8" cy="167" r="0.5" opacity="0.67"/>
<circle cx="217.1" cy="359.4" r="1.3" opacity="0.91"/>
<circle cx="655.9" cy="181.9" r="1.1" opacity="0.81"/>
<circle cx="951.8" cy="320.6" r="0.7" opacity="0.82"/>
<circle cx="1370.3" cy="443.4" r="1.2" opacity="0.94"/>
<circle cx="61.8" cy="386.3" r="1.3" opacity="0.24"/>
<circle cx="150.3" cy="238.9" r="0.9" opacity="0.44"/>
<circle cx="1146.6" cy="104.5" r="0.6" opacity="0.34"/>
<circle cx="136.8" cy="172.9" r="0.7" opacity="0.70"/>
<circle cx="163.1" cy="492.7" r="1.1" opacity="0.32"/>
<circle cx="1396" cy="378.9" r="0.4" opacity="0.77"/>
<circle cx="1182.9" cy="206.4" r="0.5" opacity="0.39"/>
<circle cx="729.1" cy="417" r="0.4" opacity="0.24"/>
<circle cx="296" cy="74.6" r="1.1" opacity="0.88"/>
<circle cx="1030.7" cy="321.1" r="0.9" opacity="0.84"/>
<circle cx="1329.4" cy="226.7" r="1.1" opacity="0.80"/>
<circle cx="735.6" cy="614.6" r="1.5" opacity="0.30"/>
<circle cx="869.4" cy="251.1" r="0.4" opacity="0.51"/>
<circle cx="289.9" cy="34.7" r="0.4" opacity="0.45"/>
<circle cx="1336.4" cy="68.2" r="0.6" opacity="0.33"/>
<circle cx="492.4" cy="612.8" r="0.6" opacity="0.49"/>
<circle cx="126.9" cy="157.8" r="1.4" opacity="0.82"/>
<circle cx="853" cy="401" r="1.2" opacity="0.61"/>
<circle cx="1304.7" cy="83.2" r="1" opacity="0.50"/>
<circle cx="983.9" cy="118.4" r="1" opacity="0.45"/>
<circle cx="298.1" cy="463.5" r="1.5" opacity="0.67"/>
<circle cx="369.4" cy="90.5" r="1.5" opacity="0.89"/>
<circle cx="474.4" cy="285.4" r="0.6" opacity="0.93"/>
<circle cx="1103.7" cy="448.6" r="1.2" opacity="0.74"/>
<circle cx="917.5" cy="479" r="1" opacity="0.95"/>
<circle cx="924.8" cy="567.7" r="0.5" opacity="0.95"/>
<circle cx="1283.3" cy="304.6" r="0.7" opacity="0.21"/>
<circle cx="1063.5" cy="15.6" r="0.7" opacity="0.73"/>
<circle cx="243.7" cy="66.9" r="0.8" opacity="0.90"/>
<circle cx="493.5" cy="551.3" r="1.2" opacity="0.84"/>
<circle cx="134.5" cy="589.5" r="1.2" opacity="0.80"/>
<circle cx="1254.8" cy="384.4" r="0.7" opacity="0.86"/>
<circle cx="742.8" cy="240.6" r="1.4" opacity="0.23"/>
<circle cx="1074.5" cy="618.7" r="0.6" opacity="0.33"/>
<circle cx="676.7" cy="57.8" r="0.7" opacity="0.54"/>
<circle cx="423.3" cy="158.8" r="0.9" opacity="0.39"/>
<circle cx="441.3" cy="303.5" r="0.8" opacity="0.48"/>
<circle cx="912.1" cy="607.5" r="0.7" opacity="0.57"/>
<circle cx="965.6" cy="63.5" r="0.8" opacity="0.24"/>
<circle cx="1082.3" cy="161.6" r="0.6" opacity="0.64"/>
<circle cx="1245.2" cy="142.3" r="0.7" opacity="0.93"/>
<circle cx="937.2" cy="515.1" r="0.6" opacity="0.91"/>
<circle cx="599.7" cy="605.4" r="0.5" opacity="0.91"/>
<circle cx="171.7" cy="565.5" r="0.8" opacity="0.53"/>
<circle cx="1266.2" cy="50.6" r="0.9" opacity="0.66"/>
<circle cx="837.2" cy="35.7" r="0.5" opacity="0.60"/>
<circle cx="944.5" cy="203.2" r="1.4" opacity="0.67"/>
<circle cx="1184" cy="459.8" r="1.3" opacity="0.60"/>
<circle cx="429.8" cy="578.1" r="0.9" opacity="0.83"/>
<circle cx="34.7" cy="459.5" r="1.3" opacity="0.59"/>
<circle cx="906.1" cy="416.7" r="1.5" opacity="0.81"/>
<circle cx="561.4" cy="393.5" r="1" opacity="0.45"/>
<circle cx="1270.1" cy="111.5" r="0.7" opacity="0.69"/>
<circle cx="377.5" cy="25.3" r="0.5" opacity="0.72"/>
<circle cx="1362.7" cy="52.8" r="1.6" opacity="0.35"/>
<circle cx="1353.5" cy="373.4" r="0.8" opacity="0.59"/>
<circle cx="782.6" cy="27.3" r="0.5" opacity="0.94"/>
<circle cx="394.4" cy="167.2" r="0.8" opacity="0.73"/>
<circle cx="1230.8" cy="187.3" r="0.6" opacity="0.71"/>
<circle cx="430.6" cy="293" r="1.1" opacity="0.56"/>
<circle cx="1072.8" cy="384.8" r="0.5" opacity="0.80"/>
<circle cx="28" cy="258.8" r="1.1" opacity="0.94"/>
<circle cx="1320.5" cy="214.8" r="1.4" opacity="0.78"/>
<circle cx="507.2" cy="226.2" r="1.2" opacity="0.55"/>
<circle cx="657.8" cy="79.2" r="1.1" opacity="0.83"/>
<circle cx="554" cy="486.3" r="1" opacity="0.80"/>
<circle cx="467" cy="173.5" r="1.3" opacity="0.95"/>
<circle cx="1216.7" cy="352.3" r="0.6" opacity="0.20"/>
<circle cx="13.9" cy="555.7" r="1.6" opacity="0.21"/>
<circle cx="541.3" cy="438.8" r="1.1" opacity="0.48"/>
<circle cx="1352.5" cy="522.4" r="1.3" opacity="0.70"/>
<circle cx="1045.7" cy="26.6" r="1.4" opacity="0.38"/>
<circle cx="150.2" cy="517.4" r="1.3" opacity="0.86"/>
<circle cx="181.8" cy="419.7" r="0.4" opacity="0.36"/>
<circle cx="1078.5" cy="194.4" r="0.9" opacity="0.25"/>
<circle cx="1280.2" cy="357.9" r="0.8" opacity="0.45"/>
<circle cx="1164.6" cy="69.8" r="1" opacity="0.94"/>
<circle cx="1139.3" cy="229.1" r="0.9" opacity="0.53"/>
<circle cx="684.9" cy="520" r="1.1" opacity="0.70"/>
<circle cx="1338" cy="235.8" r="1.5" opacity="0.93"/>
<circle cx="762.3" cy="109.3" r="0.7" opacity="0.65"/>
<circle cx="684.2" cy="148.3" r="0.6" opacity="0.50"/>
<circle cx="1200.8" cy="287.9" r="0.4" opacity="0.79"/>
<circle cx="630.4" cy="553.4" r="0.5" opacity="0.37"/>
<circle cx="365.3" cy="8.1" r="0.9" opacity="0.67"/>
<circle cx="806.2" cy="31.3" r="0.4" opacity="0.82"/>
<circle cx="1319.4" cy="26.9" r="0.9" opacity="0.36"/>
<circle cx="199" cy="87.8" r="0.6" opacity="0.37"/>
<circle cx="1265.5" cy="43.1" r="0.8" opacity="0.63"/>
<circle cx="498.7" cy="80.7" r="1.5" opacity="0.40"/>
<circle cx="1228.8" cy="280.6" r="1.5" opacity="0.51"/>
<circle cx="1292.9" cy="92.6" r="0.6" opacity="0.39"/>
<circle cx="1391" cy="513" r="1.1" opacity="0.81"/>
<circle cx="25.3" cy="584.6" r="0.4" opacity="0.44"/>
<circle cx="859.2" cy="152.8" r="1.2" opacity="0.33"/>
<circle cx="407.2" cy="332.6" r="0.5" opacity="0.94"/>
<circle cx="605.7" cy="557.2" r="0.7" opacity="0.74"/>
<circle cx="795.5" cy="127.8" r="0.6" opacity="0.43"/>
<circle cx="347.8" cy="249.6" r="1" opacity="0.26"/>
<circle cx="1006.5" cy="222.4" r="1.4" opacity="0.37"/>
<circle cx="884.1" cy="130.5" r="0.7" opacity="0.89"/>
<circle cx="1003.6" cy="163.7" r="0.9" opacity="0.80"/>
<circle cx="1297.9" cy="569.1" r="1" opacity="0.83"/>
<circle cx="1129.6" cy="113.3" r="1.1" opacity="0.74"/>
<circle cx="833" cy="488.1" r="0.6" opacity="0.95"/>
<circle cx="460.9" cy="283.1" r="0.9" opacity="0.86"/>
<circle cx="333.1" cy="520.8" r="1.4" opacity="0.44"/>
<circle cx="591.5" cy="309.9" r="0.8" opacity="0.54"/>
<circle cx="735.3" cy="3.2" r="1" opacity="0.91"/>
<circle cx="1370.5" cy="350.6" r="0.7" opacity="0.43"/>
<circle cx="61.7" cy="542.1" r="0.8" opacity="0.61"/>
<circle cx="989.9" cy="469.1" r="1.3" opacity="0.81"/>
<circle cx="1259.4" cy="96.4" r="0.8" opacity="0.33"/>
<circle cx="689.2" cy="33.4" r="1.4" opacity="0.23"/>
<circle cx="1374" cy="59.3" r="1.3" opacity="0.55"/>
<circle cx="266.5" cy="542.5" r="1" opacity="0.40"/>
<circle cx="1272.4" cy="76" r="0.4" opacity="0.76"/>
<circle cx="836.2" cy="297.6" r="0.6" opacity="0.74"/>
<circle cx="1127.2" cy="175.6" r="1.1" opacity="0.72"/>
<circle cx="1186.2" cy="466.5" r="0.4" opacity="0.81"/>
<circle cx="578.6" cy="269" r="0.6" opacity="0.67"/>
<circle cx="1037.3" cy="183.9" r="0.9" opacity="0.59"/>
<circle cx="989.8" cy="260.1" r="1.2" opacity="0.43"/>
<circle cx="326.2" cy="64.6" r="1.2" opacity="0.41"/>
<circle cx="1389" cy="510.8" r="0.9" opacity="0.58"/>
<circle cx="356" cy="288.9" r="0.8" opacity="0.65"/>
<circle cx="624.1" cy="52" r="0.6" opacity="0.72"/>
<circle cx="1092.4" cy="180.5" r="0.9" opacity="0.65"/>
<circle cx="171.3" cy="48.4" r="0.8" opacity="0.48"/>
<circle cx="1197.3" cy="303.4" r="0.8" opacity="0.92"/>
<circle cx="857.8" cy="534.8" r="0.8" opacity="0.40"/>
<circle cx="1369.2" cy="544.5" r="0.5" opacity="0.74"/>
<circle cx="474.7" cy="249.3" r="1.4" opacity="0.76"/>
<circle cx="1077.8" cy="345" r="0.7" opacity="0.69"/>
<circle cx="286.1" cy="126.7" r="1" opacity="0.42"/>
<circle cx="396.1" cy="188" r="0.8" opacity="0.84"/>
<circle cx="983" cy="0.3" r="1.6" opacity="0.88"/>
<circle cx="8.9" cy="60.1" r="0.8" opacity="0.72"/>
<circle cx="498.7" cy="543.4" r="1.4" opacity="0.68"/>
<circle cx="510.6" cy="94.1" r="1" opacity="0.94"/>
<circle cx="1255.3" cy="404.4" r="0.7" opacity="0.41"/>
<circle cx="237.8" cy="219.9" r="1" opacity="0.83"/>
<circle cx="915.9" cy="48.5" r="1.3" opacity="0.69"/>
<circle cx="786.7" cy="289.5" r="1.4" opacity="0.29"/>
<circle cx="700.6" cy="36.5" r="0.7" opacity="0.81"/>
<circle cx="1391.3" cy="570.5" r="0.6" opacity="0.25"/>
<circle cx="1247.5" cy="156.9" r="0.7" opacity="0.87"/>
<circle cx="444.8" cy="234.7" r="1.1" opacity="0.22"/>
<circle cx="64.5" cy="593.9" r="1.1" opacity="0.34"/>
<circle cx="425" cy="86.5" r="0.5" opacity="0.75"/>
<circle cx="430.3" cy="572.6" r="0.4" opacity="0.84"/>
<circle cx="63.2" cy="35" r="0.5" opacity="0.38"/>
<circle cx="554.4" cy="359.5" r="0.5" opacity="0.35"/>
<circle cx="227.4" cy="378.7" r="0.8" opacity="0.24"/>
<circle cx="360.7" cy="533.8" r="0.5" opacity="0.52"/>
<circle cx="253.8" cy="21.3" r="0.8" opacity="0.64"/>
<circle cx="1033.3" cy="415.9" r="0.9" opacity="0.68"/>
<circle cx="870.4" cy="581.8" r="1.3" opacity="0.28"/>
<circle cx="201.1" cy="204.6" r="0.9" opacity="0.61"/>
<circle cx="1001.6" cy="92" r="1.3" opacity="0.61"/>
<circle cx="1040.7" cy="244.2" r="0.7" opacity="0.82"/>
<circle cx="224.3" cy="309.3" r="0.7" opacity="0.61"/>
<circle cx="637.9" cy="414.8" r="1.3" opacity="0.69"/>
<circle cx="411" cy="337.5" r="1" opacity="0.89"/>
<circle cx="1260.4" cy="475.3" r="1" opacity="0.32"/>
<circle cx="1143.9" cy="39.5" r="0.5" opacity="0.29"/>
<circle cx="1082.2" cy="262.1" r="0.5" opacity="0.25"/>
<circle cx="487.8" cy="377.7" r="1" opacity="0.83"/>
<circle cx="1169.9" cy="428.1" r="0.7" opacity="0.38"/>
<circle cx="1009.9" cy="358.9" r="1.2" opacity="0.70"/>
<circle cx="323.1" cy="457.2" r="0.6" opacity="0.87"/>
<circle cx="786.8" cy="588.3" r="1.3" opacity="0.26"/>
<circle cx="737.8" cy="203.4" r="0.4" opacity="0.71"/>
<circle cx="1300" cy="492.6" r="1.1" opacity="0.64"/>
<circle cx="984.2" cy="314" r="1.6" opacity="0.73"/>
<circle cx="597.1" cy="45.3" r="1.2" opacity="0.42"/>
<circle cx="1176.5" cy="291.4" r="1.6" opacity="0.88"/>
<circle cx="514.4" cy="241.9" r="0.6" opacity="0.65"/>
<circle cx="190.3" cy="504.2" r="0.8" opacity="0.25"/>
<circle cx="769.6" cy="477.5" r="1" opacity="0.62"/>
<circle cx="1381.7" cy="2.3" r="1.6" opacity="0.34"/>
<circle cx="898.9" cy="500.6" r="0.8" opacity="0.43"/>
<circle cx="921.5" cy="23.2" r="1.2" opacity="0.58"/>
<circle cx="1291.1" cy="260.9" r="0.8" opacity="0.43"/>
<circle cx="1278.7" cy="282.9" r="0.8" opacity="0.29"/>
<circle cx="189.9" cy="168.1" r="1.1" opacity="0.29"/>
<circle cx="1078.6" cy="564.2" r="0.9" opacity="0.67"/>
<circle cx="82" cy="578.9" r="1.3" opacity="0.77"/>
<circle cx="1286.6" cy="450.3" r="1.1" opacity="0.58"/>
<circle cx="26.1" cy="513.3" r="0.5" opacity="0.39"/>
<circle cx="987.3" cy="425.9" r="1.6" opacity="0.79"/>
<circle cx="1164.2" cy="552.1" r="0.9" opacity="0.88"/>
<circle cx="317.4" cy="225.7" r="1" opacity="0.87"/>
<circle cx="1354" cy="576.3" r="1.5" opacity="0.45"/>
<circle cx="1057.8" cy="153.1" r="1.4" opacity="0.43"/>
<circle cx="1339.1" cy="569.9" r="1.3" opacity="0.57"/>
<circle cx="698.9" cy="239.5" r="1" opacity="0.67"/>
<circle cx="1034.9" cy="275.8" r="1.6" opacity="0.27"/>
<circle cx="713.1" cy="618.9" r="1.3" opacity="0.44"/>
<circle cx="200.3" cy="342.8" r="1.2" opacity="0.29"/>
<circle cx="683.2" cy="547.4" r="0.9" opacity="0.27"/>
<circle cx="1.2" cy="294.7" r="1.2" opacity="0.45"/>
<circle cx="342.2" cy="144.8" r="1.4" opacity="0.42"/>
<circle cx="1174.3" cy="62" r="1" opacity="0.74"/>
<circle cx="873.3" cy="47.8" r="0.9" opacity="0.57"/>
<circle cx="452.2" cy="291.1" r="0.4" opacity="0.76"/>
<circle cx="506.9" cy="152.1" r="1.3" opacity="0.74"/>
<circle cx="660.4" cy="129" r="0.5" opacity="0.31"/>
<circle cx="1154.8" cy="57.1" r="0.8" opacity="0.33"/>
<circle cx="805.5" cy="510.4" r="1" opacity="0.74"/>
<circle cx="477.1" cy="546.5" r="1.5" opacity="0.80"/>
<circle cx="294.9" cy="612.1" r="1.3" opacity="0.63"/>
<circle cx="684.2" cy="226.5" r="0.4" opacity="0.38"/>
<circle cx="774.7" cy="425.5" r="0.5" opacity="0.43"/>
<circle cx="238.1" cy="334.6" r="1.5" opacity="0.30"/>
<circle cx="1096.9" cy="464.9" r="0.9" opacity="0.94"/>
<circle cx="1186.8" cy="410.5" r="0.6" opacity="0.72"/>
<circle cx="1318.1" cy="476.5" r="0.4" opacity="0.91"/>
<circle cx="348.5" cy="155.5" r="0.8" opacity="0.66"/>
<circle cx="912.5" cy="74.2" r="1.4" opacity="0.50"/>
<circle cx="888.7" cy="322.7" r="1.5" opacity="0.73"/>
<circle cx="245.1" cy="593.1" r="1.1" opacity="0.58"/>
<circle cx="1094" cy="129.2" r="0.4" opacity="0.49"/>
<circle cx="790.7" cy="59.3" r="1.3" opacity="0.37"/>
<circle cx="352.1" cy="544" r="1.1" opacity="0.63"/>
<circle cx="1172.2" cy="294.9" r="1.3" opacity="0.45"/>
<circle cx="1306.8" cy="413.6" r="1" opacity="0.68"/>
<circle cx="1196.6" cy="315.2" r="1" opacity="0.86"/>
<circle cx="1093.5" cy="518" r="1.2" opacity="0.73"/>
<circle cx="1295.1" cy="584.3" r="1.5" opacity="0.93"/>
<circle cx="584.4" cy="142.6" r="1.4" opacity="0.59"/>
<circle cx="1190.9" cy="496.5" r="1.3" opacity="0.86"/>
<circle cx="950.9" cy="535.8" r="0.7" opacity="0.55"/>
<circle cx="1387.1" cy="181.1" r="1.4" opacity="0.58"/>
<circle cx="197.7" cy="607.8" r="1.5" opacity="0.39"/>
<circle cx="667.1" cy="366" r="1.2" opacity="0.38"/>
<circle cx="165.8" cy="506" r="0.9" opacity="0.67"/>
<circle cx="333.5" cy="521" r="1.5" opacity="0.37"/>
<circle cx="662.2" cy="29.7" r="0.5" opacity="0.63"/>
<circle cx="454.8" cy="169" r="1.1" opacity="0.60"/>
<circle cx="591.6" cy="543.1" r="0.7" opacity="0.74"/>
<circle cx="732.5" cy="547" r="0.6" opacity="0.45"/>
<circle cx="993.6" cy="164.4" r="0.7" opacity="0.33"/>
<circle cx="1112" cy="282.1" r="1.2" opacity="0.58"/>
<circle cx="1082.7" cy="275.9" r="0.7" opacity="0.91"/>
<circle cx="36.5" cy="580.5" r="1.5" opacity="0.59"/>
<circle cx="925.2" cy="465.1" r="1" opacity="0.24"/>
<circle cx="1287.1" cy="494.3" r="1.4" opacity="0.89"/>
<circle cx="420.7" cy="318.3" r="1.5" opacity="0.36"/>
<circle cx="1039.6" cy="398.9" r="0.5" opacity="0.50"/>
<circle cx="1048.3" cy="550" r="0.8" opacity="0.44"/>
<circle cx="989" cy="320.3" r="0.5" opacity="0.81"/>
<circle cx="892.3" cy="551.6" r="0.9" opacity="0.35"/>
<circle cx="385.5" cy="68.3" r="0.6" opacity="0.76"/>
<circle cx="371.8" cy="208.2" r="0.6" opacity="0.69"/>
<circle cx="608.2" cy="497.6" r="0.5" opacity="0.24"/>
<circle cx="1140.5" cy="59.4" r="1" opacity="0.95"/>
<circle cx="530.1" cy="71.3" r="1.4" opacity="0.39"/>
<circle cx="1160.1" cy="510.3" r="1.1" opacity="0.86"/>
<circle cx="133.6" cy="580.6" r="0.6" opacity="0.52"/>
<circle cx="56" cy="50.6" r="1.6" opacity="0.71"/>
<circle cx="551.4" cy="605.1" r="0.6" opacity="0.83"/>
<circle cx="967.3" cy="8.6" r="1" opacity="0.21"/>
<circle cx="877.4" cy="452.1" r="0.6" opacity="0.92"/>
<circle cx="616.8" cy="292.3" r="1.4" opacity="0.39"/>
<circle cx="333.1" cy="576.5" r="1.3" opacity="0.85"/>
<circle cx="21.5" cy="153.4" r="0.7" opacity="0.84"/>
<circle cx="343.1" cy="152.8" r="0.4" opacity="0.87"/>
<circle cx="108.8" cy="449.8" r="0.5" opacity="0.91"/>
<circle cx="368.4" cy="366.1" r="0.5" opacity="0.66"/>
<circle cx="1156.9" cy="175.3" r="1.2" opacity="0.56"/>
<circle cx="1257.9" cy="80.1" r="0.9" opacity="0.84"/>
<circle cx="540.6" cy="167.1" r="0.9" opacity="0.46"/>
<circle cx="301.6" cy="315.1" r="0.4" opacity="0.94"/>
<circle cx="250.1" cy="468.6" r="1.6" opacity="0.69"/>
<circle cx="793.1" cy="326.7" r="1.1" opacity="0.88"/>
<circle cx="479.6" cy="223" r="0.9" opacity="0.67"/>
<circle cx="156.7" cy="89" r="1.1" opacity="0.37"/>
<circle cx="1259.1" cy="55.1" r="1.5" opacity="0.43"/>
<circle cx="209.6" cy="379.8" r="0.6" opacity="0.60"/>
<circle cx="1196.9" cy="594.1" r="0.9" opacity="0.51"/>
<circle cx="1210.4" cy="345.8" r="0.9" opacity="0.93"/>
<circle cx="182.6" cy="142.7" r="1.5" opacity="0.83"/>
<circle cx="1268.4" cy="232.2" r="1.4" opacity="0.48"/>
<circle cx="756.7" cy="532.2" r="1.3" opacity="0.52"/>
<circle cx="1009.4" cy="51.6" r="1.5" opacity="0.40"/>
<circle cx="774.5" cy="53.1" r="0.4" opacity="0.30"/>
<circle cx="242" cy="249.4" r="1.1" opacity="0.27"/>
<circle cx="686.4" cy="558.5" r="0.8" opacity="0.57"/>
<circle cx="656.8" cy="239.4" r="1.6" opacity="0.74"/>
<circle cx="632.6" cy="166.2" r="0.6" opacity="0.83"/>
<circle cx="892.2" cy="465.8" r="1.4" opacity="0.78"/>
<circle cx="689.3" cy="568.5" r="1" opacity="0.69"/>
<circle cx="27.6" cy="266" r="1.4" opacity="0.48"/>
<circle cx="1156.8" cy="250.1" r="0.6" opacity="0.81"/>
<circle cx="104.3" cy="486.2" r="0.6" opacity="0.78"/>
<circle cx="1343" cy="135.6" r="1.5" opacity="0.52"/>
<circle cx="1192.6" cy="535.1" r="0.7" opacity="0.31"/>
<circle cx="496.5" cy="455.3" r="1.3" opacity="0.91"/>
<circle cx="148.2" cy="282.4" r="0.9" opacity="0.66"/>
<circle cx="751.4" cy="451" r="1.4" opacity="0.67"/>
<circle cx="204.3" cy="497.4" r="0.6" opacity="0.40"/>
<circle cx="523.7" cy="377" r="1.3" opacity="0.41"/>
<circle cx="357.9" cy="151.4" r="1.4" opacity="0.28"/>
<circle cx="1389.7" cy="283.4" r="0.8" opacity="0.74"/>
<circle cx="503.8" cy="576.1" r="0.5" opacity="0.57"/>
<circle cx="144" cy="416.6" r="0.8" opacity="0.27"/>
<circle cx="724.2" cy="129.6" r="0.8" opacity="0.86"/>
<circle cx="699.3" cy="63" r="0.5" opacity="0.54"/>
<circle cx="405.6" cy="464" r="1.1" opacity="0.33"/>
<circle cx="272.1" cy="74.6" r="1.2" opacity="0.26"/>
<circle cx="890.9" cy="47.3" r="0.5" opacity="0.70"/>
<circle cx="502.6" cy="488.3" r="0.5" opacity="0.69"/>
<circle cx="852.3" cy="386.4" r="1.6" opacity="0.43"/>
<circle cx="895.9" cy="390.8" r="0.6" opacity="0.53"/>
<circle cx="412.5" cy="419" r="1" opacity="0.46"/>
<circle cx="1211.6" cy="409.2" r="0.9" opacity="0.29"/>
<circle cx="1265.3" cy="348.3" r="0.9" opacity="0.94"/>
<circle cx="923.6" cy="146.1" r="1.4" opacity="0.57"/>
<circle cx="23.8" cy="390.8" r="0.6" opacity="0.33"/>
<circle cx="500" cy="465" r="0.8" opacity="0.21"/>
<circle cx="409.3" cy="32.8" r="1.1" opacity="0.23"/>
<circle cx="29.9" cy="321.3" r="1.4" opacity="0.93"/>
<circle cx="16.3" cy="355.6" r="0.9" opacity="0.56"/>
<circle cx="925" cy="147.1" r="1" opacity="0.75"/>
<circle cx="1155.4" cy="521.5" r="1" opacity="0.60"/>
<circle cx="84.8" cy="292.2" r="1.4" opacity="0.42"/>
<circle cx="1072.2" cy="247.8" r="1.3" opacity="0.89"/>
<circle cx="402.7" cy="161.2" r="1.1" opacity="0.48"/>
<circle cx="381.9" cy="187.7" r="0.8" opacity="0.74"/>
<circle cx="618" cy="416.3" r="0.5" opacity="0.72"/>
<circle cx="1064.9" cy="441.9" r="1.1" opacity="0.70"/>
<circle cx="286.6" cy="262.2" r="1.1" opacity="0.21"/>
<circle cx="31.5" cy="517.6" r="1.5" opacity="0.29"/>
<circle cx="1335.2" cy="381.8" r="1.4" opacity="0.75"/>
<circle cx="326.1" cy="91.5" r="1.1" opacity="0.86"/>
<circle cx="317.5" cy="468.5" r="1" opacity="0.28"/>
<circle cx="385.5" cy="208.8" r="0.6" opacity="0.88"/>
<circle cx="1210.3" cy="30.1" r="1.3" opacity="0.65"/>
<circle cx="848" cy="115.7" r="1.4" opacity="0.61"/>
<circle cx="161.5" cy="201.3" r="0.6" opacity="0.30"/>
<circle cx="546.7" cy="102.8" r="1" opacity="0.55"/>
<circle cx="1370.6" cy="279.3" r="1.5" opacity="0.20"/>
<circle cx="1177.8" cy="95.4" r="0.9" opacity="0.48"/>
<circle cx="592" cy="477.9" r="1.5" opacity="0.77"/>
<circle cx="859.6" cy="383.1" r="1.6" opacity="0.35"/>
<circle cx="258.9" cy="217.7" r="1.1" opacity="0.71"/>
<circle cx="942.8" cy="70.8" r="0.5" opacity="0.90"/>
<circle cx="692.1" cy="47.4" r="0.9" opacity="0.73"/>
<circle cx="569.4" cy="108.7" r="1.4" opacity="0.81"/>
<circle cx="102.6" cy="443.9" r="0.5" opacity="0.36"/>
<circle cx="831.1" cy="551.5" r="0.9" opacity="0.72"/>
<circle cx="665" cy="278.7" r="1.4" opacity="0.58"/>
<circle cx="264.6" cy="256" r="0.4" opacity="0.37"/>
<circle cx="550.2" cy="473.1" r="0.9" opacity="0.87"/>
<circle cx="830.2" cy="19.3" r="1.4" opacity="0.20"/>
<circle cx="555.3" cy="432" r="0.9" opacity="0.38"/>
<circle cx="1284.1" cy="514.4" r="0.4" opacity="0.48"/>
<circle cx="266" cy="17.9" r="1" opacity="0.60"/>
<circle cx="1063.8" cy="390.2" r="1.3" opacity="0.23"/>
<circle cx="495" cy="536.4" r="1.2" opacity="0.56"/>
<circle cx="440.8" cy="450.4" r="0.7" opacity="0.78"/>
<circle cx="358.7" cy="92.9" r="1.1" opacity="0.67"/>
<circle cx="247.3" cy="464.2" r="1.3" opacity="0.41"/>
<circle cx="277.1" cy="175.9" r="0.7" opacity="0.69"/>
<circle cx="118.4" cy="98.8" r="1" opacity="0.83"/>
<circle cx="1217.5" cy="197.7" r="0.4" opacity="0.32"/>
<circle cx="977.7" cy="166.8" r="0.8" opacity="0.39"/>
<circle cx="1053.8" cy="616.6" r="1.5" opacity="0.68"/>
<circle cx="548.4" cy="45.7" r="0.4" opacity="0.23"/>
<circle cx="569.5" cy="266.8" r="1.4" opacity="0.71"/>
<circle cx="839" cy="188.8" r="0.5" opacity="0.73"/>
<circle cx="660.4" cy="216.2" r="1.3" opacity="0.74"/>
<circle cx="1297.8" cy="589.6" r="0.9" opacity="0.85"/>
<circle cx="1257.4" cy="271.7" r="0.6" opacity="0.78"/>
<circle cx="1099.9" cy="357.8" r="1.3" opacity="0.92"/>
<circle cx="956.9" cy="336" r="0.9" opacity="0.62"/>
<circle cx="1298.4" cy="221.2" r="0.5" opacity="0.23"/>
<circle cx="1325.5" cy="355" r="1" opacity="0.83"/>
<circle cx="970.5" cy="8.5" r="0.5" opacity="0.76"/>
<circle cx="508.9" cy="231.1" r="0.7" opacity="0.47"/>
<circle cx="972.4" cy="505.2" r="1.2" opacity="0.28"/>
<circle cx="399.8" cy="587.6" r="0.5" opacity="0.22"/>
<circle cx="398.9" cy="328.9" r="0.5" opacity="0.75"/>
<circle cx="1239.7" cy="593.8" r="1.4" opacity="0.64"/>
<circle cx="1165.8" cy="404.4" r="0.5" opacity="0.61"/>
<circle cx="231.9" cy="276" r="0.7" opacity="0.48"/>
<circle cx="1033.9" cy="16.5" r="1.2" opacity="0.72"/>
<circle cx="343.8" cy="333.3" r="0.5" opacity="0.45"/>
<circle cx="1287.9" cy="400.4" r="0.6" opacity="0.39"/>
<circle cx="1308.3" cy="563.6" r="1.1" opacity="0.50"/>
<circle cx="338.5" cy="252.3" r="0.7" opacity="0.72"/>
<circle cx="1357.3" cy="468.5" r="0.7" opacity="0.46"/>
<circle cx="1291.3" cy="93" r="1.5" opacity="0.25"/>
<circle cx="382.4" cy="107.5" r="0.8" opacity="0.58"/>
<circle cx="14.7" cy="466" r="1.3" opacity="0.25"/>
<circle cx="355.9" cy="18.1" r="1.5" opacity="0.39"/>
<circle cx="214.7" cy="592.4" r="0.8" opacity="0.26"/>
<circle cx="1013.7" cy="392.8" r="0.6" opacity="0.69"/>
<circle cx="33.4" cy="372.9" r="1.4" opacity="0.42"/>
<circle cx="799.2" cy="540.5" r="0.7" opacity="0.48"/>
<circle cx="39.2" cy="374.3" r="1.3" opacity="0.35"/>
<circle cx="1166.5" cy="394.1" r="0.8" opacity="0.27"/>
<circle cx="645.3" cy="371.5" r="0.6" opacity="0.55"/>
<circle cx="619.3" cy="234.3" r="1.2" opacity="0.27"/>
<circle cx="986.7" cy="419" r="0.6" opacity="0.66"/>
<circle cx="944.9" cy="491.6" r="1" opacity="0.82"/>
<circle cx="1246.2" cy="189.6" r="1.3" opacity="0.29"/>
<circle cx="1011.7" cy="85.3" r="1.1" opacity="0.30"/>
<circle cx="1126" cy="393" r="0.8" opacity="0.59"/>
<circle cx="475.2" cy="174.4" r="1" opacity="0.20"/>
<circle cx="789" cy="302" r="1.4" opacity="0.50"/>
<circle cx="1178.5" cy="413" r="0.9" opacity="0.78"/>
<circle cx="783.7" cy="617.3" r="0.4" opacity="0.46"/>
<circle cx="1359.1" cy="598.8" r="1" opacity="0.41"/>
<circle cx="801.3" cy="5" r="1.4" opacity="0.74"/>
<circle cx="1128" cy="122.6" r="0.4" opacity="0.52"/>
<circle cx="31.7" cy="8.5" r="1.3" opacity="0.67"/>
<circle cx="284.5" cy="85.6" r="1.2" opacity="0.58"/>
<circle cx="1158.5" cy="348.8" r="0.4" opacity="0.56"/>
<circle cx="593" cy="274.8" r="1.5" opacity="0.64"/>
<circle cx="829.1" cy="167.5" r="1.3" opacity="0.85"/>
<circle cx="954.8" cy="238.6" r="0.6" opacity="0.73"/>
<circle cx="1313.4" cy="83.8" r="1.1" opacity="0.36"/>
<circle cx="548.3" cy="338.3" r="1.4" opacity="0.29"/>
<circle cx="105.4" cy="360.1" r="1.5" opacity="0.71"/>
<circle cx="402.8" cy="523.8" r="1.1" opacity="0.48"/>
<circle cx="215" cy="222.1" r="1.1" opacity="0.62"/>
<circle cx="184.5" cy="351.1" r="0.6" opacity="0.45"/>
<circle cx="879.7" cy="206.5" r="1.5" opacity="0.76"/>
<circle cx="1066" cy="31.7" r="0.7" opacity="0.33"/>
<circle cx="530.5" cy="57.7" r="0.7" opacity="0.64"/>
<circle cx="71.6" cy="83.4" r="0.7" opacity="0.40"/>
<circle cx="1241.2" cy="62.3" r="0.9" opacity="0.22"/>
<circle cx="1026.3" cy="423.6" r="0.4" opacity="0.35"/>
<circle cx="1361.2" cy="526.3" r="1" opacity="0.62"/>
<circle cx="693" cy="260.7" r="1.2" opacity="0.24"/>
<circle cx="1328.3" cy="468.4" r="0.4" opacity="0.59"/>
<circle cx="1202.8" cy="348.8" r="0.9" opacity="0.87"/>
<circle cx="701.2" cy="466.5" r="0.7" opacity="0.65"/>
<circle cx="291" cy="159.1" r="1.6" opacity="0.36"/>
<circle cx="947.4" cy="293.4" r="1.5" opacity="0.24"/>
<circle cx="718.5" cy="299.6" r="1" opacity="0.80"/>
<circle cx="1272.4" cy="403.6" r="1.6" opacity="0.21"/>
<circle cx="157" cy="410.6" r="1.4" opacity="0.38"/>
<circle cx="1123.4" cy="312.7" r="0.5" opacity="0.43"/>
<circle cx="1174" cy="194.7" r="0.8" opacity="0.80"/>
<circle cx="195.9" cy="182" r="1.6" opacity="0.81"/>
<circle cx="938.2" cy="10.8" r="0.6" opacity="0.83"/>
<circle cx="963.9" cy="134" r="0.6" opacity="0.58"/>
<circle cx="1031" cy="487.8" r="1.1" opacity="0.31"/>
<circle cx="861.1" cy="213" r="1.1" opacity="0.95"/>
<circle cx="620.1" cy="451.5" r="1.6" opacity="0.48"/>
<circle cx="489.5" cy="380.5" r="1.1" opacity="0.62"/>
<circle cx="847.8" cy="76.7" r="1.4" opacity="0.89"/>
<circle cx="536.8" cy="304" r="1" opacity="0.72"/>
<circle cx="889.7" cy="249.1" r="0.6" opacity="0.90"/>
<circle cx="202.9" cy="600.6" r="0.5" opacity="0.66"/>
<circle cx="310.6" cy="607.3" r="1.5" opacity="0.70"/>
<circle cx="985.6" cy="586.1" r="1.3" opacity="0.22"/>
<circle cx="506.3" cy="118" r="1" opacity="0.29"/>
<circle cx="1230.4" cy="142" r="0.8" opacity="0.89"/>
<circle cx="696.3" cy="50.6" r="1.3" opacity="0.80"/>
<circle cx="160.8" cy="27.6" r="1.1" opacity="0.41"/>
<circle cx="911.4" cy="249" r="1" opacity="0.42"/>
<circle cx="1217.5" cy="144.6" r="0.5" opacity="0.21"/>
<circle cx="1125.9" cy="149.4" r="1" opacity="0.77"/>
<circle cx="752.4" cy="594.1" r="1.4" opacity="0.70"/>
<circle cx="83.7" cy="600.1" r="1.4" opacity="0.86"/>
<circle cx="658.8" cy="2.4" r="1.1" opacity="0.75"/>
<circle cx="469.7" cy="320" r="1.3" opacity="0.64"/>
<circle cx="573.8" cy="349.9" r="0.9" opacity="0.40"/>
<circle cx="656.5" cy="471.6" r="1.6" opacity="0.27"/>
<circle cx="195.8" cy="99.9" r="0.7" opacity="0.84"/>
<circle cx="123.4" cy="464.1" r="1.2" opacity="0.77"/>
<circle cx="372.2" cy="381.7" r="0.6" opacity="0.55"/>
<circle cx="462" cy="290.4" r="1.2" opacity="0.29"/>
<circle cx="565.9" cy="12.8" r="1.5" opacity="0.76"/>
<circle cx="629" cy="564.9" r="1.6" opacity="0.41"/>
<circle cx="112" cy="63.1" r="1.1" opacity="0.47"/>
<circle cx="188.6" cy="202.8" r="1.3" opacity="0.92"/>
<circle cx="1030.3" cy="347.1" r="1.4" opacity="0.39"/>
<circle cx="331.8" cy="355.1" r="1" opacity="0.73"/>
<circle cx="720.6" cy="100.3" r="0.5" opacity="0.32"/>
<circle cx="55.4" cy="329.8" r="0.6" opacity="0.78"/>
<circle cx="577.3" cy="506.2" r="0.9" opacity="0.51"/>
<circle cx="1368" cy="535.5" r="1" opacity="0.31"/>
<circle cx="358.1" cy="552.5" r="0.7" opacity="0.90"/>
</g>
<path d="M0,620 C300,600 500,640 700,630 C900,620 1100,600 1400,630 V1000 H0 Z" fill="#b8a888"/>
<path d="M-20,650 C300,636 900,666 1420,644" fill="none" stroke="#9a8a6a" stroke-width="1.4" opacity="0.5"/>
<path d="M-20,684 C300,670 900,700 1420,678" fill="none" stroke="#9a8a6a" stroke-width="1.4" opacity="0.5"/>
<path d="M-20,718 C300,704 900,734 1420,712" fill="none" stroke="#9a8a6a" stroke-width="1.4" opacity="0.5"/>
<path d="M-20,752 C300,738 900,768 1420,746" fill="none" stroke="#9a8a6a" stroke-width="1.4" opacity="0.5"/>
<path d="M-20,786 C300,772 900,802 1420,780" fill="none" stroke="#9a8a6a" stroke-width="1.4" opacity="0.5"/>
<path d="M-20,820 C300,806 900,836 1420,814" fill="none" stroke="#9a8a6a" stroke-width="1.4" opacity="0.5"/>
<path d="M-20,854 C300,840 900,870 1420,848" fill="none" stroke="#9a8a6a" stroke-width="1.4" opacity="0.5"/>
<path d="M-20,888 C300,874 900,904 1420,882" fill="none" stroke="#9a8a6a" stroke-width="1.4" opacity="0.5"/>
<path d="M-20,922 C300,908 900,938 1420,916" fill="none" stroke="#9a8a6a" stroke-width="1.4" opacity="0.5"/>
<path d="M-20,956 C300,942 900,972 1420,950" fill="none" stroke="#9a8a6a" stroke-width="1.4" opacity="0.5"/>
<path d="M690,640 C680,560 700,520 690,440 L710,440 C700,520 720,560 710,640 Z" fill="#dff1ff" opacity="0.9"/>
<path d="M700,440 Q536.6,382 291.6,362.4" fill="none" stroke="#cfe8ff" stroke-width="1.1" opacity="0.75"/>
<path d="M700,440 Q582.2,378.3 405.4,350.6" fill="none" stroke="#cfe8ff" stroke-width="1.4" opacity="0.75"/>
<path d="M700,440 Q579.5,368.3 398.8,318.7" fill="none" stroke="#cfe8ff" stroke-width="2" opacity="0.75"/>
<path d="M700,440 Q565,352.8 362.5,269.1" fill="none" stroke="#cfe8ff" stroke-width="2.4" opacity="0.75"/>
<path d="M700,440 Q572,342.7 380,236.7" fill="none" stroke="#cfe8ff" stroke-width="2.6" opacity="0.75"/>
<path d="M700,440 Q612.3,350.6 480.7,262" fill="none" stroke="#cfe8ff" stroke-width="1.7" opacity="0.75"/>
<path d="M700,440 Q616.8,341.4 491.9,232.5" fill="none" stroke="#cfe8ff" stroke-width="1.4" opacity="0.75"/>
<path d="M700,440 Q611.7,321.8 479.2,169.6" fill="none" stroke="#cfe8ff" stroke-width="1.7" opacity="0.75"/>
<path d="M700,440 Q638.6,330.2 546.5,196.6" fill="none" stroke="#cfe8ff" stroke-width="2.5" opacity="0.75"/>
<path d="M700,440 Q639.9,308.8 549.7,128.2" fill="none" stroke="#cfe8ff" stroke-width="0.8" opacity="0.75"/>
<path d="M700,440 Q653.9,299.5 584.7,98.4" fill="none" stroke="#cfe8ff" stroke-width="2.4" opacity="0.75"/>
<path d="M700,440 Q676.9,314.7 642.3,147.1" fill="none" stroke="#cfe8ff" stroke-width="1.7" opacity="0.75"/>
<path d="M700,440 Q692.1,311.9 680.3,138.2" fill="none" stroke="#cfe8ff" stroke-width="1.9" opacity="0.75"/>
<path d="M700,440 Q706.7,325.1 716.7,180.5" fill="none" stroke="#cfe8ff" stroke-width="2" opacity="0.75"/>
<path d="M700,440 Q717.9,333.7 744.9,207.8" fill="none" stroke="#cfe8ff" stroke-width="0.9" opacity="0.75"/>
<path d="M700,440 Q739.4,314.1 798.5,145.2" fill="none" stroke="#cfe8ff" stroke-width="0.8" opacity="0.75"/>
<path d="M700,440 Q750.1,324.1 825.2,177.1" fill="none" stroke="#cfe8ff" stroke-width="2.4" opacity="0.75"/>
<path d="M700,440 Q764.4,326.8 860.9,185.8" fill="none" stroke="#cfe8ff" stroke-width="1.7" opacity="0.75"/>
<path d="M700,440 Q777.8,331 894.6,199.3" fill="none" stroke="#cfe8ff" stroke-width="1.1" opacity="0.75"/>
<path d="M700,440 Q768.7,351.7 871.7,265.3" fill="none" stroke="#cfe8ff" stroke-width="1.2" opacity="0.75"/>
<path d="M700,440 Q806.9,339.8 967.3,227.5" fill="none" stroke="#cfe8ff" stroke-width="1.3" opacity="0.75"/>
<path d="M700,440 Q811.9,349.9 979.7,259.8" fill="none" stroke="#cfe8ff" stroke-width="2" opacity="0.75"/>
<path d="M700,440 Q796,366.5 939.9,312.7" fill="none" stroke="#cfe8ff" stroke-width="2" opacity="0.75"/>
<path d="M700,440 Q793.1,375.5 932.7,341.8" fill="none" stroke="#cfe8ff" stroke-width="2.5" opacity="0.75"/>
<path d="M700,440 Q836.2,375 1040.4,339.8" fill="none" stroke="#cfe8ff" stroke-width="1" opacity="0.75"/>
<path d="M700,440 Q855.5,382.9 1088.8,365.2" fill="none" stroke="#cfe8ff" stroke-width="1.5" opacity="0.75"/>
<circle cx="700" cy="420" r="60" fill="#cfe8ff" opacity="0.15"/>
<circle cx="700" cy="640" r="18" fill="#fff6c8" opacity="0.9"/>
<circle cx="700" cy="640" r="40" fill="none" stroke="#fff6c8" stroke-width="1.4" opacity="0.6"/>
<path d="M360,732 q6,-26 12,0" fill="#a8987a" stroke="#6a5a3a" stroke-width="1"/>
<path d="M386,732 q6,-26 12,0" fill="#a8987a" stroke="#6a5a3a" stroke-width="1"/>
<path d="M412,732 q6,-26 12,0" fill="#a8987a" stroke="#6a5a3a" stroke-width="1"/>
<path d="M438,732 q6,-26 12,0" fill="#a8987a" stroke="#6a5a3a" stroke-width="1"/>
<path d="M464,732 q6,-26 12,0" fill="#a8987a" stroke="#6a5a3a" stroke-width="1"/>
<path d="M490,732 q6,-26 12,0" fill="#a8987a" stroke="#6a5a3a" stroke-width="1"/>
<circle cx="420" cy="696" r="6" fill="#e6d8b8"/>
<text x="700" y="960" font-family="Georgia, 'Times New Roman', serif" font-size="15" font-weight="normal" fill="#f2ead2" text-anchor="middle" font-style="italic" stroke="#2a2a3a" stroke-width="3" stroke-linejoin="round" paint-order="stroke">La dimensione che connette ogni Eldiano · the dimension connecting every Eldian</text>
<rect x="50" y="18" width="300" height="104" rx="6" fill="#2a2a24" fill-opacity="0.92" stroke="#b0823f" stroke-width="3"/>
<rect x="56" y="24" width="288" height="92" rx="3" fill="none" stroke="#b0823f" stroke-width="1" opacity="0.7"/>
<text x="200" y="63.5" font-family="Georgia, 'Times New Roman', serif" font-size="28" font-weight="bold" fill="#efe3c4" text-anchor="middle" letter-spacing="3">I Sentieri</text>
<text x="200" y="97.1" font-family="'Hiragino Mincho ProN', 'Yu Mincho', 'Noto Serif CJK JP', 'Noto Serif JP', serif" font-size="15.4" font-weight="normal" fill="#efe3c4" text-anchor="middle" letter-spacing="1">道</text>
<text x="200" y="115.6" font-family="Georgia, 'Times New Roman', serif" font-size="11.8" font-weight="normal" fill="#efe3c4" text-anchor="middle" letter-spacing="1" font-style="italic">The Paths · le Coordinate</text>
<rect x="20" y="920" width="170" height="60" rx="6" fill="#2a2a24" stroke="#b0823f" stroke-width="2"/>
<text x="124" y="955" font-family="Georgia, 'Times New Roman', serif" font-size="14" font-weight="normal" fill="#efe3c4" text-anchor="middle" font-style="italic">↑ Il Mondo</text>
</svg>
